<svg xmlns="http://www.w3.org/2000/svg" width="15.792" height="12.896" viewBox="0 0 15.792 12.896">
  <g id="Group_3135" data-name="Group 3135" transform="translate(-952 -1047.104)">
    <path id="Path_5379" data-name="Path 5379" d="M17.508,12.2,10.9,18.239,4.284,12.2a.8.8,0,0,0-1.063,0,.645.645,0,0,0,0,.971l7.144,6.523a.8.8,0,0,0,1.063,0l7.144-6.523a.645.645,0,0,0,0-.971A.8.8,0,0,0,17.508,12.2Z" transform="translate(949 1040.104)" fill="#fff"/>
    <path id="Path_5378" data-name="Path 5378" d="M17.508,12.2,10.9,18.239,4.284,12.2a.8.8,0,0,0-1.063,0,.645.645,0,0,0,0,.971l7.144,6.523a.8.8,0,0,0,1.063,0l7.144-6.523a.645.645,0,0,0,0-.971A.8.8,0,0,0,17.508,12.2Z" transform="translate(949 1035.104)" fill="#fff"/>
  </g>
</svg>
