<svg xmlns="http://www.w3.org/2000/svg" width="20" height="20.001" viewBox="0 0 20 20.001">
<path id="Path_4968" data-name="Path 4968" d="M11.053,18.978a1.117,1.117,0,0,0-.006-1.138l-1.06-1.779a1.114,1.114,0,0,1,.076-1.261,28.947,28.947,0,0,1,2.207-2.532A28.947,28.947,0,0,1,14.8,10.061a1.114,1.114,0,0,1,1.261-.076l1.779,1.06a1.121,1.121,0,0,0,1.142,0l4.46-2.611A1.125,1.125,0,0,0,23.968,7.2a3.7,3.7,0,0,0-1.038-1.728C20.917,3.456,17.523,2.388,9.956,9.955S3.457,20.916,5.47,22.928A3.7,3.7,0,0,0,7.2,23.967a1.12,1.12,0,0,0,1.237-.522Z" transform="translate(-4 -3.999)" fill="#f7f7f7"/>
</svg>
