<svg width="22" height="22" viewBox="0 0 22 22" fill="none" xmlns="http://www.w3.org/2000/svg">
<path d="M11.0043 3.37772e-06C9.09104 -0.00149636 7.21049 0.496454 5.54849 1.44465C3.8865 2.39284 2.50058 3.75846 1.52769 5.40655C0.5548 7.05465 0.0286166 8.92818 0.00113465 10.842C-0.0263473 12.7558 0.445823 14.6437 1.37099 16.3191C2.29615 17.9944 3.64229 19.3993 5.27637 20.3949C6.91046 21.3904 8.77593 21.9422 10.6885 21.9957C12.601 22.0492 14.4944 21.6025 16.1815 20.6998C17.8686 19.7971 19.2911 18.4697 20.3084 16.8486V19.4615H22V13.5385H16.0792V15.2308H19.2873C18.2502 17.2577 16.506 18.8337 14.385 19.66C12.264 20.4863 9.91375 20.5055 7.77954 19.7141C5.64533 18.9227 3.87548 17.3755 2.80538 15.3658C1.73528 13.3562 1.43928 11.0236 1.97348 8.81019C2.50768 6.59678 3.83495 4.6563 5.70379 3.35648C7.57262 2.05666 9.85315 1.48782 12.1132 1.75775C14.3733 2.02768 16.4559 3.11762 17.9663 4.82104C19.4767 6.52446 20.31 8.72299 20.3084 11H22C21.9965 8.0837 20.8369 5.28783 18.7756 3.22569C16.7142 1.16354 13.9195 0.00349666 11.0043 3.37772e-06ZM10.1585 4.23077V11.8462H15.2334V10.1538H11.8501V4.23077H10.1585Z" fill="black"/>
</svg>
