<svg width="16" height="16" viewBox="0 0 16 16" fill="none" xmlns="http://www.w3.org/2000/svg">
<path d="M11.5938 0.5C10.5488 0.5 9.55762 0.912598 8.82031 1.65234L7.90234 2.57031C7.1626 3.31006 6.75 4.29883 6.75 5.34375C6.75 5.83936 6.84521 6.32275 7.02344 6.76953L8.03906 5.75391C7.91211 4.94336 8.15869 4.07178 8.78125 3.44922L9.69922 2.53125C10.2021 2.02832 10.8833 1.75 11.5938 1.75C12.3042 1.75 12.9658 2.02832 13.4688 2.53125C14.5063 3.56885 14.5063 5.26318 13.4688 6.30078L12.5508 7.21875C12.0479 7.72168 11.3667 8 10.6562 8C10.5171 8 10.3804 7.98535 10.2461 7.96094L9.23047 8.97656C9.67725 9.15479 10.1606 9.25 10.6562 9.25C11.7012 9.25 12.6924 8.8374 13.4297 8.09766L14.3477 7.17969C15.0874 6.43994 15.5 5.45117 15.5 4.40625C15.5 3.36133 15.0874 2.39209 14.3477 1.65234C13.6104 0.912598 12.6387 0.5 11.5938 0.5ZM10.0508 5.05078L5.05078 10.0508L5.94922 10.9492L10.9492 5.94922L10.0508 5.05078ZM5.34375 6.75C4.29883 6.75 3.30762 7.1626 2.57031 7.90234L1.65234 8.82031C0.912598 9.56006 0.5 10.5488 0.5 11.5938C0.5 12.6387 0.912598 13.6079 1.65234 14.3477C2.38965 15.0874 3.36133 15.5 4.40625 15.5C5.45117 15.5 6.44238 15.0874 7.17969 14.3477L8.09766 13.4297C8.8374 12.6899 9.25 11.7012 9.25 10.6562C9.25 10.1606 9.15479 9.67725 8.97656 9.23047L7.96094 10.2461C8.08789 11.0566 7.84131 11.9282 7.21875 12.5508L6.30078 13.4688C5.79785 13.9717 5.1167 14.25 4.40625 14.25C3.6958 14.25 3.03418 13.9717 2.53125 13.4688C1.49365 12.4312 1.49365 10.7368 2.53125 9.69922L3.44922 8.78125C3.95215 8.27832 4.6333 8 5.34375 8C5.48291 8 5.61963 8.01465 5.75391 8.03906L6.76953 7.02344C6.32275 6.84521 5.83936 6.75 5.34375 6.75Z" fill="#B3B6BC"/>
</svg>
