<svg xmlns="http://www.w3.org/2000/svg" width="193.23" height="20.492" viewBox="0 0 193.23 20.492">
  <g id="Group_3172" data-name="Group 3172" transform="translate(-100 -234)">
    <g id="Group_2955" data-name="Group 2955" transform="translate(100 234)">
      <g id="Group_2954" data-name="Group 2954">
        <path id="Path_3691" data-name="Path 3691" d="M14.173,149.472V128.981H34.664v20.491h-4.1v-16.4h-4.1v16.4h-4.1v-16.4h-4.1v16.4Z" transform="translate(-14.173 -128.981)" fill="#7e7e7e"/>
        <path id="Path_3692" data-name="Path 3692" d="M32.548,141.275v4.1h16.4v4.1H28.452V128.981H48.943v4.1h-16.4v4.1h16.4v4.1Z" transform="translate(5.975 -128.981)" fill="#7e7e7e"/>
        <path id="Path_3693" data-name="Path 3693" d="M42.73,128.981H63.221v4.1h-8.2v16.4h-4.1v-16.4h-8.2Z" transform="translate(26.122 -128.981)" fill="#7e7e7e"/>
        <path id="Path_3694" data-name="Path 3694" d="M67.255,149.472v-4.1h3.969l-3.969-10.247-5.572,14.346H57.008l8.2-20.491h4.1l8.2,20.491Z" transform="translate(46.269 -128.981)" fill="#7e7e7e"/>
        <path id="Path_5497" data-name="Path 5497" d="M14.173,149.472V128.981H34.664v20.491h-4.1v-16.4h-4.1v16.4h-4.1v-16.4h-4.1v16.4Z" transform="translate(-14.173 -128.981)" fill="#7e7e7e"/>
      </g>
    </g>
    <path id="Path_3695" data-name="Path 3695" d="M91.905,128.981v20.492H71.413V128.981h4.1v16.393h12.3V128.981Z" transform="translate(166.595 105.019)" fill="#7e7e7e"/>
    <path id="Path_3696" data-name="Path 3696" d="M85.818,128.981v20.491h4.1v-8.2h16.4v-12.3Zm16.393,8.2h-12.3v-4.1h12.3Z" transform="translate(186.921 105.019)" fill="#7e7e7e"/>
  </g>
</svg>

