<svg width="287" height="151" viewBox="0 0 287 151" fill="none" xmlns="http://www.w3.org/2000/svg">
<path d="M12.2077 150.716C12.0672 149.622 11.7816 148.552 11.3584 147.534C10.7652 146.348 6.99109 147.103 6.99109 147.103C6.99109 147.103 6.23626 147.75 6.07471 150.769L12.2077 150.716Z" fill="#434343"/>
<path d="M25.0662 150.689C24.1794 150.148 24.6839 146.11 24.6839 146.11C24.6839 146.11 28.8165 142.804 29.3846 145.335C29.9527 147.866 33.31 149.002 35.2213 149.312C36.5407 149.526 36.949 150.257 37.0753 150.689H25.0662Z" fill="#434343"/>
<path d="M16.5073 121.319C16.6524 122.056 16.7536 122.802 16.8106 123.551C17.1946 131.044 23.1179 148.176 24.1773 148.576C25.8167 149.194 28.3981 147.879 29.7484 147.449C30.0222 147.369 30.2565 147.19 30.4065 146.947C30.5565 146.704 30.6115 146.414 30.561 146.133C27.6278 132.649 26.5499 113.231 26.1575 101.734C26.0704 98.4404 25.6713 95.1623 24.9657 91.9438C24.9657 91.9438 10.5191 88.0893 10.4335 92.9652C10.358 97.28 15.2188 114.202 16.5073 121.319Z" fill="#292A2C"/>
<path d="M16.5074 121.319L26.158 101.734C26.0709 98.4404 25.6718 95.1623 24.9662 91.9438C24.9662 91.9438 10.5196 88.0893 10.434 92.9652C10.3581 97.28 15.2189 114.202 16.5074 121.319Z" fill="#212121"/>
<path d="M19.7214 92.9828L12.085 148.334C12.085 148.334 8.73024 149.142 6.12282 148.495C6.12282 148.495 3.88706 119.058 4.07333 111.941C4.25961 104.824 2.46836 92.8972 4.48208 91.5818C6.4958 90.2663 19.7214 92.9828 19.7214 92.9828Z" fill="#292A2C"/>
<path d="M2.99297 92.0607C2.97549 92.3033 3.04204 92.5446 3.18142 92.7439C3.3208 92.9433 3.52452 93.0886 3.75839 93.1554C4.82352 93.4644 6.05374 93.6798 8.42059 94.1707C11.3492 94.7618 14.3292 95.0612 17.3168 95.0646C23.1669 95.1021 25.3814 93.0857 25.3814 93.0857C25.6335 93.0906 25.249 91.8661 24.9016 86.0447C24.7842 84.0729 24.6708 81.5732 24.5891 78.414C24.5149 75.5718 24.4655 72.1945 24.4606 68.1883C24.4545 63.3689 16.995 58.1841 16.8573 58.1841V58.1863C16.8573 58.8802 15.7635 60.1607 14.0795 60.2711C12.0803 60.4035 9.62741 59.4068 9.62741 58.2556C9.62741 58.2441 6.01313 64.0381 4.72774 70.2099C4.56441 70.9926 4.43816 71.818 4.33796 72.6867C4.03294 75.3051 4.32692 73.4389 2.99297 92.0607Z" fill="#00EAA2"/>
<path d="M16.8564 58.184C16.8564 58.184 23.7928 58.1253 25.464 60.4666C27.1352 62.8078 30.7936 75.4022 28.8836 79.5934C26.9736 83.7846 23.3995 77.8596 21.4158 75.2928C19.4321 72.7259 16.8564 58.184 16.8564 58.184Z" fill="#00EAA2"/>
<path d="M16.9272 57.1273L16.9232 57.8442C16.9232 57.8442 17.1183 60.087 14.3573 60.4141C11.5962 60.7412 9.54016 60.0018 9.61476 58.2715C9.88097 57.0093 10.0495 55.7285 10.1188 54.4404C10.1249 53.9909 10.0921 53.5416 10.0209 53.0977L15.3717 52.9908L16.9475 53.2482L16.9272 57.1273Z" fill="#FFB27D"/>
<path d="M16.9477 53.2468L16.9274 57.1255C16.3237 57.4076 15.6652 57.5529 14.9989 57.5511C12.5397 57.5511 10.9502 55.7479 10.1195 54.4391C10.1255 53.9895 10.0927 53.5403 10.0215 53.0963L15.3723 52.9895L16.9477 53.2468Z" fill="#E2915A"/>
<path d="M9.6113 52.2351C10.2319 55.5762 14.5432 55.4667 16.4064 55.2566C16.9308 55.1983 17.2606 55.1312 17.2606 55.1312C17.8516 54.9732 18.1818 54.0423 18.3349 52.8226C18.6391 50.409 18.255 46.8636 17.8472 45.9591C17.2336 44.5956 16.0775 43.1204 11.7358 44.1846C7.39408 45.2489 8.81455 47.9539 9.6113 52.2351Z" fill="#FFB27D"/>
<path d="M23.9496 67.5707C23.9496 67.5707 26.6326 73.4953 26.554 75.2711C25.6744 75.2583 24.7974 75.371 23.9496 75.6057C21.8525 76.2312 23.9496 67.5707 23.9496 67.5707Z" fill="#009B6B"/>
<path d="M19.1793 42.7783C17.742 42.6145 16.3378 42.2346 15.0141 41.6514C13.1844 40.8568 10.8767 41.7317 10.1272 42.1268C10.1542 41.9649 10.2166 41.811 10.3099 41.6761C10.1176 41.8158 9.98094 42.0191 9.92415 42.2499C9.88972 42.2755 9.87428 42.2941 9.88311 42.2989C9.67416 42.2606 9.45899 42.2746 9.25674 42.3395C9.25674 42.3395 9.42844 42.3153 9.48935 42.4252C9.49634 42.437 9.50565 42.4474 9.51672 42.4556C6.66299 43.8346 6.39947 48.3445 7.31761 49.388C8.32378 50.673 9.23983 52.0261 10.0592 53.4375C10.1672 52.8618 10.1572 52.2701 10.0296 51.6984C9.8288 50.5948 10.7831 50.5948 11.9882 50.0912C13.1933 49.5875 12.189 48.183 13.2436 47.3288C14.2981 46.4747 18.1653 46.9757 18.115 46.3246C19.5509 45.7998 19.1793 42.9253 19.1793 42.7783Z" fill="#292A2C"/>
<path d="M8.73682 78.6687C9.86948 83.2152 22.1169 85.5667 24.9013 86.0443C24.7839 84.0725 24.6705 81.5727 24.5888 78.4135L8.73682 78.6687Z" fill="#009B6B"/>
<path d="M11.4246 80.1466C11.3081 80.1466 8.70201 79.7577 8.235 79.5242C7.76798 79.2906 5.63331 76.2577 7.0317 75.479C8.4301 74.7004 12.1825 77.8128 12.1825 77.8128L11.4246 80.1466Z" fill="#FFB27D"/>
<path d="M27.2756 81.0483C27.2756 81.0483 17.1964 81.5952 10.4326 80.1469C10.4168 79.5299 10.5977 78.9239 10.9492 78.4166C11.3006 77.9093 11.8044 77.527 12.3876 77.325C12.3876 77.325 22.9299 75.0906 25.4623 75.713C27.9946 76.3354 27.2756 81.0483 27.2756 81.0483Z" fill="#00EAA2"/>
<path d="M4.12916 73.1383C6.22101 75.6605 8.95556 77.7197 11.97 78.2017C12.5652 77.1855 12.8261 76.008 12.716 74.8355C12.6101 73.7309 12.233 72.6695 11.6182 71.7456C11.3821 71.3676 11.1836 70.9673 11.0253 70.5507C9.37931 66.3507 9.62431 58.2556 9.62431 58.2556C9.62431 58.2556 2.6341 58.9879 0.455725 62.0994C-0.877341 64.005 0.823859 69.1505 4.12916 73.1383Z" fill="#00EAA2"/>
<path d="M16.406 55.2566C16.9304 55.1984 17.2601 55.1313 17.2601 55.1313C17.8512 54.9733 18.1813 54.0423 18.3345 52.8223C17.9425 52.9303 17.5774 53.1191 17.2625 53.3765C16.9477 53.6339 16.6901 53.9542 16.5062 54.3169C16.4033 54.6188 16.3691 54.9398 16.406 55.2566Z" fill="#E2915A"/>
<path d="M19.2224 57.1463C19.2224 57.1463 21.6365 53.1625 19.7592 52.9891C19.1728 52.9151 18.5779 53.0261 18.0575 53.3065C17.5372 53.5868 17.1173 54.0226 16.8565 54.553C16.5855 55.0196 16.9271 57.1251 16.9271 57.1251L19.2224 57.1463Z" fill="#FFB27D"/>
<path d="M10.0209 74.7017C10.0931 75.1796 10.2316 75.6451 10.4323 76.0847C10.7987 76.8861 11.3212 77.6065 11.9693 78.2035C18.2374 75.3736 19.5082 65.655 19.7205 60.3152C19.8062 58.1691 19.7205 56.7296 19.7205 56.7296C16.892 55.7929 16.097 57.4204 16.097 57.4204C16.097 57.4204 12.7573 65.3623 11.0247 70.5524C10.363 72.5366 9.9362 74.1204 10.0209 74.7017Z" fill="#00EAA2"/>
<path d="M4.12891 73.1387C6.22076 75.6609 8.95531 77.7201 11.9697 78.2021C18.2378 75.3722 19.5086 65.6536 19.7209 60.3139C19.7209 60.3139 16.7542 71.0751 12.7157 74.8364C12.0976 75.4733 11.3016 75.9087 10.4318 76.0856C10.4318 76.0856 5.3397 74.6461 4.27148 73.2914C4.23359 73.2323 4.18528 73.1806 4.12891 73.1387Z" fill="#009B6B"/>
<g opacity="0.34">
<g opacity="0.34">
<path opacity="0.34" d="M265.469 131.419C265.469 131.419 262.403 127.843 265.281 125.569C265.281 125.569 267.382 124.296 269.096 124.399C269.096 124.399 266.668 128.472 267.453 128.877C268.238 129.282 269.832 124.144 269.832 124.144C269.832 124.144 274.615 123.68 276.153 124.42C276.153 124.42 272.065 127.766 272.926 127.966C273.787 128.165 278.204 124.881 278.204 124.881C278.204 124.881 282.655 125.638 282.418 128.354C282.18 131.07 280.647 131.908 279.973 131.836C279.299 131.764 275.355 130.258 275.269 130.811C275.183 131.363 277.557 133.168 279.219 133.252C279.219 133.252 276.081 136.714 273.995 135.715C271.909 134.716 271.731 133.132 270.431 132.536C269.131 131.941 268.021 131.944 268.558 132.55C269.094 133.155 271.448 133.744 272.191 135.06C272.935 136.375 273.604 137.262 271.444 136.937C269.284 136.613 265.778 135.034 265.624 133.225L265.469 131.419Z" fill="#939393"/>
<g opacity="0.34">
<path opacity="0.34" d="M280.229 128.426C280.229 128.426 268.137 127.96 265.468 131.418C264.948 132.722 264.122 133.881 263.06 134.797L262.777 135.569C262.777 135.569 264.872 133.362 265.622 133.227C265.623 133.227 264.451 128.943 280.229 128.426Z" fill="#939393"/>
<path opacity="0.34" d="M263.062 134.797C262.259 135.452 261.598 136.265 261.121 137.184C260.643 138.104 260.359 139.112 260.286 140.146L260.757 140.19C260.757 140.19 261.586 136.644 263.084 135.258C264.582 133.871 263.062 134.797 263.062 134.797Z" fill="#939393"/>
</g>
</g>
<g opacity="0.34">
<path opacity="0.34" d="M254.748 126.92C254.748 126.92 259.626 124.188 257.349 120.48C257.349 120.48 255.528 118.204 253.577 117.618C253.577 117.618 254.618 123.147 253.577 123.277C252.536 123.407 252.862 117.033 252.862 117.033C252.862 117.033 247.724 114.561 245.707 114.757C245.707 114.757 248.894 120.155 247.853 120.025C246.812 119.895 243.235 114.432 243.235 114.432C243.235 114.432 237.967 113.456 237.122 116.578C236.276 119.7 237.642 121.261 238.423 121.456C239.203 121.651 244.211 121.586 244.081 122.237C243.951 122.887 240.569 123.928 238.682 123.34C238.682 123.34 240.764 128.479 243.494 128.218C246.224 127.958 247.069 126.267 248.762 126.137C250.455 126.007 251.689 126.462 250.843 126.917C249.998 127.372 247.136 127.067 245.77 128.227C244.405 129.388 243.298 130.104 245.835 130.624C248.372 131.145 252.925 130.819 253.835 128.868L254.748 126.92Z" fill="#939393"/>
<g opacity="0.34">
<path opacity="0.34" d="M239.528 117.554C239.528 117.554 253.186 121.977 254.747 126.92C254.794 128.584 255.24 130.212 256.048 131.667V132.643C256.048 132.643 254.617 129.326 253.837 128.871C253.837 128.871 256.894 124.578 239.528 117.554Z" fill="#939393"/>
<path opacity="0.34" d="M256.048 131.668C256.675 132.726 257.079 133.901 257.235 135.12C257.39 136.34 257.295 137.579 256.954 138.76L256.411 138.615C256.411 138.615 256.938 134.326 255.838 132.17C254.738 130.014 256.048 131.668 256.048 131.668Z" fill="#939393"/>
</g>
</g>
<g opacity="0.34">
<path opacity="0.34" d="M262.508 123.152C262.508 123.152 256.078 119.551 259.079 114.664C259.079 114.664 261.48 111.662 264.051 110.891C264.051 110.891 262.68 118.179 264.051 118.351C265.423 118.523 264.994 110.121 264.994 110.121C264.994 110.121 271.768 106.863 274.425 107.119C274.425 107.119 270.224 114.235 271.596 114.064C272.967 113.893 277.683 106.692 277.683 106.692C277.683 106.692 284.628 105.406 285.742 109.522C286.857 113.637 285.056 115.695 284.027 115.952C282.998 116.21 276.397 116.123 276.567 116.981C276.738 117.839 281.197 119.21 283.683 118.438C283.683 118.438 280.94 125.211 277.339 124.868C273.738 124.525 272.623 122.296 270.394 122.124C268.165 121.953 266.536 122.553 267.651 123.153C268.765 123.754 272.538 123.35 274.338 124.881C276.139 126.411 277.596 127.353 274.253 128.04C270.909 128.728 264.908 128.298 263.707 125.726L262.508 123.152Z" fill="#939393"/>
<g opacity="0.34">
<path opacity="0.34" d="M282.571 110.806C282.571 110.806 264.566 116.636 262.508 123.152C262.447 125.345 261.859 127.492 260.793 129.41V130.697C260.793 130.697 262.68 126.324 263.707 125.724C263.708 125.724 259.679 120.065 282.571 110.806Z" fill="#939393"/>
<path opacity="0.34" d="M260.793 129.41C260.793 129.41 258.017 133.627 259.601 138.759L260.316 138.567C260.316 138.567 259.623 132.914 261.075 130.071C262.528 127.228 260.793 129.41 260.793 129.41Z" fill="#939393"/>
</g>
</g>
<path opacity="0.34" d="M262.292 149.89C265.632 149.89 268.836 148.563 271.198 146.201C273.56 143.838 274.887 140.635 274.887 137.294H249.696C249.696 140.635 251.023 143.838 253.385 146.2C255.747 148.563 258.951 149.89 262.292 149.89Z" fill="#939393"/>
<path opacity="0.34" d="M275.061 150.53H249.522C249.522 150.326 249.563 150.124 249.641 149.935C249.719 149.747 249.833 149.576 249.977 149.431C250.122 149.287 250.293 149.172 250.482 149.094C250.67 149.016 250.872 148.976 251.076 148.976H273.508C273.712 148.976 273.914 149.016 274.103 149.094C274.291 149.172 274.463 149.287 274.607 149.431C274.751 149.576 274.866 149.747 274.944 149.935C275.022 150.124 275.062 150.326 275.062 150.53H275.061Z" fill="#939393"/>
<path opacity="0.34" d="M275.174 137.294H249.281V137.68H275.174V137.294Z" fill="#939393"/>
</g>
<path d="M218.485 53.2994C217.982 53.0146 217.426 52.836 216.852 52.7745C216.277 52.713 215.697 52.7699 215.145 52.9419C209.472 52.2758 207.818 58.8917 207.894 61.168C207.97 63.4444 208.231 65.8912 205.697 68.8486C198.379 77.3913 213.706 77.7678 213.706 77.7678C213.835 70.9427 222.017 73.4331 221.658 74.1244C232.146 76.64 222.701 55.4866 218.485 53.2994Z" fill="#292A2C"/>
<path d="M196.602 81.7534C196.602 81.7534 195.604 80.2344 194.8 80.2049C193.996 80.1753 192.507 79.7581 192.626 80.0561C192.745 80.3541 193.668 80.3837 193.757 80.5624C193.847 80.7412 192.389 81.0091 191.971 81.0392C191.552 81.0692 190.571 81.0392 190.602 81.2475C190.634 81.4559 192.374 82.3197 193.604 82.2005C194.533 82.1656 195.462 82.2864 196.351 82.5581L196.602 81.7534Z" fill="#FFB27D"/>
<path d="M211.03 82.2442C210.593 83.0589 210.082 83.8315 209.504 84.5519C208.318 86.0368 206.49 87.7521 204.195 88.0907C203.116 88.2245 202.022 88.0469 201.041 87.5787H201.038C198.251 86.3428 196.155 83.4961 196.155 83.4961C196.007 83.1264 195.958 82.7246 196.013 82.3304C196.068 81.9361 196.224 81.5629 196.467 81.2475C196.467 81.2475 202.095 82.5135 202.632 82.2455C203.168 81.9776 206.295 72.9697 207.039 71.8379C207.782 70.7061 210.321 70.1164 210.321 70.1164L211.03 82.2442Z" fill="#00EAA2"/>
<path d="M209.503 84.5519C208.318 86.0368 206.49 87.7521 204.195 88.0907C203.116 88.2245 202.022 88.0468 201.041 87.5787C201.15 87.5928 203.934 87.9371 205.043 85.9516C206.175 83.9264 207.399 80.7103 209.08 81.7825C209.808 82.2455 209.774 83.3949 209.503 84.5519Z" fill="#009B6B"/>
<path d="M232.028 142.999C232.028 142.999 233.745 144.566 233.41 145.68C233.074 146.793 231.525 147.536 231.315 148.897C231.106 150.257 230.268 151 229.514 151H225.919C225.919 151 225.365 150.042 226.705 149.753C228.046 149.465 228.551 147.865 228.467 146.381C228.432 145.224 228.474 144.067 228.593 142.916L231.441 142.256L232.028 142.999Z" fill="#434343"/>
<path d="M217.492 143.664C217.492 143.664 218.11 150.304 217.356 150.675L207.707 150.655C207.707 150.655 207.707 149.541 209.256 149.294C210.806 149.047 213.529 148.14 213.99 146.118C214.451 144.097 217.492 143.664 217.492 143.664Z" fill="#434343"/>
<path d="M224.368 96.0299C222.382 91.577 221.168 90.2986 221.399 88.9166C221.572 87.8876 220.873 69.7368 220.873 69.7368C220.638 69.6639 220.167 69.5982 219.908 69.5412C219.507 69.4554 219.134 69.2692 218.825 69.0001C218.515 68.731 218.279 68.3877 218.139 68.0024C217.709 66.6808 217.506 65.2962 217.538 63.907L217.284 63.9569L213.007 64.804C213.007 64.804 213.105 66.1498 213.107 67.4176C213.107 67.4282 213.107 67.4388 213.107 67.4494C213.111 67.985 212.939 68.5071 212.619 68.9364C212.298 69.3657 211.846 69.6786 211.332 69.8277C210.792 69.9835 210.322 70.1168 210.322 70.1168C209.341 73.062 208.713 76.1132 208.451 79.2064C208.151 83.8125 211.307 85.8135 208.428 95.0178C205.488 104.419 225.465 98.4904 224.368 96.0299Z" fill="#FFB27D"/>
<path d="M213.007 64.804C213.007 64.804 213.104 66.1499 213.107 67.4176C215.5 67.3501 216.765 65.1664 217.284 63.9569L213.007 64.804Z" fill="#E8945B"/>
<path d="M212.208 66.0046C212.208 66.0046 217.87 66.0982 217.874 62.5709C217.878 59.0435 218.612 56.6802 214.996 56.4714C211.381 56.2626 210.677 57.6076 210.39 58.7844C210.102 59.9612 210.735 65.8894 212.208 66.0046Z" fill="#FFB27D"/>
<path d="M212.417 56.3849C212.417 56.3849 213.967 60.5227 216.346 61.135C218.724 61.7472 219.757 61.1094 219.757 61.1094C218.583 60.0781 217.804 58.671 217.553 57.1287C217.553 57.1287 213.587 54.4153 212.417 56.3849Z" fill="#292A2C"/>
<path d="M212.801 56.7213C212.146 56.9723 211.58 57.4141 211.178 57.9895C210.607 58.9687 210.34 60.0962 210.413 61.2277C210.413 61.2277 209.245 58.415 210.558 56.8241C211.95 55.137 212.801 56.7213 212.801 56.7213Z" fill="#163560"/>
<path d="M213.439 63.8165C213.294 63.9811 213.112 64.1099 212.909 64.1927C212.706 64.2754 212.486 64.31 212.267 64.2937C212.083 64.2831 211.906 64.2242 211.753 64.123C211.6 64.0219 211.476 63.882 211.395 63.7176C212.072 63.5631 212.779 63.5973 213.439 63.8165Z" fill="#EBF3FA"/>
<path d="M224.915 77.766C225.001 79.2509 225.001 80.7395 224.915 82.2243C224.819 83.8368 223.188 85.997 222.957 86.5312C222.376 87.8713 221.721 88.0894 221.721 88.0894L216.654 89.331L214.873 89.7671L209.256 88.0898C209.256 88.0898 206.695 80.9482 207.724 76.9282C208.318 74.5631 209.19 72.2765 210.322 70.1163C210.322 70.1163 214.906 74.6046 220.874 69.7358L224.915 77.766Z" fill="#00EAA2"/>
<path d="M223.431 82.8838C223.336 84.4963 223.187 85.9984 222.956 86.5325C222.376 87.8726 221.72 88.0907 221.72 88.0907L216.654 89.3324L214.453 88.6857C214.453 88.6857 221.799 87.5725 220.986 81.2527L223.431 82.8838Z" fill="#F2CCAA"/>
<path d="M209.613 89.1748C209.613 89.1748 206.832 97.834 206.652 100.784C206.473 103.734 211.97 142.665 212.191 144.023C212.399 145.304 213.989 146.12 213.989 146.12C214.542 146.391 215.177 146.44 215.764 146.257C217.213 145.848 217.67 145.359 217.67 145.359C217.67 145.359 219.835 117.594 218.495 107.673C217.68 101.54 217.227 95.3643 217.139 89.1779L209.613 89.1748Z" fill="#212121"/>
<path d="M221.4 88.9166C221.4 88.9166 225.643 94.6108 226.039 98.4595C226.434 102.308 226.659 115.828 227.502 119.58C228.345 123.332 231.442 130.553 231.442 142.256C231.145 142.75 230.676 143.116 230.126 143.284C229.746 143.412 229.36 143.519 228.969 143.605C228.571 143.695 228.153 143.65 227.784 143.474C227.415 143.299 227.116 143.005 226.934 142.639C224.841 138.424 218.172 124.829 217.83 122.006C217.588 120.009 215.483 106.791 210.89 99.0355C209.786 97.1737 211.566 89.7685 211.566 89.7685L221.4 88.9166Z" fill="#292A2C"/>
<path d="M213.314 63.911C213.314 63.911 213.216 64.3268 212.182 64.2642C212.182 64.2642 211.314 64.2103 211.34 63.7539C211.995 63.5637 212.697 63.6196 213.314 63.911Z" fill="white"/>
<path d="M209.168 87.8378C209.168 87.8378 210.285 88.7206 212.503 88.7648C215.152 88.8178 221.72 88.089 221.72 88.089C221.901 88.6299 221.995 89.196 222 89.7663C222 89.7663 213.98 91.7893 209.331 90.0617C208.987 89.3707 208.928 88.5718 209.168 87.8378Z" fill="#626262"/>
<path d="M211.868 91.0499C211.59 91.0843 211.308 91.0334 211.06 90.9038C210.812 90.7742 210.609 90.5721 210.479 90.3244C210.348 90.0767 210.296 89.7952 210.329 89.5172C210.362 89.2392 210.48 88.9779 210.665 88.7681C210.851 88.5584 211.095 88.41 211.367 88.3427C211.639 88.2755 211.925 88.2926 212.187 88.3918C212.448 88.4909 212.674 88.6674 212.833 88.8978C212.992 89.1282 213.077 89.4015 213.077 89.6815C213.097 90.023 212.98 90.3582 212.754 90.6145C212.528 90.8707 212.209 91.0272 211.868 91.0499ZM211.868 88.7135C211.669 88.6776 211.464 88.7038 211.281 88.7885C211.097 88.8732 210.944 89.0123 210.843 89.1869C210.741 89.3615 210.696 89.5631 210.713 89.7644C210.73 89.9657 210.809 90.1568 210.938 90.3119C211.068 90.4669 211.242 90.5782 211.437 90.6308C211.632 90.6835 211.838 90.6748 212.028 90.6059C212.218 90.537 212.382 90.4113 212.498 90.246C212.614 90.0806 212.676 89.8835 212.677 89.6815C212.695 89.4464 212.621 89.2132 212.47 89.0322C212.319 88.8511 212.103 88.7367 211.868 88.7135Z" fill="white"/>
<path d="M220.559 78.1541L212.344 85.312L222.142 96.5572L230.357 89.3992L220.559 78.1541Z" fill="#656565"/>
<path d="M219.867 89.4308C219.867 89.4308 216.856 89.7839 216.865 90.4977C216.875 91.2115 217.616 92.6805 217.987 92.7458C218.359 92.8112 220.438 90.7595 220.438 90.7595L219.867 89.4308Z" fill="#FFB27D"/>
<path d="M220.874 69.7363C220.874 69.7363 224.893 70.0179 226.435 73.7637C227.978 77.5096 230.9 83.7979 230.9 84.8555C230.9 85.9132 229.267 89.1747 220.497 91.0499C220.497 91.0499 219.59 90.0955 219.645 89.3412C219.645 89.3412 225.118 84.6392 225.105 84.0884C225.077 83.0488 224.207 81.6765 219.401 76.8686C218.092 75.5625 220.874 69.7363 220.874 69.7363Z" fill="#00EAA2"/>
<path d="M137.582 150.77H137.54C137.482 150.77 137.425 150.758 137.371 150.736C137.318 150.713 137.27 150.68 137.229 150.639C137.188 150.597 137.157 150.548 137.135 150.494C137.114 150.44 137.104 150.382 137.105 150.325L137.767 121.714L139.709 121.487L138.051 150.326C138.045 150.446 137.992 150.559 137.905 150.641C137.817 150.724 137.702 150.77 137.582 150.77Z" fill="#939393"/>
<path d="M126.251 150.77H126.209C126.151 150.77 126.094 150.758 126.04 150.736C125.987 150.713 125.939 150.68 125.898 150.639C125.857 150.597 125.826 150.548 125.804 150.494C125.783 150.44 125.773 150.382 125.774 150.325L126.436 121.714L128.378 121.487L126.72 150.326C126.714 150.446 126.661 150.559 126.574 150.642C126.487 150.724 126.371 150.77 126.251 150.77Z" fill="#656565"/>
<path d="M157.518 150.77H157.559C157.617 150.77 157.675 150.758 157.728 150.736C157.782 150.713 157.83 150.68 157.871 150.639C157.911 150.597 157.943 150.548 157.964 150.494C157.985 150.44 157.996 150.383 157.994 150.325L157.332 121.714L155.39 121.487L157.048 150.326C157.055 150.446 157.107 150.559 157.195 150.641C157.282 150.724 157.398 150.77 157.518 150.77Z" fill="#939393"/>
<path d="M124.962 119.939V100.334C124.962 98.6775 125.621 97.0887 126.792 95.9172C127.963 94.7458 129.552 94.0877 131.209 94.0877H145.334C146.991 94.0877 148.579 94.7458 149.751 95.9172C150.922 97.0887 151.58 98.6775 151.58 100.334V120.689L124.962 119.939Z" fill="#939393"/>
<path d="M124.962 119.939H154.111V123.035H128.058C127.237 123.035 126.449 122.709 125.869 122.128C125.289 121.548 124.962 120.76 124.962 119.939V119.939Z" fill="#656565"/>
<path d="M136.906 119.939H157.218C157.629 119.939 158.022 120.102 158.312 120.393C158.603 120.683 158.766 121.077 158.766 121.487C158.766 121.897 158.603 122.291 158.312 122.581C158.022 122.872 157.629 123.035 157.218 123.035H136.906C136.496 123.035 136.102 122.872 135.812 122.581C135.522 122.291 135.359 121.897 135.359 121.487C135.359 121.077 135.522 120.683 135.812 120.393C136.102 120.102 136.496 119.939 136.906 119.939V119.939Z" fill="#939393"/>
<path d="M156.578 115.054C154.554 118.576 152.009 119.936 152.009 119.936H141.421C141.421 119.936 158.123 112.368 156.578 115.054Z" fill="#212121"/>
<path d="M148.446 142.302C148.319 142.441 148.234 142.614 148.203 142.799C148.172 142.985 148.195 143.176 148.269 143.349C148.269 143.351 148.27 143.353 148.272 143.354C148.524 144.052 149.358 144.831 150.328 145.609C150.451 145.71 150.562 145.8 150.658 145.884C150.683 145.907 150.708 145.929 150.732 145.951C150.756 145.974 150.77 145.986 150.789 146.003C151.692 146.836 151.352 147.027 152.976 148.717C154.827 150.643 156.102 150.678 156.463 150.502C156.77 150.353 156.147 149.331 155.456 148.183C155.423 148.128 155.39 148.072 155.356 148.016C155.264 147.863 155.172 147.707 155.081 147.555C154.272 146.173 154.48 145.524 154.671 143.468C154.827 141.796 157.271 134.131 157.271 134.131L153.724 133.52C153.724 133.52 152.655 139.624 151.478 140.564C150.849 141.065 150.144 141.071 149.539 141.443C149.496 141.469 149.454 141.495 149.413 141.522C149.057 141.738 148.732 142 148.446 142.302Z" fill="#FFB27D"/>
<path d="M148.446 142.304C148.319 142.443 148.234 142.616 148.203 142.802C148.172 142.987 148.195 143.178 148.269 143.351C148.269 143.353 148.27 143.355 148.272 143.356C148.581 144.053 149.394 144.829 150.331 145.605C150.453 145.706 150.561 145.8 150.658 145.887C150.683 145.909 150.708 145.931 150.732 145.953C150.756 145.976 150.77 145.988 150.789 146.004C151.692 146.837 151.352 147.029 152.976 148.719C154.827 150.645 156.102 150.679 156.463 150.504C156.77 150.355 156.147 149.333 155.456 148.185C154.161 147.679 153.023 146.84 152.156 145.753C151.042 144.33 150.298 142.503 149.539 141.444C149.495 141.47 149.454 141.496 149.413 141.523C149.057 141.739 148.732 142.002 148.446 142.304Z" fill="#434343"/>
<path d="M177.053 140.088C177.273 141.183 178.832 141.001 180.576 140.574C182.32 140.147 181.906 140.655 184.388 140.38C186.87 140.105 187.622 139.179 187.699 138.81C187.767 138.483 186.54 138.369 185.227 138.216C185.061 138.197 184.895 138.177 184.729 138.156C183.243 137.97 182.156 137.012 180.807 136.225C179.529 135.479 177.622 132.441 177.622 132.441L174.218 132.711C174.218 132.711 176.004 135.424 176.695 136.604C177.029 137.328 177.145 138.134 177.029 138.923C176.985 139.311 176.993 139.703 177.053 140.088Z" fill="#FFB27D"/>
<path d="M180.576 140.574C182.32 140.148 181.906 140.655 184.388 140.38C186.87 140.105 187.622 139.18 187.698 138.811C187.766 138.483 186.54 138.369 185.226 138.216L185.214 138.241C184.151 138.923 182.922 139.305 181.659 139.345C179.975 139.386 178.192 138.903 177.029 138.922C176.986 139.31 176.994 139.701 177.055 140.086C177.271 141.183 178.832 141.001 180.576 140.574Z" fill="#434343"/>
<path d="M164.008 118.322L160.825 126.886L156.671 138.066C155.929 138.121 155.183 138.053 154.464 137.864C153.712 137.607 152.995 137.258 152.33 136.825C152.33 136.825 153.483 124.818 155.635 117.929C156.186 116.161 156.805 114.73 157.487 113.924C160.822 109.982 164.008 118.322 164.008 118.322Z" fill="#212121"/>
<path d="M160.771 104.724C158.686 104.051 152.74 104.915 146.768 106.084L145.517 104.021L132.616 103.013C132.616 103.013 128.359 112.454 130.69 118.47C130.844 118.919 131.141 119.306 131.535 119.571C131.929 119.836 132.399 119.966 132.873 119.939C132.873 119.939 133.061 119.939 133.062 119.939C133.062 119.939 140.742 119.935 143.234 119.935C149.65 119.935 156.812 115.525 157.739 115.339C159.255 115.036 159.862 118.069 161.378 121.254C162.895 124.44 175.636 135.358 175.636 135.358C175.636 135.358 177.594 135.378 178.403 135.075C178.858 134.933 179.267 134.674 179.591 134.324C179.591 134.324 165.473 106.24 160.771 104.724Z" fill="#292A2C"/>
<path d="M145.011 66.4557C143.358 65.5879 140.843 65.4705 140.435 65.4158C135.546 64.7585 132.604 71.8604 132.431 74.0149C132.112 77.9823 130.013 78.5875 127.059 81.0722C121.136 86.0545 122.873 91.8427 126.112 93.9946C128.054 95.2853 131.481 93.9946 131.481 93.9946C131.529 94.0286 140.849 88.7859 145.443 86.2553C152.329 85.2758 149.222 68.6672 145.011 66.4557Z" fill="#292A2C"/>
<path d="M141.592 84.1016C141.612 84.1149 139.331 84.8935 137.807 84.2177C136.372 83.5839 135.285 81.2236 135.306 81.2223C135.959 81.1923 136.675 80.6215 137.227 76.8779L137.505 76.9776L142.178 78.659C142.178 78.659 141.839 80.1598 141.62 81.5856C141.436 82.784 141.337 83.9317 141.592 84.1016Z" fill="#FFB27D"/>
<path d="M142.178 78.659C142.178 78.659 141.839 80.1598 141.62 81.5856C138.936 81.1027 137.883 78.4286 137.505 76.9777L142.178 78.659Z" fill="#ED975D"/>
<path d="M142.873 80.147C142.873 80.147 136.48 79.2889 137.076 75.3162C137.672 71.3435 137.248 68.5573 141.355 68.9369C145.461 69.3165 146.025 70.9511 146.149 72.3256C146.272 73.7002 144.551 80.2675 142.873 80.147Z" fill="#FFB27D"/>
<path d="M145.916 70.1486C145.916 70.1486 141.824 73.675 139.04 73.9593C136.257 74.2436 135.203 73.3502 135.203 73.3502C136.314 72.356 137.209 71.1439 137.831 69.7893C137.973 69.4706 138.197 69.1955 138.481 68.9927C138.765 68.7898 139.098 68.6665 139.445 68.6354C141.432 68.4637 145.2 68.3856 145.916 70.1486Z" fill="#292A2C"/>
<path d="M143.358 69.8321C143.358 69.8321 144.727 71.1563 145.158 72.1376C145.574 73.0848 145.699 75.3511 145.368 76.2511C145.368 76.2511 147.501 72.1018 146.295 70.0885C145.013 67.9517 143.358 69.8321 143.358 69.8321Z" fill="#292A2C"/>
<path d="M146.975 93.5192C146.782 106.46 146.922 103.756 145.507 104.984C145.165 105.279 144.207 105.455 142.946 105.539C138.979 105.804 132.003 105.149 131.738 104.415C130.823 101.878 131.469 101.089 130.706 97.205C130.626 96.7918 130.529 96.3446 130.412 95.8578C129.775 93.1899 129.155 92.2824 131.414 87.9958C133.462 84.1114 135.59 80.9619 135.782 81.0758C141.186 84.284 141.622 81.5873 141.622 81.5873C141.622 81.5873 147.07 87.207 146.975 93.5192Z" fill="#656565"/>
<path d="M160.825 126.885L156.671 138.065C155.929 138.12 155.183 138.052 154.464 137.863C153.712 137.607 152.995 137.258 152.33 136.824C152.33 136.824 153.483 124.818 155.635 117.929L160.825 126.885Z" fill="#292A2C"/>
<path d="M141.62 81.5856C141.62 81.5856 147.182 82.5284 147.834 84.9226C148.486 87.3168 152.33 101.392 152.33 101.392C152.33 101.392 149.505 101.9 148.197 100.594C146.889 99.2875 143.653 88.4774 143.653 88.4774L141.62 81.5856Z" fill="#656565"/>
<path d="M142.944 105.538C138.977 105.803 132.001 105.148 131.736 104.414C130.821 101.877 131.467 101.089 130.704 97.2041L132.618 91.8149C132.618 91.8149 132.301 97.8181 134.071 99.3944C135.84 100.971 141.317 102.44 142.177 103.76C142.55 104.295 142.811 104.9 142.944 105.538Z" fill="#292A2C"/>
<path d="M138.398 103.014C138.398 103.014 142.313 102.142 142.945 102.49C143.576 102.837 145.12 104.102 145.313 104.543C145.506 104.983 143.907 104.208 143.386 104.069C143.05 103.981 142.163 104.287 141.724 104.433C139.876 105.051 138.744 104.732 138.744 104.732L138.398 103.014Z" fill="#FFB27D"/>
<path d="M135.776 81.0705C135.776 81.0705 130.52 81.394 128.701 83.9321C126.14 87.5049 121.058 102.73 123.97 104.76C127.25 107.047 138.896 105.358 138.896 105.358C138.896 105.358 139.283 103.549 138.744 102.671C138.204 101.793 129.442 100.379 129.037 99.9744C128.633 99.57 134.093 92.0881 134.093 90.8747C134.093 89.6612 135.776 81.0705 135.776 81.0705Z" fill="#656565"/>
<path d="M143.134 103.579C143.454 104.011 143.819 104.408 144.223 104.763C144.358 104.837 144.511 104.869 144.664 104.858L144.112 103.863L143.134 103.579Z" fill="#FFB27D"/>
<path d="M142.944 102.49L145.328 103.648C145.281 103.706 145.22 103.75 145.151 103.777C145.082 103.804 145.006 103.812 144.933 103.801C144.58 103.739 144.234 103.643 143.899 103.516L142.944 102.49Z" fill="#FFB27D"/>
<path d="M144.223 106.385H163.086L168.761 92.2735H149.926L144.223 106.385Z" fill="#656565"/>
<path d="M163.308 105.834H138.398V106.384H163.087L163.308 105.834Z" fill="#545454"/>
<path d="M158.325 99.3295C158.366 99.2275 158.381 99.1168 158.368 99.0076C158.355 98.8983 158.315 98.794 158.251 98.7045C158.187 98.6149 158.102 98.5429 158.003 98.4951C157.904 98.4474 157.794 98.4254 157.684 98.4312C157.423 98.4457 157.173 98.5395 156.966 98.7C156.76 98.8604 156.607 99.08 156.528 99.3295C156.487 99.4315 156.472 99.5422 156.485 99.6515C156.498 99.7608 156.538 99.8651 156.602 99.9547C156.666 100.044 156.751 100.116 156.851 100.164C156.95 100.212 157.059 100.234 157.169 100.228C157.43 100.213 157.681 100.119 157.887 99.9589C158.094 99.7984 158.246 99.5789 158.325 99.3295Z" fill="white"/>
<path d="M56.9519 93.0265C57.2965 93.0265 57.6271 93.1634 57.8708 93.4071C58.1145 93.6508 58.2514 93.9814 58.2514 94.326V121.064C58.2514 121.409 58.1145 121.739 57.8708 121.983C57.6271 122.227 57.2965 122.364 56.9519 122.364C56.6072 122.364 56.2767 122.227 56.033 121.983C55.7893 121.739 55.6523 121.409 55.6523 121.064V94.326C55.6523 93.9814 55.7893 93.6508 56.033 93.4071C56.2767 93.1634 56.6072 93.0265 56.9519 93.0265V93.0265Z" fill="#939393"/>
<path d="M56.9407 150.77H56.8992C56.8412 150.77 56.7838 150.758 56.7303 150.736C56.6768 150.713 56.6284 150.68 56.5878 150.639C56.5473 150.597 56.5154 150.548 56.4942 150.494C56.4729 150.44 56.4626 150.383 56.464 150.325L57.1261 121.714L59.0683 121.487L57.4104 150.326C57.4035 150.446 57.351 150.559 57.2637 150.642C57.1764 150.724 57.0608 150.77 56.9407 150.77Z" fill="#939393"/>
<path d="M88.2077 150.77H88.2492C88.3072 150.77 88.3646 150.758 88.418 150.736C88.4715 150.713 88.5199 150.68 88.5604 150.639C88.601 150.597 88.6328 150.548 88.6541 150.494C88.6754 150.44 88.6857 150.383 88.6844 150.325L88.0223 121.714L86.0801 121.487L87.738 150.326C87.7449 150.446 87.7974 150.559 87.8847 150.642C87.972 150.724 88.0875 150.77 88.2077 150.77Z" fill="#939393"/>
<path d="M88.0689 119.939H55.6528V121.159C55.6528 121.657 55.8504 122.134 56.2022 122.485C56.5539 122.837 57.031 123.035 57.5284 123.035H88.0693C88.4372 123.035 88.7899 122.889 89.05 122.628C89.3101 122.368 89.4562 122.016 89.4562 121.648V121.326C89.4562 121.144 89.4203 120.964 89.3506 120.796C89.2809 120.627 89.1787 120.474 89.0499 120.346C88.921 120.217 88.7681 120.115 88.5997 120.045C88.4314 119.975 88.251 119.939 88.0689 119.939Z" fill="#939393"/>
<path d="M104.298 144.654C104.298 144.654 103.82 150.586 104.882 150.664C105.023 150.675 110.27 150.675 110.27 150.675L116.967 150.636C116.967 150.636 116.923 149.022 114.966 148.681C113.008 148.34 109.133 146.695 107.947 144.105C106.7 141.384 104.298 144.654 104.298 144.654Z" fill="#434343"/>
<path d="M64.0063 112.155C64.0063 112.155 64.2292 117.984 65.2568 119.939H88.9435C88.9435 119.939 94.6347 120.528 95.1533 120.911C95.8079 121.396 92.8738 126.199 103.873 144.972L109.261 144.835C109.261 144.835 103.627 114.388 102.626 113.617C101.129 112.465 83.6055 108.453 80.6061 108.365C77.6067 108.276 64.0063 112.155 64.0063 112.155Z" fill="#292A2C"/>
<path d="M77.2875 77.6102C79.1154 78.7424 79.2183 80.9976 79.2183 80.9976C74.76 82.1506 68.2734 77.2014 68.2734 77.2014C70.2528 75.6586 71.6413 73.4819 72.206 71.0367C72.2598 70.823 72.3085 70.6039 72.3521 70.3794C72.5 69.6146 72.5808 68.8382 72.5935 68.0593L74.6417 69.8938L78.0472 72.9449C77.9479 74.1015 77.7799 75.2512 77.544 76.3879C77.4689 76.7681 77.3835 77.1755 77.2875 77.6102Z" fill="#FFB27D"/>
<path d="M79.805 101.015C79.6532 102.01 79.9613 102.81 80.1092 103.55C80.1718 103.821 80.1944 104.101 80.1762 104.379C79.9326 107.131 80.9134 107.48 80.6066 108.368C79.6527 108.888 78.661 109.336 77.6399 109.708C76.8056 110.023 75.8049 110.362 74.6542 110.679L74.4719 110.728C71.0538 111.624 67.5399 112.103 64.0069 112.155C61.4785 112.088 60.9682 105.679 61.9062 97.6066C63.3673 85.0312 65.343 78.9349 70.5499 74.5291C70.8779 74.2519 70.6567 75.1957 72.4065 76.0396C73.9899 76.7856 75.7707 77.0045 77.4876 76.6642L78.6794 77.8852C81.0445 81.6208 81.2926 86.0549 81.0913 89.7508C80.8588 93.5253 80.4295 97.285 79.805 101.015Z" fill="#656565"/>
<path d="M78.0463 72.9454C78.0463 72.9454 78.2277 72.7547 77.8013 74.9317C74.0294 73.8405 72.8005 71.9186 72.2969 70.6447C72.1538 70.2845 73.6993 70.0929 74.6408 69.8943L78.0463 72.9454Z" fill="#ED975D"/>
<path d="M79.7992 72.9559C79.7992 72.9559 72.5212 73.9981 71.9421 69.4555C71.3629 64.913 70.0334 61.9886 74.6554 61.1309C79.2775 60.2733 80.4035 61.8915 80.9676 63.3605C81.5317 64.8295 81.6774 72.5679 79.7992 72.9559Z" fill="#FFB27D"/>
<path d="M107.19 106.622L107.747 106.796L112.306 92.2213L111.749 92.0473L107.19 106.622Z" fill="#545454"/>
<path d="M91.7211 106.636L107.747 106.796L107.756 105.837L91.7307 105.677L91.7211 106.636Z" fill="#545454"/>
<path d="M69.6207 61.2228C69.5624 61.1548 69.4269 61.0992 69.1245 61.0802C69.298 60.9834 69.4923 60.9303 69.6908 60.9252C69.7575 60.505 69.987 59.7626 70.7122 59.5873C70.5939 59.6554 70.4924 59.7493 70.4153 59.862C70.3383 59.9747 70.2877 60.1034 70.2673 60.2384C71.1122 59.3838 72.9158 58.7716 77.8848 59.2033C84.4362 59.7723 82.2424 63.9529 81.39 64.4464C80.5377 64.9399 78.4118 63.5516 76.8298 63.6646C75.2478 63.7777 74.9286 66.0602 74.3901 66.3696C73.8516 66.6791 74.0666 66.1264 73.3435 65.7923C72.6205 65.4581 72.5419 66.6605 72.7454 67.444C72.9489 68.2275 71.9434 69.2512 71.9434 69.2512L70.944 68.1578C69.9451 67.0644 69.0314 62.46 69.4971 61.4836C69.5377 61.3962 69.5787 61.3106 69.6207 61.2228Z" fill="#292A2C"/>
<path d="M80.6066 108.367C79.6526 108.888 78.6609 109.336 77.6398 109.708C69.3359 103.65 69.381 89.3081 69.3359 89.0627L79.7652 98.2462L80.1091 103.549C80.1718 103.821 80.1944 104.1 80.1761 104.378C79.9325 107.13 80.9133 107.479 80.6066 108.367Z" fill="#292A2C"/>
<path d="M95.6401 101.621C96.1092 101.674 96.5839 101.598 97.0125 101.4C97.7188 101.069 100.147 100.025 100.604 100.168C101.062 100.311 102.551 101.152 102.902 101.312C103.275 101.587 103.602 101.917 103.873 102.292C103.616 102.552 102.71 101.956 102.306 101.967C101.902 101.979 98.9141 103.61 98.0242 103.645C97.2646 103.646 96.5058 103.597 95.7527 103.498L95.6401 101.621Z" fill="#FFB27D"/>
<path d="M101.055 101.751C101.063 101.8 102.147 103.008 102.974 102.625L102.068 101.73L101.055 101.751Z" fill="#FFB27D"/>
<path d="M97.0127 101.399C97.4705 100.98 97.9029 100.535 98.3078 100.065C98.3078 100.065 98.502 100.154 98.51 100.318C98.475 100.591 98.3886 100.855 98.2552 101.095L97.0127 101.399Z" fill="#FFB27D"/>
<path d="M77.8825 79.9987C72.5374 76.7433 66.2292 82.4309 68.8808 88.0995C71.9566 94.6726 77.0769 102.689 81.1454 103.163C84.0455 103.5 92.3326 104.563 95.8445 103.909C95.8445 103.909 97.5448 103.992 96.6227 101.254C96.6227 101.254 85.2815 98.0926 83.3975 95.641C82.388 94.3274 80.6674 91.6683 78.0079 80.075C77.9969 80.03 77.9236 80.0256 77.8825 79.9987Z" fill="#656565"/>
<path d="M221.604 150.769H221.661C221.741 150.769 221.82 150.754 221.894 150.722C221.968 150.691 222.035 150.646 222.091 150.588C222.147 150.531 222.191 150.463 222.22 150.389C222.25 150.314 222.264 150.234 222.262 150.154L221.35 110.63L218.664 110.317L220.955 150.157C220.964 150.323 221.037 150.478 221.157 150.592C221.278 150.706 221.438 150.769 221.604 150.769Z" fill="#939393"/>
<path d="M89.5347 150.769H89.4773C89.3972 150.769 89.3178 150.753 89.244 150.722C89.1701 150.691 89.1033 150.646 89.0473 150.588C88.9913 150.531 88.9473 150.463 88.9179 150.388C88.8885 150.314 88.8743 150.234 88.8761 150.154L89.7881 110.63L92.4745 110.317L90.1836 150.157C90.174 150.323 90.1014 150.478 89.9808 150.592C89.8602 150.706 89.7006 150.769 89.5347 150.769Z" fill="#939393"/>
<path d="M87.43 106.588H223.366C223.998 106.588 224.604 106.839 225.051 107.286C225.498 107.733 225.749 108.339 225.749 108.971C225.749 109.603 225.498 110.21 225.051 110.657C224.604 111.104 223.998 111.355 223.366 111.355H87.43C86.7978 111.355 86.1916 111.104 85.7445 110.657C85.2975 110.21 85.0464 109.603 85.0464 108.971V108.971C85.0464 108.339 85.2975 107.733 85.7445 107.286C86.1916 106.839 86.7978 106.588 87.43 106.588V106.588Z" fill="#939393"/>
<path d="M139.335 14.0773C138.941 17.1081 139.706 20.272 141.5 23.0234C143.001 25.3179 143.646 27.9571 143.327 30.4885L142.858 34.1381C142.718 35.2567 143.064 36.4232 143.82 37.3829C144.577 38.3426 145.682 39.0174 146.895 39.2599L154.222 40.7047C155.436 40.9407 156.656 40.7244 157.615 40.1031C158.575 39.4817 159.196 38.5058 159.343 37.3885L159.813 33.7326C160.15 31.2001 161.43 28.9379 163.436 27.332C165.543 25.6241 166.977 23.3009 167.544 20.6758C168.111 18.0508 167.783 15.2504 166.605 12.6528C165.428 10.0551 163.456 7.78534 160.958 6.14981C158.459 4.51427 155.554 3.59176 152.634 3.50683C152.447 3.50139 152.261 3.49934 152.075 3.50065C148.842 3.52833 145.819 4.59103 143.503 6.51363C141.187 8.43623 139.717 11.104 139.335 14.0773Z" fill="#FFBE5E"/>
<path d="M153.387 41.518L153.357 41.625L152.98 42.9796L152.88 43.3365L152.88 43.3398L152.779 43.7005L152.402 45.0549L152.303 45.4117L152.302 45.415L152.203 45.7759L152.147 45.9743C151.955 46.6614 151.007 47.0283 149.955 46.8216L147.584 46.3556C147.343 46.3087 147.107 46.2324 146.882 46.1288C146.695 46.0428 146.519 45.9353 146.358 45.8092L146.345 45.7996C146.224 45.7041 146.114 45.5961 146.019 45.4779C145.833 45.2567 145.726 44.9913 145.713 44.7226L145.699 44.1663L145.689 43.8156L145.69 43.8069L145.681 43.4639L145.647 42.1327L145.637 41.7833L145.638 41.7759L145.629 41.4308L145.591 39.9886L153.387 41.518Z" fill="#707070"/>
<path d="M152.457 41.3964L151.133 41.1184C148.937 41.1648 146.758 41.2085 145.751 41.2248L145.767 41.5241L145.767 41.5305L145.783 41.8336C146.6 41.8228 148.563 41.787 153.361 41.6837L153.388 41.5921L152.457 41.3964Z" fill="#8E8E8E"/>
<path d="M145.734 43.626L145.733 43.6337L145.751 43.9481C146.701 43.9336 148.661 43.8939 152.745 43.8021L152.837 43.4828L152.837 43.4799L152.928 43.1643C150.347 43.2217 147.223 43.2908 145.717 43.3165L145.734 43.626Z" fill="#8E8E8E"/>
<path d="M146.306 45.7449L146.318 45.7539C146.48 45.8722 146.657 45.9745 146.844 46.058C147.962 46.0359 149.623 46.0003 152.092 45.9458L152.183 45.6286L152.183 45.6257L152.274 45.3121C150.068 45.3608 147.537 45.4152 145.975 45.4454C146.072 45.5545 146.183 45.6551 146.306 45.7449Z" fill="#8E8E8E"/>
<path d="M147.228 22.4847L146.984 22.4486L147.551 40.2181L147.795 40.2541L147.228 22.4847Z" fill="white"/>
<path d="M157.49 24.3079L151.779 40.8132L152.477 41.0794L158.188 24.5741L157.49 24.3079Z" fill="white"/>
<path d="M153.907 26.5104C153.817 26.4908 153.728 26.4629 153.641 26.4273C153.563 26.3971 153.495 26.3482 153.446 26.2873C153.397 26.2265 153.37 26.157 153.369 26.0886C153.337 25.7536 153.715 25.2297 154.207 24.8213C154.07 24.4884 153.802 24.1905 153.451 23.9814C153.002 23.7697 152.248 23.9728 151.698 24.3187C151.775 24.4416 151.843 24.5673 151.902 24.6952C152.107 25.1415 152.228 25.6824 151.95 25.8647C151.847 25.9315 151.649 25.9706 151.289 25.7767C151.185 25.7266 151.093 25.6596 151.017 25.5804C150.942 25.5011 150.886 25.4115 150.852 25.3176C150.819 25.2237 150.809 25.1277 150.824 25.0363C150.838 24.945 150.877 24.8603 150.937 24.7882C151.067 24.5821 151.243 24.4028 151.457 24.2584C151.123 23.7675 150.649 23.349 150.138 23.296C149.886 23.2685 149.639 23.2927 149.418 23.3664C149.549 23.6165 149.617 23.8799 149.616 24.1378C149.615 24.3958 149.546 24.6418 149.413 24.8585C149.333 24.9529 149.206 25.0109 149.061 25.02C148.916 25.029 148.763 24.9883 148.637 24.9068C148.408 24.7875 148.316 24.4925 148.405 24.1548C148.507 23.7733 148.782 23.4595 149.176 23.2749C149.095 23.1289 148.988 22.9919 148.858 22.8698C148.647 22.6627 148.362 22.5196 148.06 22.4693C147.758 22.4191 147.461 22.4654 147.23 22.599L147.108 22.4613C147.377 22.3107 147.718 22.259 148.065 22.316C148.413 22.373 148.742 22.5347 148.989 22.7699C149.131 22.9029 149.249 23.0519 149.338 23.2107C149.583 23.131 149.856 23.1052 150.134 23.1354C150.706 23.1949 151.232 23.6404 151.597 24.1643C152.195 23.7958 153.006 23.6003 153.525 23.8441C153.897 24.059 154.186 24.3668 154.343 24.7142C154.573 24.5307 154.842 24.3837 155.14 24.2788C155.561 24.1465 155.812 24.2491 155.948 24.3583C156.088 24.4734 156.205 24.6072 156.292 24.7524C156.415 24.7012 156.546 24.6618 156.682 24.6347C156.872 24.5785 157.086 24.5756 157.296 24.6264C157.506 24.6773 157.703 24.7794 157.858 24.9191L157.722 25.0122C157.589 24.9018 157.426 24.822 157.253 24.7827C157.081 24.7434 156.905 24.7463 156.749 24.7911C156.618 24.817 156.493 24.8551 156.375 24.9047C156.493 25.1315 156.557 25.3698 156.561 25.6041C156.566 25.8385 156.512 26.0638 156.403 26.2655C156.377 26.3016 156.343 26.3319 156.301 26.3546C156.259 26.3773 156.211 26.392 156.159 26.3977C156.107 26.4034 156.053 26.4 156 26.3879C155.947 26.3757 155.896 26.3549 155.849 26.3267C155.708 26.2647 155.588 26.1693 155.506 26.0542C155.423 25.9391 155.382 25.8101 155.389 25.6857C155.428 25.4974 155.515 25.3238 155.643 25.1758C155.772 25.0277 155.939 24.9084 156.135 24.8252C156.06 24.6931 155.956 24.5712 155.83 24.4666C155.664 24.3333 155.412 24.3732 155.231 24.43C154.928 24.5383 154.657 24.6906 154.427 24.8809C154.66 25.328 154.718 25.8064 154.592 26.2396C154.548 26.3524 154.455 26.442 154.329 26.4918C154.204 26.5415 154.054 26.5482 153.907 26.5104ZM154.284 24.9934C153.897 25.2701 153.643 25.6571 153.558 26.0991C153.556 26.136 153.57 26.174 153.595 26.2074C153.621 26.2408 153.658 26.2678 153.701 26.2841C154.062 26.4301 154.3 26.3888 154.409 26.1607C154.517 25.7888 154.473 25.3793 154.285 24.9927L154.284 24.9934ZM151.555 24.4135C151.372 24.54 151.221 24.6955 151.108 24.8732C151.058 24.9277 151.024 24.993 151.01 25.0642C150.996 25.1355 151.002 25.2108 151.028 25.2847C151.053 25.3587 151.097 25.4293 151.157 25.4914C151.216 25.5535 151.29 25.6055 151.372 25.6436C151.517 25.7217 151.713 25.8003 151.82 25.7309C151.985 25.6235 151.946 25.2129 151.724 24.733C151.674 24.6244 151.618 24.5174 151.555 24.4124L151.555 24.4135ZM149.254 23.4302C148.914 23.5983 148.677 23.8749 148.588 24.2087C148.52 24.4662 148.574 24.6975 148.716 24.7717C148.759 24.801 148.806 24.8235 148.856 24.8382C148.906 24.8528 148.958 24.8592 149.008 24.8569C149.058 24.8547 149.106 24.8439 149.148 24.8251C149.19 24.8063 149.226 24.7799 149.254 24.7476C149.368 24.5548 149.426 24.3374 149.426 24.1099C149.426 23.8825 149.367 23.6504 149.254 23.4294L149.254 23.4302ZM156.213 24.9808C156.047 25.0545 155.906 25.1573 155.797 25.2834C155.688 25.4096 155.613 25.5566 155.576 25.716C155.573 25.8096 155.605 25.9061 155.668 25.9919C155.731 26.0777 155.822 26.1484 155.928 26.1939C155.953 26.2112 155.982 26.2242 156.013 26.232C156.043 26.2397 156.074 26.2421 156.104 26.2389C156.133 26.2357 156.161 26.227 156.184 26.2134C156.208 26.1999 156.227 26.1817 156.24 26.1602C156.33 25.9835 156.373 25.7881 156.368 25.5854C156.363 25.3827 156.31 25.1768 156.212 24.9799L156.213 24.9808Z" fill="white"/>
<path d="M203.582 106.588H184.718L179.043 92.4774H197.878L203.582 106.588Z" fill="#656565"/>
<path d="M184.497 106.038H209.407V106.588H184.718L184.497 106.038Z" fill="#656565"/>
<path d="M189.48 99.5325C189.439 99.4305 189.424 99.3198 189.437 99.2106C189.449 99.1013 189.49 98.9971 189.554 98.9075C189.617 98.8179 189.703 98.7459 189.802 98.6982C189.901 98.6504 190.011 98.6284 190.12 98.6342C190.381 98.6489 190.632 98.7427 190.838 98.9032C191.045 99.0636 191.197 99.2831 191.276 99.5325C191.317 99.6345 191.332 99.7453 191.319 99.8545C191.307 99.9638 191.266 100.068 191.202 100.158C191.138 100.247 191.053 100.319 190.954 100.367C190.855 100.415 190.745 100.437 190.635 100.431C190.374 100.416 190.124 100.322 189.917 100.162C189.711 100.001 189.558 99.7818 189.48 99.5325Z" fill="white"/>
</svg>
