<svg width="229" height="150" viewBox="0 0 229 150" fill="none" xmlns="http://www.w3.org/2000/svg">
<path d="M8.61291 91.5584C7.37934 116.189 23.8104 128.836 47.5084 131.839C74.0923 135.209 101.388 130.663 127.859 128.352C137.831 127.481 147.836 126.827 157.853 126.882C167.292 126.933 177.51 129.538 186.782 128.096C209.96 124.493 221.906 100.521 218.294 79.613C216.055 66.6489 207.644 54.2583 192.757 55.083C182.298 55.6633 173.026 60.2114 163.035 62.6757C149.808 65.918 135.94 65.3985 122.992 61.1758C116.548 59.0632 110.402 56.0693 104.13 53.443C91.6389 48.2249 78.4297 44.4602 64.9785 44.2534C51.5273 44.0466 37.782 47.5829 26.9084 55.8639C15.4422 64.5976 9.30167 77.8101 8.61291 91.5584Z" stroke="#F0F0F0" strokeWidth="4.264" strokeMiterlimit="10"/>
<path d="M214 98.988C215.227 123.32 198.882 135.813 175.307 138.783C148.862 142.111 121.709 137.621 95.3761 135.338C85.4561 134.478 75.5034 133.831 65.539 133.885C56.1496 133.935 45.9848 136.508 36.7605 135.085C13.7028 131.525 1.82042 107.843 5.41326 87.1886C7.09179 77.539 10.7983 66.8638 19.1305 61.0044C27.5122 55.1107 37.2587 56.6186 46.4462 59.1773C63.1779 63.8374 81.4074 72.5824 99.1351 69.1603C109.295 67.199 118.15 61.4402 127.799 57.994C137.42 54.5581 147.699 52.4177 157.928 52.2583C171.304 52.0497 184.982 55.5473 195.799 63.7283C207.206 72.3541 213.315 85.4064 214 98.988Z" fill="#F0F0F0"/>
<path d="M197.072 119.394C197.072 119.394 187.857 125.898 177.271 120.262L187.171 114.733L197.072 119.394Z" fill="#007450"/>
<path d="M129.227 75.9218C129.227 75.9218 120.262 92.7511 123.068 97.7224L133.276 92.0501L129.227 75.9218Z" fill="#007450"/>
<path d="M125.367 93.0068C124.223 92.1461 123.141 91.2077 122.126 90.1982C120.034 88.0834 118.146 85.7751 116.488 83.3044V83.3C115.338 81.6137 114.261 79.8524 113.265 78.0702C110.659 73.3351 108.408 68.413 106.53 63.3443C104.858 58.8991 103.886 55.6017 103.628 54.8456C103.612 54.7907 103.591 54.7375 103.565 54.6869L108.415 40.75C110.758 36.993 112.072 49.1857 112.072 49.1857C112.719 48.8059 113.502 47.6902 113.967 47.0901C114.488 46.4099 114.889 47.4866 114.959 47.8707C115.364 50.1121 113.562 54.3736 113.562 54.3736L125.126 71.3364C125.834 72.3733 126.623 73.3518 127.486 74.2625C128.037 74.8468 128.619 75.4013 129.229 75.9236C130.254 80.2846 130.15 88.6951 125.367 93.0068Z" fill="#F9B384"/>
<path opacity="0.6" d="M125.366 93.0068C124.223 92.146 123.14 91.2076 122.126 90.1982C125.756 86.0367 128.531 79.1247 129.228 75.9232C129.778 76.5068 128.619 75.4016 129.228 75.9232C130.254 80.2846 130.149 88.695 125.366 93.0068Z" fill="#E28B6D"/>
<path d="M197.073 119.395C190.755 118.164 185.776 118.243 181.572 119.078C180.112 119.368 178.675 119.764 177.272 120.263L176 124.825L173.49 133.845L171.859 139.705L170.375 145.027L169.541 148.028H124.728L131.817 101.764L123.068 97.7234C123.672 96.8083 124.194 95.8418 124.628 94.8349C127.284 88.8453 128.71 79.7669 129.228 75.9228C131.744 78.093 134.7 79.6908 137.893 80.6059C141.709 81.6954 146.309 82.6386 150.612 82.5391L151.054 82.5267C161.008 82.1386 165.448 85.1646 165.448 85.1646C167.701 85.611 173.572 87.8692 178.697 90.1274C180.957 91.1166 183.07 92.1099 184.674 92.9448C186.801 94.0585 188.666 95.6126 190.147 97.5039C191.627 99.3953 192.689 101.58 193.26 103.914L197.073 119.395Z" fill="#00C588"/>
<path opacity="0.6" d="M181.572 119.078C180.112 119.368 178.675 119.764 177.272 120.263L179.969 110.575L181.572 119.078Z" fill="#009B6B"/>
<path opacity="0.3" d="M116.488 83.2981C115.337 81.6119 114.435 80.0883 112.272 76.246C115.665 75.0835 117.693 80.0883 116.488 83.2981Z" fill="#EE6F57"/>
<path opacity="0.6" d="M176.487 123.079L173.49 133.845L171.86 139.705L131.646 142.773L127.076 134.767C156.476 134.162 168.778 129.968 176.487 123.079Z" fill="#009B6B"/>
<path opacity="0.6" d="M106.53 63.3428C104.857 58.8976 103.886 55.6002 103.627 54.844L111.153 50.1818C111.44 54.4253 108.085 60.4751 106.53 63.3428Z" fill="#E28B6D"/>
<path d="M154.116 92.9711C154.56 94.5177 155.477 95.8861 156.738 96.8834C157.994 97.8638 159.472 98.5196 161.041 98.7929C162.612 99.0744 164.227 99.0052 165.769 98.5901C166.544 98.3861 167.292 98.0913 167.998 97.7118C168.717 97.3362 169.395 96.888 170.022 96.3743L170.244 96.6124C169.661 97.2256 169.004 97.7647 168.289 98.2173C167.562 98.6646 166.785 99.0245 165.974 99.2897C164.332 99.814 162.586 99.9242 160.891 99.6103C159.186 99.3116 157.594 98.5552 156.285 97.4218C155.638 96.8529 155.085 96.1839 154.649 95.4401C154.224 94.6977 153.935 93.8846 153.798 93.0397L154.116 92.9711Z" fill="#007450"/>
<path d="M172.394 77.0247L171.147 86.7794C170.916 88.5828 170.008 90.2306 168.607 91.3883C167.206 92.546 165.418 93.127 163.605 93.0133C161.792 92.8997 160.09 92.0999 158.844 90.7762C157.599 89.4526 156.903 87.7043 156.898 85.8861C156.899 85.5075 156.928 85.1295 156.986 84.7553L157.211 83.3277L158.091 77.7637L163.045 77.5084L172.394 77.0247Z" fill="#F9B384"/>
<path d="M155.043 60.9537C155.182 59.5155 155.853 57.8015 156.619 56.2484C157.341 54.7841 158.407 53.5175 159.726 52.558C161.046 51.5984 162.579 50.9746 164.193 50.7406C169.113 50.0304 175.475 50.7227 178.94 55.4528C182.845 60.7852 179.6 71.4473 175.412 72.357C171.225 73.2667 155.043 60.9537 155.043 60.9537Z" fill="#2A2B2D"/>
<path d="M167.869 79.5292C166.196 81.1155 162.343 84.8261 156.984 84.755L158.089 77.7645L163.043 77.5092L167.869 79.5292Z" fill="#E28B6D"/>
<path d="M175 63.4676L174.254 67.3537L174.071 68.3053L173.338 72.1287L172.916 74.3201L172.395 77.0247L169.847 78.5567C169.221 78.9444 168.559 79.2701 167.87 79.5292C167.87 79.5297 167.87 79.5303 167.87 79.5308C167.87 79.5313 167.87 79.5318 167.869 79.5322C167.869 79.5326 167.869 79.533 167.868 79.5332C167.868 79.5334 167.867 79.5335 167.866 79.5335C164.887 80.6831 161.663 81.0509 158.501 80.6023C158.219 80.5665 157.943 80.5007 157.675 80.406C155.707 79.7341 154.698 77.6594 154.256 75.0759C153.953 73.0327 153.876 70.9624 154.026 68.9024C154.204 66.2351 154.544 63.5811 155.044 60.9552C159.427 57.0359 165.411 56.3228 169.848 55.4539L175 63.4676Z" fill="#F9B384"/>
<path d="M155.043 60.9537C162.024 55.4536 171.429 61.0266 171.429 61.0266C171.429 61.0266 169.991 69.6892 172.771 68.9743C175.552 68.2593 178.373 62.4678 178.373 62.4678L172.009 53.2851L158.088 55.6852L155.043 60.9537Z" fill="#2A2B2D"/>
<path d="M172.411 69.258C173.779 66.854 176.442 66.0847 177.873 67.9063C179.304 69.7279 179.36 75.4672 172.321 74.2282L172.411 69.258Z" fill="#F9B384"/>
<path d="M160.707 67.3587C160.254 68.5843 159.553 69.676 159.096 70.8239C159.043 70.9629 158.975 71.1223 158.941 71.2448C158.903 71.3497 158.89 71.4624 158.905 71.5731C158.917 71.667 158.961 71.7536 159.031 71.8175C159.127 71.8981 159.235 71.9622 159.351 72.0072C159.939 72.1881 160.546 72.2938 161.16 72.3216L161.166 72.5663C160.504 72.6955 159.823 72.6814 159.167 72.5251C158.978 72.4714 158.802 72.3809 158.648 72.2589C158.471 72.1139 158.35 71.9122 158.305 71.688C158.268 71.482 158.282 71.2699 158.346 71.0705C158.392 70.9057 158.45 70.7444 158.518 70.5875C159.07 69.416 159.729 68.2979 160.486 67.2475L160.707 67.3587Z" fill="#E28B6D"/>
<path d="M165.387 67.6167C165.216 68.1948 164.746 68.565 164.336 68.4436C163.926 68.3221 163.732 67.7553 163.903 67.1771C164.074 66.599 164.544 66.2288 164.954 66.3506C165.364 66.4724 165.558 67.0389 165.387 67.6167Z" fill="#102048"/>
<path d="M157.972 67.265C158.143 66.687 157.949 66.1201 157.54 65.9987C157.13 65.8773 156.659 66.2475 156.488 66.8254C156.317 67.4034 156.511 67.9703 156.921 68.0917C157.331 68.2131 157.802 67.8429 157.972 67.265Z" fill="#102048"/>
<path d="M162.779 65.3862C163.137 65.0427 163.557 64.7715 164.018 64.5873C164.498 64.3937 165.02 64.3235 165.535 64.3831C166.049 64.4488 166.538 64.6441 166.956 64.9506C167.357 65.2425 167.699 65.6095 167.961 66.0314L167.778 66.1926C167.427 65.9046 167.054 65.6445 166.662 65.4146C166.291 65.2021 165.883 65.0619 165.46 65.0013C165.034 64.9499 164.602 64.9815 164.188 65.0944C163.751 65.219 163.327 65.3839 162.921 65.5871L162.779 65.3862Z" fill="#102048"/>
<path d="M159.104 65.4212C158.95 65.172 158.734 64.967 158.477 64.8264C158.22 64.6857 157.931 64.6142 157.638 64.6188C157.347 64.6227 157.06 64.6865 156.794 64.8062C156.508 64.9414 156.237 65.1069 155.986 65.2998L155.795 65.1466C155.963 64.8118 156.217 64.5278 156.531 64.3237C156.86 64.1073 157.246 63.9931 157.639 63.9954C158.04 63.9963 158.43 64.1271 158.75 64.3682C158.908 64.4835 159.041 64.6291 159.141 64.7964C159.242 64.9638 159.308 65.1495 159.336 65.3428L159.104 65.4212Z" fill="#102048"/>
<path d="M158.048 74.3737L162.587 74.4693C162.587 74.4693 160.072 77.8852 158.223 74.706L158.048 74.3737Z" fill="white"/>
<path d="M173.499 71.0913C173.501 70.6928 173.573 70.2979 173.711 69.9241C173.85 69.5262 174.086 69.169 174.397 68.8845C174.732 68.5808 175.171 68.4179 175.622 68.4297C176.046 68.4517 176.449 68.6208 176.762 68.9079L176.64 69.1194C176.317 69.0045 175.975 68.9567 175.633 68.979C175.326 69.0171 175.038 69.1475 174.806 69.3529C174.558 69.579 174.351 69.8474 174.196 70.1455C174.026 70.4533 173.887 70.7885 173.738 71.1358L173.499 71.0913Z" fill="#E28B6D"/>
<path opacity="0.3" d="M167.842 75.6518C169.608 75.6518 171.039 74.2193 171.039 72.4522C171.039 70.6851 169.608 69.2526 167.842 69.2526C166.077 69.2526 164.646 70.6851 164.646 72.4522C164.646 74.2193 166.077 75.6518 167.842 75.6518Z" fill="#EE6F57"/>
<path opacity="0.3" d="M156.497 72.0203C156.495 72.702 156.277 73.3656 155.874 73.9149C155.47 74.4642 154.903 74.8707 154.253 75.0755C153.95 73.0324 153.873 70.962 154.024 68.902C154.727 69.066 155.355 69.4634 155.804 70.0296C156.253 70.5958 156.497 71.2975 156.497 72.0203V72.0203Z" fill="#EE6F57"/>
<path d="M92.1763 58.7068C92.1763 58.7068 101.278 63.1659 99.5908 70.5646L93.5709 72.2512L92.1763 58.7068Z" fill="#705423"/>
<path d="M92.1763 58.7064C93.1533 57.7439 98.1622 52.204 97.9873 45.2806C97.8547 40.0303 100.18 42.4019 100.48 46.025C100.48 46.025 101.758 38.615 105.285 39.3661L104.249 40.7861C104.249 40.7861 105.586 38.2769 106.665 38.9481C107.744 39.6192 106.767 41.7665 106.767 41.7665C106.767 41.7665 107.27 39.9063 108.195 39.7629C109.12 39.6196 109.969 42.5372 107.9 50.1482C107.9 50.1482 110.142 47.9232 111.028 47.5479C111.913 47.1726 111.854 52.9948 105.57 59.1916C99.2868 65.3884 94.8413 70.1816 94.8413 70.1816L92.1763 58.7064Z" fill="#F9B384"/>
<path d="M55.5015 89.0627C55.7223 89.4045 92.1758 58.7068 92.1758 58.7068L99.5904 70.5646L62.3829 114.42L55.5015 89.0627Z" fill="#EE8835"/>
<path d="M105.351 39.4161C104.917 40.0865 104.515 40.7832 104.145 41.4915C103.775 42.1994 103.443 42.9262 103.149 43.6687C102.848 44.4067 102.596 45.1639 102.395 45.9353L102.245 46.5145L102.13 47.1014C102.032 47.4906 102.011 47.89 101.936 48.2861L101.773 48.2774C101.776 47.4613 101.866 46.6478 102.041 45.8507C102.218 45.0539 102.46 44.2731 102.765 43.5162C103.072 42.7616 103.43 42.0288 103.837 41.323C104.241 40.6162 104.704 39.945 105.222 39.3168L105.351 39.4161Z" fill="#E28B6D"/>
<path d="M106.845 41.7873C106.724 42.4493 106.582 43.1059 106.435 43.761C106.289 44.4161 106.125 45.0672 105.976 45.7212L105.479 47.6715C105.304 48.3193 105.13 48.9675 104.937 49.6113L104.777 49.5774C104.864 48.908 104.992 48.2471 105.125 47.5876C105.264 46.9311 105.416 46.2745 105.575 45.622C105.746 44.972 105.906 44.3191 106.094 43.6738C106.283 43.0286 106.47 42.383 106.688 41.7454L106.845 41.7873Z" fill="#E28B6D"/>
<path d="M109.055 40.0635C109.275 42.3488 109.206 44.6526 108.852 46.9208C108.759 47.4873 108.661 48.0538 108.524 48.6129C108.46 48.8934 108.39 49.1721 108.309 49.4489L108.252 49.6572L108.226 49.7539C108.229 49.7374 108.226 49.7201 108.217 49.7057C108.207 49.6907 108.191 49.6803 108.174 49.6767C108.156 49.6731 108.138 49.6768 108.122 49.6868L108.268 49.5573C108.696 49.1789 109.128 48.8046 109.564 48.4342L110.227 47.8871C110.345 47.7941 110.442 47.7149 110.58 47.6139C110.653 47.5654 110.736 47.5359 110.823 47.5281C110.91 47.5203 110.998 47.5345 111.078 47.5693C111.158 47.6041 111.228 47.6584 111.282 47.7273C111.335 47.7962 111.371 47.8775 111.385 47.9637L111.427 48.1858C111.443 48.3343 111.468 48.4831 111.47 48.6312C111.484 48.9264 111.477 49.2223 111.447 49.5164C111.388 50.0981 111.266 50.6717 111.082 51.2268C110.715 52.3238 110.217 53.3726 109.599 54.3505C108.983 55.3193 108.305 56.2468 107.568 57.127C107.2 57.5647 106.808 57.9827 106.429 58.411L105.233 59.6391L105.117 59.5249L106.261 58.2592C106.621 57.8215 106.996 57.3922 107.344 56.9439C108.052 56.0601 108.703 55.131 109.291 54.1627C109.875 53.2008 110.35 52.1762 110.705 51.1082C110.877 50.5788 110.99 50.0322 111.043 49.4781C111.069 49.2048 111.074 48.9298 111.059 48.6556C111.057 48.5185 111.032 48.3853 111.018 48.2504L110.981 48.0523C110.969 47.9892 110.966 47.9951 110.947 47.9713C110.929 47.9541 110.905 47.9434 110.88 47.9412C110.855 47.9389 110.83 47.9452 110.809 47.9589L110.485 48.2077L109.826 48.7439C109.389 49.1086 108.959 49.4781 108.531 49.8524L108.355 50.0037C108.301 50.0432 108.235 50.0648 108.168 50.0656C108.101 50.0664 108.036 50.0464 107.98 50.0083C107.925 49.9702 107.883 49.916 107.86 49.853C107.837 49.7899 107.834 49.7213 107.851 49.6565L107.882 49.5471L107.94 49.3435C108.02 49.0729 108.091 48.7993 108.156 48.5243C108.29 47.9772 108.401 47.4202 108.503 46.8632C108.692 45.7447 108.82 44.6167 108.886 43.4841C108.966 42.3512 108.969 41.2142 108.894 40.081L109.055 40.0635Z" fill="#E28B6D"/>
<path d="M40.7816 115.718C40.7816 115.718 28.1871 110.746 23.0437 120.259C16.5766 132.223 26.294 146.277 26.294 146.277H43.3883L40.7816 115.718Z" fill="#2B2B2B"/>
<path d="M28.4523 119.64C28.135 119.977 27.8533 120.345 27.6116 120.74C27.3677 121.134 27.154 121.547 26.9724 121.973C26.6039 122.827 26.3207 123.714 26.127 124.624C25.7435 126.447 25.5985 128.313 25.6955 130.173C25.7893 132.037 26.0767 133.885 26.553 135.689C27.0372 137.496 27.6781 139.258 28.4684 140.953L28.3226 141.026C28.1091 140.607 27.8853 140.192 27.6929 139.761C27.5956 139.546 27.4899 139.335 27.3992 139.117L27.1229 138.465C26.7767 137.587 26.4644 136.694 26.202 135.785C25.6806 133.963 25.3716 132.086 25.2812 130.192C25.1826 128.295 25.3519 126.393 25.7841 124.543C26.0029 123.618 26.315 122.717 26.7155 121.855C26.9189 121.425 27.1546 121.01 27.4207 120.615C27.6842 120.216 27.9923 119.849 28.339 119.521L28.4523 119.64Z" fill="black"/>
<path d="M73.2689 73.9991C77.3989 76.5218 80.2542 75.0205 81.0883 72.299C81.9225 69.5776 84.9712 59.3189 72.2259 60.9723C72.2259 60.9723 56.6071 54.6693 49.9961 63.9684C44.1654 72.1721 49.5151 77.8433 40.6061 84.6456C34.3938 89.3874 27.3513 97.722 41.3214 111.974L56.4756 107.797L73.2689 73.9991Z" fill="#2A2B2D"/>
<path d="M68.5636 85.8934C68.8722 87.3367 72.2147 91.0729 73.5518 92.4757C77.5951 96.7138 78.4868 104.664 66.9594 107.094L60.4727 91.9727L68.5636 85.8934Z" fill="#141414"/>
<path d="M69.1382 87.7839L67.7745 94.0657L65.6561 103.841L53.8335 101.341L56.6151 82.17L68.6713 87.5753L69.1382 87.7839Z" fill="#F9B384"/>
<path d="M76.4126 75.3644C76.4126 75.3644 79.8243 79.1943 79.7044 80.1678C79.5845 81.1413 76.4126 82.8885 76.4126 82.8885V75.3644Z" fill="#E28B6D"/>
<path d="M69.138 87.7839L67.7743 94.0657C64.1378 92.1289 61.4858 87.3371 61.4858 87.3371L68.6712 87.5749L69.138 87.7839Z" fill="#E28B6D"/>
<path d="M77.2102 84.0773C76.7306 87.7172 75.5215 90.5137 72.9359 90.7639C65.7881 91.457 55.5005 83.443 55.5005 83.443L56.0552 68.7671L63.8283 63.9669L76.4096 66.3043C76.5597 67.9613 77.3312 73.0285 77.4562 78.1248C77.5246 80.1124 77.4424 82.1022 77.2102 84.0773V84.0773Z" fill="#F9B384"/>
<path d="M78.3881 68.7675L76.8371 69.9628C68.751 63.6474 70.427 72.7451 69.6766 75.6588C68.9263 78.5724 65.0936 77.8042 62.1035 75.9217L61.5697 79.9997L52.583 80.2835L52.0615 68.8842L61.0234 61.8721L77.6123 65.1111L78.3881 68.7675Z" fill="#2A2B2D"/>
<path d="M66.7782 111.095C71.1925 108.724 69.941 102.538 68.2228 100.421C66.5045 98.3042 59.203 94.7515 58.3171 88.0856C57.8244 84.3779 61.5692 80.0008 61.5692 80.0008L53.9724 75.921L46.188 88.1709L52.061 109.209L66.7782 111.095Z" fill="#2A2B2D"/>
<path d="M72.2786 145.047L35.2267 145.072C33.6086 121.326 39.5221 109.184 44.6346 103.22C46.2183 101.377 48.2329 99.9554 50.4987 99.0814C52.7646 98.2075 55.2114 97.9084 57.6208 98.2107C61.8867 98.7367 65.59 100.764 69.3432 109.606L51.8035 117.77L63.0642 137.613C64.1955 139.608 65.8324 141.269 67.8097 142.43L72.2786 145.047Z" fill="#F99746"/>
<path d="M51.8027 117.77C51.8027 117.77 57.3157 139.857 59.359 142.764C61.4862 145.791 66.0531 145.03 74.0132 145.047L63.9577 122.624L51.8027 117.77Z" fill="#EE8835"/>
<path d="M96.784 139.043L95.1911 144.912L74.013 145.047H72.2784L67.808 142.43C65.8303 141.27 64.1931 139.609 63.0614 137.613L51.8008 117.771L69.3404 109.606C71.2252 114.035 73.1188 120.179 75.0983 128.694C75.2306 129.261 75.4932 129.79 75.8653 130.237C76.2374 130.685 76.7087 131.04 77.2418 131.273L96.784 139.043Z" fill="#F99746"/>
<path d="M63.9579 77.535C63.3213 73.9987 59.1293 73.5304 58.3994 75.9195C57.6694 78.3087 57.8476 82.414 63.1124 82.1707L63.9579 77.535Z" fill="#F9B384"/>
<path d="M62.2759 77.8115L61.6199 77.0616C61.4231 76.8324 61.1945 76.6328 60.941 76.4689C60.8487 76.3996 60.7388 76.3578 60.6239 76.3481C60.509 76.3384 60.3937 76.3613 60.2912 76.4141C60.0366 76.5785 59.8115 76.7847 59.6254 77.024L59.4067 76.9146C59.489 76.5365 59.6961 76.1972 59.9946 75.9513C60.178 75.8104 60.4033 75.7349 60.6345 75.7368C60.8552 75.7476 61.0694 75.8146 61.2569 75.9316C61.5758 76.1364 61.8442 76.4107 62.0422 76.734C62.236 77.0307 62.3868 77.3533 62.4901 77.6922L62.2759 77.8115Z" fill="#E28B6D"/>
<path opacity="0.2" d="M77.0264 85.2427C76.8471 85.2791 73.4854 84.3143 73.4854 81.1454C73.5073 80.315 73.8491 79.5253 74.4394 78.9415C75.0297 78.3576 75.8227 78.0249 76.6525 78.0128C76.9249 78.0116 77.196 78.0496 77.4576 78.1256C77.5075 80.1792 77.4641 83.2555 77.0264 85.2427Z" fill="#EE6F57"/>
<path d="M138.104 145.274H94.0278L102.354 109.379H146.431L138.104 145.274Z" fill="#656565"/>
<path opacity="0.6" d="M138.104 145.274L146.431 109.379C133.832 138.559 115.112 141.793 94.0269 145.274" fill="#4A4A4A"/>
<path d="M192.737 118.725L192.604 122.373L192.004 138.722V138.743C191.955 139.966 191.638 141.163 191.074 142.248C190.51 143.334 189.714 144.282 188.743 145.025H170.376L132.018 145.154C131.334 145.154 130.634 143.56 131.647 142.771C133.886 141.018 137.394 139.089 139.833 137.528C141.178 136.663 142.784 136.299 144.37 136.497C147.01 136.835 150.817 138.175 155.555 136.777C156.374 136.535 157.208 136.348 158.052 136.217L173.49 133.842L179.566 132.908L179.737 122.606L179.792 119.488C180.371 119.334 180.964 119.196 181.572 119.075C185.253 118.381 189.02 118.263 192.737 118.725V118.725Z" fill="#F9B384"/>
<path opacity="0.6" d="M192.736 118.725L192.602 122.373C190.359 121.583 181.693 119.117 179.792 119.489C180.371 119.334 180.963 119.197 181.572 119.075C185.253 118.382 189.019 118.263 192.736 118.725V118.725Z" fill="#E28B6D"/>
<path opacity="0.3" d="M192.001 138.724V138.746C191.952 139.968 191.635 141.165 191.071 142.251C190.507 143.337 189.711 144.285 188.74 145.027H183.16C184.137 139.655 188.203 137.986 192.001 138.724Z" fill="#EE6F57"/>
<path d="M177.234 133.147C177.888 132.867 178.576 132.676 179.281 132.578C179.99 132.475 180.71 132.465 181.421 132.549C182.133 132.624 182.833 132.79 183.503 133.042C184.176 133.283 184.808 133.627 185.377 134.06L185.242 134.264C184.624 133.982 183.985 133.748 183.331 133.564C182.683 133.377 182.021 133.244 181.35 133.168C180.682 133.086 180.007 133.066 179.334 133.11C178.654 133.153 177.977 133.243 177.309 133.38L177.234 133.147Z" fill="#E28B6D"/>
<path d="M222.912 145.063H0.324707V150H222.912V145.063Z" fill="#F0F0F0"/>
<path d="M0.324707 145.072H222.912" stroke="#2B2B2B" strokeWidth="6"/>
<path opacity="0.89" d="M33.6349 58.0539C32.9683 54.469 31.1662 51.1942 28.4953 48.7144C25.8244 46.2345 22.4267 44.6813 18.8052 44.2847C15.1837 43.8881 11.5309 44.6692 8.38746 46.5124C5.24403 48.3556 2.77709 51.1628 1.35182 54.5186C-0.0734403 57.8744 -0.381267 61.6004 0.473908 65.1449C1.32908 68.6895 3.30181 71.8642 6.10006 74.1991C8.8983 76.5341 12.3733 77.9052 16.0107 78.1094C19.6481 78.3136 23.2545 77.3401 26.2961 75.333L32.1681 77.8954L29.3423 72.7524C31.1592 70.8109 32.4943 68.4689 33.24 65.9155C33.9857 63.3622 34.1209 60.6692 33.6349 58.0539V58.0539Z" fill="#C2C2C2" fillOpacity="0.8"/>
<path opacity="0.89" d="M195.111 58.2589C195.334 54.6194 196.721 51.1483 199.068 48.3595C201.416 45.5708 204.597 43.6126 208.143 42.7748C211.688 41.937 215.409 42.2641 218.755 43.7078C222.1 45.1515 224.892 47.6349 226.717 50.7906C228.543 53.9462 229.304 57.6062 228.89 61.2288C228.475 64.8515 226.906 68.2442 224.415 70.9047C221.923 73.5653 218.642 75.3522 215.058 76.001C211.473 76.6498 207.774 76.1261 204.51 74.5072L198.996 77.7707L201.17 72.3194C199.13 70.6154 197.518 68.4549 196.466 66.0124C195.413 63.5699 194.949 60.9139 195.111 58.2589V58.2589Z" fill="#C2C2C2" fillOpacity="0.8"/>
<path opacity="0.2" d="M115.351 19.1234C115.351 23.4078 112.424 27.4624 108.54 28.6712H103.288C99.2449 27.5634 96.272 23.5216 96.272 19.1234C96.272 16.5911 97.277 14.1625 99.066 12.3719C100.855 10.5813 103.281 9.57538 105.811 9.57538C108.341 9.57538 110.768 10.5813 112.557 12.3719C114.346 14.1625 115.351 16.5911 115.351 19.1234Z" fill="#FFCD83"/>
<path d="M105.812 0V7.12912" stroke="#FFBE5E" strokeWidth="8.529" strokeMiterlimit="10"/>
<path d="M99.13 9.15349L92.8867 4.48865" stroke="#FFBE5E" strokeWidth="8.529" strokeMiterlimit="10"/>
<path d="M112.493 9.15349L118.736 4.48865" stroke="#FFBE5E" strokeWidth="8.529" strokeMiterlimit="10"/>
<path d="M102.413 7.83308L101.111 4.48865" stroke="#FFD792" strokeWidth="8.529" strokeMiterlimit="10"/>
<path d="M109.21 7.83308L110.513 4.48865" stroke="#FFD792" strokeWidth="8.529" strokeMiterlimit="10"/>
<path d="M111.911 20.3332C111.911 17.0982 109.014 14.4942 105.506 14.6543C102.394 14.7962 99.8479 17.1879 99.7175 20.0892C99.6857 20.8637 99.8195 21.6362 100.11 22.3548C100.4 23.0734 100.841 23.7216 101.402 24.2561C101.981 24.7919 102.447 25.4388 102.771 26.1585C103.095 26.8782 103.271 27.6558 103.288 28.445V28.6711H108.54V28.2024C108.572 26.6798 109.206 25.2318 110.302 24.1755C111.326 23.159 111.905 21.7769 111.911 20.3332V20.3332Z" fill="#FFB93E"/>
<path d="M103.185 30.5814H108.437V30.7112C108.437 31.4083 108.161 32.0768 107.668 32.5697C107.176 33.0626 106.508 33.3395 105.811 33.3396V33.3396C105.115 33.3396 104.447 33.0627 103.954 32.5698C103.462 32.0769 103.185 31.4083 103.185 30.7112V30.5814Z" fill="#FFB93E"/>
<path opacity="0.8" d="M103.855 20.9395C104.652 20.9395 105.297 20.2933 105.297 19.4961C105.297 18.699 104.652 18.0528 103.855 18.0528C103.059 18.0528 102.413 18.699 102.413 19.4961C102.413 20.2933 103.059 20.9395 103.855 20.9395Z" fill="white"/>
</svg>
