<svg width="172" height="100" viewBox="0 0 172 100" fill="none" xmlns="http://www.w3.org/2000/svg">
<path d="M13.5308 99.9508C13.5308 99.9508 -7.42091 74.7125 2.81884 48.7297C9.4935 31.7928 34.5296 22.5136 48.6593 31.7928C54.6773 35.7453 73.984 31.926 84.293 15.5623C104.325 -16.2366 174.239 3.07511 161.511 51.8977C155.352 75.5243 180.256 76.3831 167.567 100L13.5308 99.9508Z" fill="#EFEFEF"/>
<path d="M20.9174 62.8764C20.9174 62.8764 19.031 60.6757 20.8012 59.2779C20.8012 59.2779 22.0941 58.4953 23.1481 58.5587C23.1481 58.5587 21.6544 61.0637 22.1375 61.312C22.6206 61.5604 23.6006 58.4011 23.6006 58.4011C23.6006 58.4011 26.5427 58.1157 27.4892 58.5707C27.4892 58.5707 24.9739 60.6287 25.5037 60.7513C26.0335 60.874 28.7501 58.8538 28.7501 58.8538C28.7501 58.8538 31.4884 59.3199 31.3424 60.9902C31.1964 62.6606 30.2527 63.1765 29.8381 63.1317C29.4234 63.0869 26.9975 62.1614 26.9457 62.5009C26.894 62.8405 28.353 63.9513 29.3756 64.0027C29.3756 64.0027 27.4449 66.1319 26.162 65.5173C24.8791 64.9027 24.7695 63.9288 23.9697 63.5636C23.1698 63.1985 22.4871 63.1993 22.8175 63.5717C23.1479 63.9441 24.5951 64.3064 25.0526 65.1155C25.5101 65.9245 25.9203 66.4704 24.5929 66.2704C23.2655 66.0705 21.1076 65.0993 21.0131 63.9872L20.9174 62.8764Z" fill="#C8DBF4"/>
<path d="M29.9973 61.0359C29.9973 61.0359 22.56 60.7491 20.9175 62.8761C20.5978 63.6777 20.0898 64.3907 19.4366 64.9547L19.2622 65.4294C19.2622 65.4294 20.551 64.0706 21.0121 63.9883C21.0121 63.9885 20.2909 61.3535 29.9973 61.0359Z" fill="#C8DBF4"/>
<path d="M19.4363 64.9547C18.9423 65.3575 18.5359 65.8572 18.2423 66.4231C17.9487 66.9889 17.774 67.6089 17.729 68.2447L18.0188 68.2706C18.0188 68.2706 18.5286 66.0894 19.4502 65.2364C20.3719 64.3834 19.4363 64.9547 19.4363 64.9547Z" fill="#C8DBF4"/>
<path d="M14.3223 60.1092C14.3223 60.1092 17.3229 58.4303 15.9231 56.1498C15.9231 56.1498 14.8029 54.7495 13.6026 54.3893C13.6026 54.3893 14.2422 57.7901 13.6026 57.8699C12.9629 57.9497 13.1626 54.0292 13.1626 54.0292C13.1626 54.0292 10.0019 52.509 8.7618 52.6289C8.7618 52.6289 10.7222 55.9495 10.082 55.8695C9.44178 55.7894 7.24137 52.4287 7.24137 52.4287C7.24137 52.4287 4.00055 51.8285 3.48048 53.7489C2.96041 55.6692 3.80058 56.6295 4.2806 56.7494C4.76062 56.8693 7.84042 56.8295 7.76144 57.2294C7.68246 57.6293 5.60108 58.2695 4.4408 57.9097C4.4408 57.9097 5.7201 61.0704 7.40128 60.9102C9.08246 60.75 9.6017 59.7099 10.6418 59.6309C11.682 59.5519 12.4423 59.8309 11.9211 60.1109C11.4 60.391 9.64063 60.2027 8.80046 60.9174C7.96029 61.6322 7.2803 62.0719 8.8405 62.3914C10.4007 62.711 13.2013 62.5116 13.7614 61.3112L14.3223 60.1092Z" fill="#C8DBF4"/>
<path d="M4.96045 54.3479C4.96045 54.3479 13.3622 57.0684 14.3222 60.109C14.3509 61.1324 14.6253 62.134 15.1223 63.0291V63.6293C15.1223 63.6293 14.2421 61.5888 13.7621 61.3087C13.7621 61.3093 15.6427 58.6686 4.96045 54.3479Z" fill="#C8DBF4"/>
<path d="M15.1225 63.0293C15.508 63.68 15.7563 64.4028 15.8519 65.153C15.9476 65.9033 15.8886 66.6652 15.6787 67.3918L15.345 67.3022C15.345 67.3022 15.6684 64.6644 14.9907 63.3375C14.3129 62.0106 15.1225 63.0293 15.1225 63.0293Z" fill="#C8DBF4"/>
<path d="M19.0958 57.7929C19.0958 57.7929 15.1406 55.5781 16.9864 52.572C16.9864 52.572 18.4632 50.7261 20.0456 50.2514C20.0456 50.2514 19.2018 54.7343 20.0456 54.8402C20.8894 54.9462 20.6257 49.7786 20.6257 49.7786C20.6257 49.7786 24.7921 47.7745 26.4269 47.9328C26.4269 47.9328 23.8426 52.31 24.6864 52.2046C25.5302 52.0992 28.4309 47.6691 28.4309 47.6691C28.4309 47.6691 32.7027 46.8782 33.3882 49.4096C34.0738 51.9409 32.9663 53.2066 32.3334 53.3649C31.7004 53.5231 27.6397 53.4702 27.7445 53.9975C27.8494 54.5248 30.5924 55.3689 32.1217 54.8942C32.1217 54.8942 30.4341 59.0606 28.219 58.8495C26.0038 58.6384 25.3183 57.2673 23.9472 57.1619C22.5761 57.0565 21.5741 57.4255 22.2596 57.7949C22.9452 58.1642 25.2657 57.9158 26.3732 58.8572C27.4806 59.7987 28.3772 60.3788 26.3203 60.8007C24.2634 61.2226 20.5718 60.9589 19.8334 59.3768L19.0958 57.7929Z" fill="#D4E4F8"/>
<path d="M31.436 50.1975C31.436 50.1975 20.3611 53.7851 19.0954 57.7918C19.0577 59.1412 18.6959 60.4616 18.0405 61.6417V62.433C18.0405 62.433 19.2008 59.7433 19.8335 59.3737C19.8338 59.3737 17.3561 55.8932 31.436 50.1975Z" fill="#D4E4F8"/>
<path d="M18.0406 61.6417C18.0406 61.6417 16.3327 64.2353 17.3064 67.3925L17.7458 67.2742C17.7458 67.2742 17.3191 63.7979 18.2127 62.048C19.1063 60.2981 18.0406 61.6417 18.0406 61.6417Z" fill="#D4E4F8"/>
<path d="M18.9627 74.2386C21.0176 74.2386 22.9883 73.4224 24.4413 71.9693C25.8943 70.5163 26.7106 68.5456 26.7106 66.4908H11.2148C11.2148 68.5456 12.0311 70.5163 13.4841 71.9693C14.9372 73.4224 16.9079 74.2386 18.9627 74.2386Z" fill="#D4E4F8"/>
<path d="M12.0638 73.6769H25.8617C26.1152 73.6769 26.3583 73.7776 26.5376 73.9569C26.7168 74.1361 26.8175 74.3793 26.8175 74.6328H11.1079C11.1079 74.3793 11.2086 74.1361 11.3879 73.9569C11.5671 73.7776 11.8103 73.6769 12.0638 73.6769Z" fill="#D4E4F8"/>
<path d="M26.8868 66.4908H10.96V66.7285H26.8868V66.4908Z" fill="#9FC1F4"/>
<path d="M63.9489 99.7953H63.9873C64.0592 99.7962 64.1305 99.7822 64.1967 99.7542C64.2629 99.7261 64.3226 99.6847 64.372 99.6324C64.4214 99.5801 64.4594 99.5182 64.4836 99.4505C64.5078 99.3828 64.5177 99.3108 64.5126 99.239L62.424 78.3807L60.6016 78.5434L63.6004 99.513C63.6142 99.5944 63.6572 99.6679 63.7214 99.7199C63.7855 99.7719 63.8664 99.7987 63.9489 99.7953Z" fill="#8CB4F4"/>
<path d="M43.8377 99.7953H43.7996C43.7277 99.7962 43.6563 99.7822 43.5901 99.7542C43.5239 99.7261 43.4642 99.6847 43.4148 99.6324C43.3655 99.5801 43.3275 99.5182 43.3033 99.4505C43.2791 99.3828 43.2692 99.3108 43.2742 99.239L45.3628 78.3807L47.1853 78.5434L44.1864 99.513C44.1726 99.5944 44.1296 99.668 44.0654 99.72C44.0012 99.772 43.9202 99.7987 43.8377 99.7953Z" fill="#8CB4F4"/>
<path d="M78.682 99.7953H78.7204C78.7923 99.7963 78.8636 99.7823 78.9298 99.7542C78.996 99.7262 79.0557 99.6847 79.1051 99.6325C79.1545 99.5802 79.1925 99.5182 79.2167 99.4505C79.2409 99.3828 79.2508 99.3108 79.2457 99.2391L77.1574 78.3808L75.335 78.5435L78.3338 99.513C78.3476 99.5944 78.3906 99.6679 78.4546 99.7198C78.5187 99.7718 78.5996 99.7986 78.682 99.7953Z" fill="#8CB4F4"/>
<path d="M44.4596 75.3469L40.7524 57.0397C40.2766 54.5611 42.3304 52.2945 44.9975 52.3554L52.1472 52.5187C53.3489 52.5462 54.5106 52.9563 55.4631 53.6896C56.4157 54.4228 57.1094 55.4408 57.4435 56.5955L62.8667 75.3469H44.4596Z" fill="#8CB4F4"/>
<path d="M46.7028 75.3469L42.9956 57.0397C42.5197 54.5612 44.5736 52.2946 47.2407 52.3555L54.3903 52.5187C55.5921 52.5462 56.7537 52.9564 57.7063 53.6896C58.6588 54.4228 59.3526 55.4408 59.6867 56.5955L65.1098 75.3469H46.7028Z" fill="#8CB4F4"/>
<path d="M73.1443 78.6855H46.13C45.6875 78.6855 45.2631 78.5097 44.9501 78.1968C44.6372 77.8839 44.4614 77.4594 44.4614 77.0169V75.3482H73.1443C73.5869 75.3482 74.0113 75.524 74.3242 75.837C74.6372 76.1499 74.813 76.5743 74.813 77.0169V77.0169C74.813 77.4594 74.6372 77.8839 74.3242 78.1968C74.0113 78.5097 73.5869 78.6855 73.1443 78.6855V78.6855Z" fill="#8CB4F4"/>
<path d="M59.6044 78.6855H75.9623C76.8844 78.6855 77.6318 77.9381 77.6318 77.016C77.6318 76.094 76.8844 75.3466 75.9623 75.3466H59.6044C58.6824 75.3466 57.9349 76.094 57.9349 77.016C57.9349 77.9381 58.6824 78.6855 59.6044 78.6855Z" fill="#8CB4F4"/>
<path d="M31.0138 75.1082V75.7329C31.0138 75.9514 30.9428 76.13 30.8566 76.13H8.06436C7.97787 76.13 7.90723 75.9514 7.90723 75.7329V75.1082C7.90723 74.8899 7.97787 74.7111 8.06436 74.7111H30.8566C30.9431 74.7111 31.0138 74.8899 31.0138 75.1082Z" fill="#9ABFE2"/>
<path d="M31.014 75.1081V75.7328C31.014 75.9514 30.9489 76.1299 30.8696 76.1299H12.7752C12.6959 76.1299 12.6309 75.9514 12.6309 75.7328V75.1081C12.6309 74.8898 12.6959 74.711 12.7752 74.711H30.8699C30.9492 74.711 31.014 74.8898 31.014 75.1081Z" fill="#BAD4F4"/>
<path d="M25.245 76.1302H9.06396V99.7148H25.245V76.1302Z" fill="#C8DBF4"/>
<path d="M29.7797 76.1302H13.5986V99.7148H29.7797V76.1302Z" fill="#DFEBFD"/>
<path d="M28.9103 98.413H14.4683V76.7966H28.9103V98.413ZM14.624 98.257H28.7543V76.9537H14.6243L14.624 98.257Z" fill="#B7D3F3"/>
<path d="M28.8326 83.9473H14.5464V84.1033H28.8326V83.9473Z" fill="#B7D3F3"/>
<path d="M28.8326 91.2377H14.5464V91.3937H28.8326V91.2377Z" fill="#B7D3F3"/>
<path d="M23.1534 78.1907H20.5024C20.4405 78.1905 20.3811 78.1658 20.3373 78.122C20.2935 78.0782 20.2688 78.0188 20.2686 77.9568C20.2687 77.8948 20.2934 77.8354 20.3372 77.7916C20.381 77.7478 20.4405 77.7231 20.5024 77.7229H23.1534C23.2154 77.7232 23.2747 77.7479 23.3185 77.7917C23.3624 77.8355 23.3871 77.8948 23.3873 77.9568C23.3871 78.0188 23.3624 78.0782 23.3185 78.122C23.2747 78.1658 23.2154 78.1905 23.1534 78.1907Z" fill="#B7D3F3"/>
<path d="M23.1534 85.3195H20.5024C20.4405 85.3193 20.381 85.2947 20.3372 85.2508C20.2934 85.207 20.2687 85.1476 20.2686 85.0856C20.2688 85.0236 20.2935 84.9643 20.3373 84.9205C20.3811 84.8766 20.4405 84.8519 20.5024 84.8517H23.1534C23.2154 84.8519 23.2747 84.8766 23.3185 84.9205C23.3624 84.9643 23.3871 85.0236 23.3873 85.0856C23.3871 85.1476 23.3625 85.207 23.3186 85.2508C23.2748 85.2947 23.2154 85.3193 23.1534 85.3195Z" fill="#B7D3F3"/>
<path d="M23.1534 92.7513H20.5024C20.4405 92.7511 20.381 92.7264 20.3372 92.6826C20.2934 92.6388 20.2687 92.5793 20.2686 92.5174C20.2687 92.4554 20.2934 92.396 20.3372 92.3521C20.381 92.3083 20.4405 92.2836 20.5024 92.2835H23.1534C23.2154 92.2837 23.2747 92.3084 23.3185 92.3522C23.3624 92.396 23.3871 92.4554 23.3873 92.5174C23.3871 92.5793 23.3624 92.6387 23.3185 92.6825C23.2747 92.7263 23.2154 92.751 23.1534 92.7513Z" fill="#B7D3F3"/>
<g opacity="0.303">
<path opacity="0.303" d="M92.7104 22.1134H96.1167C97.2521 22.1135 98.341 22.5646 99.1438 23.3674C99.9467 24.1703 100.398 25.2592 100.398 26.3946V29.4436C100.398 30.579 99.9466 31.668 99.1437 32.4709C98.3409 33.2737 97.2519 33.7248 96.1165 33.7248H92.7107C91.5752 33.7248 90.4863 33.2738 89.6833 32.4709C88.8804 31.668 88.4293 30.579 88.4292 29.4436V26.3946C88.4292 25.2592 88.8803 24.1702 89.6831 23.3673C90.486 22.5645 91.575 22.1134 92.7104 22.1134V22.1134Z" fill="#FFBE5E"/>
<path opacity="0.303" d="M92.858 22.6165H95.9689C96.4825 22.6165 96.991 22.7177 97.4654 22.9142C97.9399 23.1107 98.371 23.3988 98.7341 23.7619C99.0972 24.125 99.3853 24.5561 99.5818 25.0305C99.7783 25.505 99.8794 26.0135 99.8794 26.527V29.3115C99.8794 29.825 99.7783 30.3335 99.5818 30.808C99.3853 31.2824 99.0972 31.7135 98.7341 32.0766C98.371 32.4397 97.9399 32.7278 97.4654 32.9243C96.991 33.1208 96.4825 33.222 95.9689 33.222H92.8583C91.8211 33.222 90.8265 32.81 90.0931 32.0766C89.3598 31.3433 88.9478 30.3486 88.9478 29.3115V26.5268C88.9478 25.4897 89.3597 24.4951 90.093 23.7618C90.8263 23.0285 91.8209 22.6165 92.858 22.6165V22.6165Z" fill="white"/>
<g opacity="0.303">
<g opacity="0.303">
<path opacity="0.303" d="M94.4128 23.9239C94.5497 23.9239 94.6606 23.8129 94.6606 23.6761C94.6606 23.5392 94.5497 23.4283 94.4128 23.4283C94.276 23.4283 94.165 23.5392 94.165 23.6761C94.165 23.8129 94.276 23.9239 94.4128 23.9239Z" fill="#FFBE5E"/>
<path opacity="0.303" d="M96.1659 24.0265C96.1897 23.9836 96.2257 23.9487 96.2694 23.9262C96.313 23.9038 96.3623 23.8948 96.4111 23.9004C96.4599 23.906 96.5059 23.9259 96.5433 23.9576C96.5807 23.9894 96.6079 24.0315 96.6214 24.0787C96.6349 24.1259 96.634 24.176 96.619 24.2228C96.604 24.2695 96.5754 24.3107 96.537 24.3412C96.4985 24.3717 96.4518 24.3901 96.4029 24.3941C96.354 24.3981 96.305 24.3874 96.2621 24.3636C96.2047 24.3316 96.1623 24.2781 96.1443 24.2149C96.1263 24.1517 96.134 24.0839 96.1659 24.0265Z" fill="#FFBE5E"/>
<path opacity="0.303" d="M97.8802 25.3888C97.9214 25.3622 97.9696 25.3484 98.0187 25.3492C98.0677 25.35 98.1155 25.3653 98.1558 25.3932C98.1962 25.4211 98.2273 25.4604 98.2454 25.506C98.2634 25.5517 98.2675 25.6016 98.2572 25.6496C98.2468 25.6975 98.2225 25.7413 98.1872 25.7755C98.152 25.8096 98.1074 25.8325 98.0591 25.8413C98.0108 25.8501 97.961 25.8444 97.916 25.8249C97.871 25.8054 97.8328 25.7729 97.8062 25.7317C97.7705 25.6764 97.7583 25.6092 97.7722 25.5449C97.7861 25.4806 97.8249 25.4245 97.8802 25.3888Z" fill="#FFBE5E"/>
<path opacity="0.303" d="M98.7288 27.4959C98.7778 27.4959 98.8257 27.5104 98.8664 27.5377C98.9072 27.5649 98.9389 27.6036 98.9577 27.6489C98.9765 27.6942 98.9814 27.744 98.9718 27.792C98.9622 27.8401 98.9387 27.8843 98.904 27.9189C98.8693 27.9536 98.8252 27.9772 98.7771 27.9867C98.729 27.9963 98.6792 27.9914 98.6339 27.9726C98.5887 27.9539 98.5499 27.9221 98.5227 27.8814C98.4955 27.8406 98.481 27.7927 98.481 27.7437C98.481 27.7112 98.4874 27.6789 98.4998 27.6489C98.5123 27.6188 98.5305 27.5915 98.5535 27.5685C98.5766 27.5455 98.6039 27.5272 98.6339 27.5148C98.664 27.5023 98.6962 27.4959 98.7288 27.4959Z" fill="#FFBE5E"/>
<path opacity="0.303" d="M98.2947 29.9408C98.3293 29.9755 98.3529 30.0197 98.3624 30.0677C98.372 30.1158 98.367 30.1656 98.3483 30.2108C98.3295 30.2561 98.2977 30.2948 98.257 30.322C98.2162 30.3492 98.1684 30.3637 98.1194 30.3637C98.0704 30.3637 98.0225 30.3492 97.9817 30.322C97.941 30.2948 97.9092 30.2561 97.8905 30.2108C97.8717 30.1656 97.8668 30.1158 97.8763 30.0677C97.8858 30.0197 97.9094 29.9755 97.944 29.9408C97.9905 29.8943 98.0536 29.8682 98.1194 29.8682C98.1851 29.8682 98.2482 29.8943 98.2947 29.9408Z" fill="#FFBE5E"/>
<path opacity="0.303" d="M96.7381 31.5025C96.7727 31.5371 96.7963 31.5813 96.8058 31.6293C96.8153 31.6774 96.8104 31.7272 96.7916 31.7725C96.7729 31.8177 96.7411 31.8564 96.7003 31.8836C96.6596 31.9108 96.6117 31.9253 96.5627 31.9253C96.5137 31.9253 96.4658 31.9108 96.4251 31.8836C96.3843 31.8564 96.3526 31.8177 96.3338 31.7725C96.3151 31.7272 96.3101 31.6774 96.3197 31.6293C96.3292 31.5813 96.3528 31.5371 96.3874 31.5025C96.4104 31.4794 96.4377 31.4611 96.4678 31.4486C96.4979 31.4362 96.5301 31.4297 96.5627 31.4297C96.5953 31.4297 96.6276 31.4362 96.6576 31.4486C96.6877 31.4611 96.7151 31.4794 96.7381 31.5025Z" fill="#FFBE5E"/>
<path opacity="0.303" d="M94.165 32.3073C94.165 32.2583 94.1795 32.2104 94.2068 32.1697C94.234 32.1289 94.2727 32.0972 94.3179 32.0784C94.3632 32.0596 94.413 32.0547 94.4611 32.0643C94.5091 32.0738 94.5533 32.0974 94.5879 32.132C94.6226 32.1666 94.6462 32.2107 94.6558 32.2588C94.6654 32.3068 94.6606 32.3567 94.6419 32.4019C94.6231 32.4472 94.5914 32.486 94.5507 32.5132C94.51 32.5405 94.4621 32.555 94.4131 32.5551C94.3474 32.5551 94.2843 32.529 94.2378 32.4825C94.1913 32.4361 94.1651 32.3731 94.165 32.3073Z" fill="#FFBE5E"/>
</g>
<g opacity="0.303">
<path opacity="0.303" d="M92.653 24.0269C92.6292 23.984 92.5932 23.9491 92.5495 23.9266C92.5059 23.9042 92.4565 23.8952 92.4078 23.9008C92.359 23.9063 92.313 23.9263 92.2756 23.958C92.2382 23.9898 92.211 24.0319 92.1975 24.0791C92.184 24.1263 92.1849 24.1764 92.1999 24.2232C92.2149 24.2699 92.2435 24.3111 92.2819 24.3416C92.3204 24.3721 92.367 24.3905 92.416 24.3945C92.4649 24.3985 92.5139 24.3878 92.5568 24.3639C92.6142 24.332 92.6566 24.2785 92.6746 24.2153C92.6926 24.1521 92.6849 24.0843 92.653 24.0269Z" fill="#FFBE5E"/>
<path opacity="0.303" d="M90.9391 25.3888C90.8979 25.3622 90.8497 25.3485 90.8007 25.3494C90.7518 25.3502 90.7041 25.3655 90.6639 25.3934C90.6236 25.4213 90.5925 25.4605 90.5745 25.5061C90.5565 25.5516 90.5524 25.6015 90.5627 25.6494C90.573 25.6973 90.5973 25.741 90.6325 25.7751C90.6677 25.8092 90.7122 25.8321 90.7604 25.8409C90.8086 25.8497 90.8583 25.844 90.9033 25.8246C90.9482 25.8051 90.9864 25.7728 91.013 25.7317C91.0307 25.7043 91.0428 25.6737 91.0487 25.6417C91.0545 25.6096 91.054 25.5767 91.0472 25.5449C91.0403 25.513 91.0272 25.4828 91.0087 25.4561C90.9901 25.4293 90.9665 25.4064 90.9391 25.3888Z" fill="#FFBE5E"/>
<path opacity="0.303" d="M90.0901 27.4959C90.0411 27.4959 89.9932 27.5105 89.9524 27.5377C89.9117 27.5649 89.8799 27.6036 89.8612 27.6489C89.8424 27.6942 89.8375 27.744 89.847 27.7921C89.8566 27.8401 89.8802 27.8843 89.9149 27.919C89.9495 27.9536 89.9937 27.9772 90.0417 27.9868C90.0898 27.9963 90.1396 27.9914 90.1849 27.9727C90.2302 27.9539 90.2689 27.9222 90.2961 27.8814C90.3233 27.8407 90.3379 27.7927 90.3379 27.7437C90.3379 27.7112 90.3315 27.679 90.319 27.6489C90.3066 27.6188 90.2883 27.5915 90.2653 27.5685C90.2423 27.5455 90.215 27.5273 90.1849 27.5148C90.1548 27.5023 90.1226 27.4959 90.0901 27.4959Z" fill="#FFBE5E"/>
<path opacity="0.303" d="M90.5233 29.9409C90.4886 29.9755 90.465 30.0197 90.4554 30.0677C90.4459 30.1158 90.4508 30.1656 90.4695 30.2109C90.4883 30.2562 90.52 30.2949 90.5608 30.3221C90.6015 30.3493 90.6495 30.3639 90.6985 30.3639C90.7475 30.3639 90.7954 30.3493 90.8362 30.3221C90.8769 30.2949 90.9087 30.2562 90.9274 30.2109C90.9462 30.1656 90.9511 30.1158 90.9415 30.0677C90.9319 30.0197 90.9084 29.9755 90.8737 29.9409C90.8272 29.8944 90.7642 29.8683 90.6985 29.8683C90.6328 29.8683 90.5697 29.8944 90.5233 29.9409Z" fill="#FFBE5E"/>
<path opacity="0.303" d="M92.2556 31.9258C92.3925 31.9258 92.5034 31.8148 92.5034 31.678C92.5034 31.5411 92.3925 31.4302 92.2556 31.4302C92.1188 31.4302 92.0078 31.5411 92.0078 31.678C92.0078 31.8148 92.1188 31.9258 92.2556 31.9258Z" fill="#FFBE5E"/>
</g>
</g>
<g opacity="0.303">
<path opacity="0.303" d="M94.3467 27.7435C94.3467 27.6945 94.3612 27.6465 94.3884 27.6058C94.4157 27.565 94.4544 27.5333 94.4997 27.5145C94.5449 27.4958 94.5947 27.4909 94.6428 27.5004C94.6909 27.51 94.735 27.5336 94.7697 27.5682C94.8043 27.6029 94.828 27.6471 94.8375 27.6951C94.8471 27.7432 94.8421 27.793 94.8234 27.8383C94.8046 27.8836 94.7729 27.9223 94.7321 27.9495C94.6914 27.9767 94.6435 27.9913 94.5945 27.9913C94.5619 27.9913 94.5297 27.9849 94.4997 27.9724C94.4696 27.9599 94.4423 27.9417 94.4193 27.9187C94.3963 27.8957 94.378 27.8684 94.3655 27.8383C94.3531 27.8082 94.3467 27.776 94.3467 27.7435Z" fill="#FFBE5E"/>
<g opacity="0.303">
<path opacity="0.303" d="M94.6289 24.6464H94.561V27.7437H94.6289V24.6464Z" fill="#FFBE5E"/>
</g>
<g opacity="0.303">
<path opacity="0.303" d="M96.143 26.3706L94.501 27.6595L94.6263 27.8192L96.2683 26.5302L96.143 26.3706Z" fill="#FFBE5E"/>
</g>
</g>
</g>
<path d="M69.102 71.5156C67.5724 74.1791 65.647 75.207 65.647 75.207H57.6396C57.6396 75.207 70.2695 69.4837 69.102 71.5156Z" fill="#233862"/>
<path d="M78.9781 97.9763C78.8916 98.8164 80.0602 99.0331 81.4152 99.1165C82.7702 99.1999 82.3577 99.4719 84.2125 99.8285C86.0672 100.185 86.8172 99.6844 86.9543 99.4347C87.0764 99.2122 86.2162 98.8557 85.2999 98.4521C85.1844 98.4018 85.069 98.3498 84.9536 98.2978C83.9224 97.8311 83.3509 96.8955 82.5521 96.025C81.7957 95.2007 81.0971 92.5798 81.0971 92.5798L78.5776 92.0136C78.5776 92.0136 79.2615 94.3731 79.4968 95.3787C79.6359 95.9708 79.4134 96.6288 79.2187 97.1294C79.1011 97.3997 79.0202 97.6845 78.9781 97.9763Z" fill="#FFB27D"/>
<path d="M81.4152 99.1153C82.7704 99.1987 82.3577 99.4707 84.2124 99.8273C86.0672 100.184 86.8172 99.6832 86.9543 99.4335C87.0767 99.211 86.2162 98.8544 85.2999 98.4509L85.2854 98.4665C84.3646 98.7217 83.3918 98.7229 82.4704 98.4698C81.2445 98.1227 80.0639 97.3755 79.2195 97.1291C79.1016 97.3994 79.0205 97.6843 78.9781 97.9762C78.8917 98.8172 80.06 99.0333 81.4152 99.1153Z" fill="#434343"/>
<path d="M75.161 68.7874C73.8052 67.8355 64.8378 66.1384 60.2612 65.6475L55.203 61.2567C55.203 61.2567 50.8975 67.6338 50.8644 72.5125C50.8486 74.7871 51.8962 75.0132 51.8965 75.0135C51.8968 75.0138 68.1104 75.1336 68.8226 75.2082C69.9859 75.328 71.5203 78.2265 71.9043 80.8663C72.2884 83.5062 79.0495 94.2434 79.0495 94.2434C79.0495 94.2434 80.4599 94.6954 81.1117 94.657C81.472 94.6562 81.8257 94.561 82.1377 94.3808C82.1377 94.3808 78.2183 70.9342 75.161 68.7874Z" fill="#212121"/>
<path d="M74.7838 97.9763C74.6973 98.8164 75.8656 99.0331 77.2209 99.1165C78.5761 99.1999 78.1634 99.4719 80.0181 99.8285C81.8728 100.185 82.6229 99.6844 82.76 99.4347C82.8824 99.2122 82.0219 98.8557 81.1055 98.4521C80.9901 98.4018 80.8747 98.3498 80.7592 98.2978C79.728 97.8311 79.1565 96.8955 78.3577 96.025C77.6013 95.2007 76.9027 92.5798 76.9027 92.5798L74.3833 92.0136C74.3833 92.0136 75.0672 94.3731 75.3024 95.3787C75.4415 95.9708 75.219 96.6288 75.0243 97.1294C74.9067 97.3997 74.8258 97.6845 74.7838 97.9763Z" fill="#FFB27D"/>
<path d="M77.2206 99.1153C78.5758 99.1987 78.1631 99.4707 80.0176 99.8273C81.872 100.184 82.6224 99.6832 82.7595 99.4335C82.8816 99.211 82.0214 98.8544 81.105 98.4509L81.0905 98.4665C80.1697 98.7217 79.1969 98.7229 78.2755 98.4698C77.0498 98.1227 75.869 97.3755 75.0247 97.1291C74.9067 97.3994 74.8255 97.6843 74.7832 97.9762C74.6976 98.8172 75.8659 99.0333 77.2206 99.1153Z" fill="#434343"/>
<path d="M70.9294 68.7874C69.7516 67.9605 66.2093 67.3192 62.2994 66.8434C61.7712 66.7787 61.275 66.5554 60.8764 66.2028C60.4778 65.8503 60.1955 65.3851 60.0667 64.8688L50.9725 61.2561C50.9725 61.2561 46.6671 67.6332 46.634 72.5118C46.6181 74.7865 47.6657 75.0126 47.666 75.0129C47.6663 75.0131 63.8799 75.133 64.5921 75.2075C65.7555 75.3274 67.2898 78.2259 67.6736 80.8657C68.0574 83.5055 74.8188 94.2428 74.8188 94.2428C74.8188 94.2428 76.2288 94.6947 76.881 94.6564C77.2412 94.6555 77.595 94.5603 77.9069 94.3802C77.9069 94.3802 73.9867 70.9341 70.9294 68.7874Z" fill="#434343"/>
<path d="M58.7593 34.7613C57.5095 34.105 55.6078 34.0162 55.2988 33.9748C51.6019 33.4781 49.3767 38.8501 49.2457 40.4779C49.0046 43.4784 47.4174 43.9356 45.1831 45.8148C40.7036 49.5826 42.0171 53.9607 44.4667 55.5873C45.9362 56.5635 48.5271 55.5873 48.5271 55.5873C48.5638 55.6129 55.6117 51.6473 59.0861 49.7345C64.2943 48.9936 61.9443 36.4336 58.7593 34.7613Z" fill="#292A2C"/>
<path d="M57.9885 47.8861C58.0047 47.8944 56.346 48.6489 55.1482 48.2532C54.0216 47.8819 53.0293 46.186 53.0451 46.1835C53.534 46.1126 54.0313 45.6303 54.1698 42.7719L54.3864 42.8275L58.0272 43.7478C58.0272 43.7478 57.8831 44.9011 57.8239 45.9916C57.7735 46.906 57.7838 47.7773 57.9885 47.8861Z" fill="#FFB27D"/>
<path d="M58.0271 43.7463C58.0271 43.7463 58.0271 43.9836 57.8911 45.0568C55.8331 44.5376 54.9242 43.8548 54.2837 43.0733L58.0271 43.7463Z" fill="#ED975D"/>
<path d="M58.8031 43.8918C58.8031 43.8918 53.9887 44.6755 53.5468 41.67C53.1048 38.6645 52.1857 36.7413 55.2407 36.1136C58.2958 35.4859 59.0631 36.545 59.4547 37.5122C59.8463 38.4795 60.0448 43.6107 58.8031 43.8918Z" fill="#FFB27D"/>
<path d="M58.8085 35.9878C58.8085 35.9878 56.622 39.4389 54.6705 40.2563C52.719 41.0736 51.7598 40.6587 51.7598 40.6587C52.3453 39.6953 52.7263 38.6217 52.8791 37.5047C52.9117 37.2429 53.0136 36.9946 53.1743 36.7855C53.335 36.5764 53.5487 36.414 53.7933 36.3152C55.1938 35.7542 57.9029 34.8698 58.8085 35.9878Z" fill="#292A2C"/>
<path d="M56.8892 36.3213C56.8892 36.3213 58.1707 36.9782 58.6985 37.5939C59.2078 38.1882 59.796 39.8004 59.7554 40.5244C59.7554 40.5244 60.3875 37.0544 59.0709 35.8616C57.672 34.597 56.8892 36.3213 56.8892 36.3213Z" fill="#292A2C"/>
<path d="M61.8382 55.2289C61.6922 65.015 61.7982 62.9701 60.7277 63.8987C60.4696 64.1212 59.7446 64.2555 58.7901 64.3187C55.7896 64.5178 50.5147 64.0236 50.3139 63.469C49.6217 61.5501 50.1103 60.9541 49.5329 58.0164C49.4729 57.7041 49.3983 57.3659 49.3104 56.9974C48.829 54.9797 48.3604 54.2933 50.0686 51.0517C51.6176 48.1154 53.4393 45.7303 53.5842 45.8162C57.6724 48.2422 57.8115 46.2087 57.8115 46.2087C57.8115 46.2087 61.9111 50.4554 61.8382 55.2289Z" fill="#00EAA2"/>
<path d="M57.813 46.2087C57.813 46.2087 61.9958 46.9176 62.4894 48.7284C62.983 50.5391 65.8893 61.1833 65.8893 61.1833C65.8893 61.1833 63.7515 61.5673 62.7639 60.5798C61.7763 59.5922 59.3273 51.4169 59.3273 51.4169L57.813 46.2087Z" fill="#00EAA2"/>
<path d="M58.7919 64.3188C55.791 64.5179 50.5164 64.0237 50.3156 63.4691C49.6234 61.5502 50.112 60.9542 49.5347 58.0165L50.9809 53.9411C50.9809 53.9411 50.7417 58.4793 52.0799 59.6732C53.4182 60.8671 57.5587 61.9773 58.2103 62.9749C58.493 63.379 58.6908 63.8361 58.7919 64.3188Z" fill="#009B6B"/>
<path d="M55.354 62.4098C55.354 62.4098 58.3145 61.7507 58.792 62.0135C59.2695 62.2763 60.437 63.233 60.5833 63.5659C60.7296 63.8988 59.5198 63.3131 59.1266 63.2077C58.8718 63.1393 58.201 63.3723 57.8689 63.4833C56.4717 63.9491 55.6163 63.7094 55.6163 63.7094L55.354 62.4098Z" fill="#FFB27D"/>
<path d="M53.5859 45.8163C53.5859 45.8163 49.3962 46.0611 48.0201 47.9806C46.0831 50.6822 42.2404 62.1962 44.4425 63.7319C46.9227 65.4612 55.7299 64.1844 55.7299 64.1844C55.7299 64.1844 56.023 62.8144 55.6153 62.1517C55.2076 61.489 48.5808 60.4185 48.2749 60.1126C47.9689 59.8067 52.098 54.1485 52.098 53.2308C52.098 52.313 53.5859 45.8163 53.5859 45.8163Z" fill="#00EAA2"/>
<path d="M58.9351 62.8376C58.9351 62.8376 59.5555 63.6377 59.7588 63.7331C59.8609 63.7884 59.9768 63.8132 60.0926 63.8046L59.6754 63.0522L58.9351 62.8376Z" fill="#FFB27D"/>
<path d="M58.792 62.0135L60.5955 62.8893C60.5602 62.933 60.514 62.9666 60.4616 62.9868C60.4092 63.0071 60.3524 63.0133 60.2969 63.0047C60.0299 62.9579 59.7679 62.8859 59.5145 62.7897L58.792 62.0135Z" fill="#FFB27D"/>
<path d="M65.4363 64.0901H57.0596C57.0596 63.9131 57.1299 63.7433 57.2551 63.6181C57.3803 63.4929 57.55 63.4226 57.727 63.4226H65.4363V64.0901Z" fill="#545454"/>
<path d="M65.4116 54.9676H78.3613L75.2551 64.0896H62.2217L65.4116 54.9676Z" fill="#545454"/>
<path d="M78.5517 54.9672L75.4458 64.0892H62.4121L65.6023 54.9672H78.5517Z" fill="#656565"/>
<path d="M71.5701 59.444C71.5251 59.6185 71.4254 59.7739 71.2856 59.8875C71.1458 60.0011 70.9732 60.0668 70.7933 60.0751C70.7152 60.0786 70.6375 60.0632 70.5667 60.0303C70.4958 59.9973 70.434 59.9478 70.3864 59.8859C70.3388 59.824 70.3068 59.7515 70.2931 59.6745C70.2795 59.5976 70.2846 59.5186 70.308 59.444C70.3529 59.2696 70.4526 59.1141 70.5924 59.0006C70.7323 58.887 70.9048 58.8213 71.0848 58.813C71.1628 58.8095 71.2405 58.8249 71.3114 58.8578C71.3822 58.8907 71.4441 58.9403 71.4917 59.0022C71.5393 59.0641 71.5713 59.1366 71.5849 59.2135C71.5986 59.2904 71.5935 59.3695 71.5701 59.444Z" fill="white"/>
<path d="M110.32 64.0895H54.7587C54.1919 64.0895 53.7324 64.5489 53.7324 65.1156C53.7324 65.6823 54.1919 66.1417 54.7587 66.1417H110.32C110.887 66.1417 111.346 65.6823 111.346 65.1156C111.346 64.5489 110.887 64.0895 110.32 64.0895Z" fill="#212121"/>
<path d="M112.303 99.9477L112.327 99.9447C112.396 99.9371 112.462 99.9161 112.522 99.8828C112.582 99.8495 112.635 99.8047 112.678 99.7508C112.721 99.697 112.753 99.6352 112.771 99.569C112.79 99.5029 112.796 99.4336 112.787 99.3654L107.73 65.1335L105.879 65.1867L111.829 99.6034C111.849 99.7107 111.909 99.8062 111.997 99.8703C112.086 99.9344 112.195 99.9621 112.303 99.9477Z" fill="#212121"/>
<path d="M52.2637 99.9478L52.2392 99.9447C52.1709 99.9371 52.1048 99.916 52.0446 99.8827C51.9845 99.8494 51.9315 99.8046 51.8888 99.7507C51.8461 99.6969 51.8144 99.6351 51.7957 99.569C51.7769 99.5028 51.7714 99.4337 51.7795 99.3654L56.8367 65.1336L58.6881 65.1867L52.7379 99.6034C52.718 99.7107 52.6577 99.8062 52.5695 99.8702C52.4813 99.9343 52.3718 99.962 52.2637 99.9478Z" fill="#212121"/>
<path d="M63.9709 99.9477L63.9468 99.9447C63.8784 99.9371 63.8123 99.916 63.7522 99.8827C63.692 99.8494 63.6391 99.8046 63.5963 99.7507C63.5536 99.6969 63.5219 99.6351 63.5032 99.569C63.4844 99.5028 63.4789 99.4336 63.487 99.3654L68.5442 65.1336L70.3956 65.1867L64.4454 99.6034C64.4255 99.7107 64.3652 99.8063 64.2769 99.8703C64.1886 99.9344 64.0791 99.9621 63.9709 99.9477Z" fill="#212121"/>
<path d="M93.8062 99.9201H103.841C104.324 99.3311 104.147 97.1576 104.073 96.4479C104.058 96.3049 104.048 96.2218 104.048 96.2218C104.048 96.2218 100.621 93.4807 100.15 95.5796C100.136 95.6456 100.118 95.7098 100.099 95.7743C99.5063 97.7375 96.8454 98.6297 95.3102 98.878C94.3118 99.0391 93.9427 99.558 93.8062 99.9201Z" fill="#7C7C7C"/>
<path d="M121.188 67.3122C120.827 67.3122 103.999 70.4718 101.215 73.9171C99.8248 75.6383 99.6182 95.5165 99.6182 95.5165C99.6182 95.5165 101.339 97.6494 105.054 96.4109C105.054 96.4109 107.778 82.8113 107.577 78.6856C107.521 77.5453 119.074 78.5206 121.188 77.9733C123.303 77.426 128.469 72.8263 127.331 70.5853C126.193 68.3443 121.188 67.3122 121.188 67.3122Z" fill="#212121"/>
<path d="M101.288 62.4447C101.288 62.4447 97.8934 62.4905 97.0907 62.834C96.2881 63.1775 94.6595 63.9679 95.0953 64.0889C95.5311 64.2098 97.6102 64.0388 98.0597 64.1078C98.4859 64.1375 98.9138 64.1312 99.339 64.0889H100.898L101.288 62.4447Z" fill="#FFB27D"/>
<path d="M97.3195 54.2988C97.3195 54.2988 96.1623 53.472 95.039 53.3113C94.4834 53.2451 93.9345 53.1319 93.3981 52.9728C92.3611 52.6074 90.2866 50.7421 90.4435 50.5232C90.9466 49.8218 93.3689 51.3061 93.7917 51.1467C94.2144 50.9874 92.979 50.1088 93.4087 49.8001C93.6331 49.6388 94.1582 50.4476 94.5873 50.5288C95.168 50.6386 95.6219 51.4585 95.7966 51.5022C96.1367 51.5856 97.6271 52.6939 97.6271 52.6939L97.3195 54.2988Z" fill="#FFB27D"/>
<path d="M119.512 44.6417C119.512 44.6417 116.929 45.4424 114.383 52.4527C111.837 59.463 110.87 59.8416 109.945 60.1166C109.019 60.3917 100.897 62.0078 100.897 62.0078V64.0883H113.412C113.412 64.0883 118.105 59.6241 119.512 56.6188C120.919 53.6136 119.512 44.6417 119.512 44.6417Z" fill="#CE7D4B"/>
<path d="M89.3711 99.9201H99.4056C99.8881 99.3311 99.7115 97.1576 99.6373 96.4479C99.6222 96.3049 99.612 96.2218 99.612 96.2218C99.612 96.2218 96.1851 93.4807 95.7142 95.5796C95.7001 95.6456 95.6825 95.7098 95.6633 95.7743C95.0704 97.7375 92.4095 98.6297 90.8743 98.878C89.8767 99.0391 89.5076 99.558 89.3711 99.9201Z" fill="#7C7C7C"/>
<path d="M116.23 67.3122C115.868 67.3122 99.0402 70.4718 96.2569 73.9171C94.8663 75.6383 94.6597 95.5165 94.6597 95.5165C94.6597 95.5165 96.3798 97.6494 100.095 96.4109C100.095 96.4109 102.819 82.8113 102.618 78.6856C102.562 77.5453 114.115 78.5206 116.23 77.9733C118.344 77.426 123.511 72.8263 122.373 70.5853C121.234 68.3443 116.23 67.3122 116.23 67.3122Z" fill="#434343"/>
<path d="M117.283 46.8633C118.501 46.7385 119.701 46.4773 120.86 46.0846C122.231 45.6396 123.335 44.9894 122.624 43.7359C121.968 42.5809 120.905 40.0003 120.977 37.8628L118.425 39.9191L116.692 41.3158C116.716 42.0743 116.782 42.8308 116.889 43.5821C116.923 43.8452 116.964 44.1287 117.012 44.4326C117.03 44.5526 117.013 44.6755 116.963 44.7859C116.912 44.8963 116.83 44.9893 116.727 45.0533L116.687 45.0778C116.503 45.193 116.363 45.3668 116.289 45.5713C116.216 45.7757 116.213 45.999 116.282 46.2051C116.351 46.4112 116.487 46.5882 116.669 46.7076C116.85 46.8269 117.067 46.8818 117.283 46.8633Z" fill="#FFB27D"/>
<path d="M116.692 40.9762C116.692 40.9762 116.603 41.2752 116.756 42.3793C118.301 42.1273 119.746 40.8947 119.746 40.8947C118.959 40.6786 118.673 39.8287 118.087 39.908L116.692 40.9762Z" fill="#ED975D"/>
<path d="M115.263 41.2277C115.263 41.2277 121.207 42.2152 121.765 38.5041C122.323 34.793 123.466 32.4213 119.694 31.6348C115.923 30.8483 114.971 32.1523 114.483 33.3457C113.996 34.5391 113.731 40.8753 115.263 41.2277Z" fill="#FFB27D"/>
<path d="M113.609 31.7029C113.353 32.5964 114.036 33.685 115.183 34.0432C116.885 34.5752 116.509 36.663 117.275 36.6346C118.041 36.6062 118.35 35.4346 119.034 36.3707C119.618 37.1691 118.549 38.1161 118.622 38.5538C118.748 39.3047 119.926 40.8438 120.986 40.7665C122.046 40.6892 124.033 35.6459 123.636 34.0854C123.238 32.525 121.65 30.8797 120.146 30.6527C118.643 30.4258 116.555 31.0749 116.072 31.0749C115.59 31.0749 113.748 31.2201 113.609 31.7029Z" fill="#292A2C"/>
<path d="M127.41 49.792C126.551 46.3343 124.177 42.706 122.571 42.7091C119.835 42.7144 115.903 43.4363 114.315 47.3535C113.145 50.2386 111.585 66.8343 113.348 68.0146C117.378 70.7123 126.721 76.2206 128.38 70.6039C129.901 65.4571 128.901 55.7936 127.41 49.792Z" fill="#FFBE5E"/>
<path d="M120.766 46.3515C120.584 45.8791 120.295 45.4557 119.921 45.1153C119.546 44.7748 119.097 44.5268 118.61 44.391C118.123 44.2552 117.61 44.2355 117.114 44.3334C116.617 44.4313 116.151 44.6442 115.751 44.9548C114.524 45.9363 113.374 47.0107 112.312 48.1684C107.206 53.6052 106.169 53.5715 105.21 53.4592C104.251 53.3468 96.1496 51.6275 96.1496 51.6275C95.8753 51.8443 95.6505 52.1174 95.4905 52.4282C95.2957 52.764 95.2377 53.1619 95.3286 53.5393C95.0113 53.334 98.2004 55.5325 99.7876 56.4091C101.884 57.5666 105.044 58.6518 106.301 59.064C106.657 59.1807 107.042 59.1749 107.395 59.0476C109.262 58.3745 115.533 55.9219 120.638 51.6662C121.984 50.5446 121.489 48.2338 120.766 46.3515Z" fill="#FFBE5E"/>
<path d="M122.846 42.7423L122.227 41.347C122.227 41.347 116.682 41.7992 115.75 44.9547C115.751 44.9547 120.049 42.8088 122.846 42.7423Z" fill="white"/>
<path d="M136.307 99.7953H136.346C136.418 99.7962 136.489 99.7822 136.555 99.7542C136.622 99.7261 136.681 99.6847 136.731 99.6324C136.78 99.5801 136.818 99.5182 136.842 99.4505C136.866 99.3828 136.876 99.3108 136.871 99.239L134.783 78.3807L132.96 78.5434L135.959 99.513C135.973 99.5943 136.016 99.6679 136.08 99.7199C136.144 99.7718 136.225 99.7986 136.307 99.7953Z" fill="#656565"/>
<path d="M125.558 99.7953H125.596C125.668 99.7962 125.74 99.7822 125.806 99.7542C125.872 99.7262 125.932 99.6847 125.981 99.6324C126.03 99.5802 126.068 99.5182 126.093 99.4505C126.117 99.3828 126.127 99.3108 126.122 99.2391L124.033 78.3808L122.211 78.5435L125.21 99.513C125.223 99.5944 125.266 99.668 125.33 99.7199C125.395 99.7719 125.475 99.7987 125.558 99.7953Z" fill="#656565"/>
<path d="M105.377 99.7953H105.339C105.267 99.7962 105.195 99.7822 105.129 99.7542C105.063 99.7261 105.003 99.6847 104.954 99.6324C104.905 99.5801 104.867 99.5182 104.842 99.4505C104.818 99.3828 104.808 99.3108 104.813 99.239L106.902 78.3807L108.724 78.5434L105.725 99.513C105.711 99.5943 105.668 99.6678 105.604 99.7198C105.54 99.7717 105.459 99.7986 105.377 99.7953Z" fill="#656565"/>
<path d="M135.718 75.4261L137.7 58.0055C137.96 55.495 137.12 53.0368 133.497 52.8466L127.124 52.4572C123.346 52.3015 121.641 55.4453 121.163 57.8654L117.38 77.015L135.718 75.4261Z" fill="#656565"/>
<path d="M107.001 75.3468H135.686V77.0155C135.686 77.458 135.51 77.8825 135.197 78.1954C134.884 78.5083 134.46 78.6841 134.017 78.6841H107.001C106.559 78.6841 106.134 78.5083 105.821 78.1954C105.508 77.8825 105.333 77.458 105.333 77.0155V77.0155C105.333 76.5729 105.508 76.1485 105.821 75.8355C106.134 75.5226 106.559 75.3468 107.001 75.3468V75.3468Z" fill="#434343"/>
<path d="M119.048 75.3468H135.686V77.0155C135.686 77.458 135.51 77.8825 135.197 78.1954C134.884 78.5083 134.46 78.6841 134.017 78.6841H119.048C118.605 78.6841 118.181 78.5083 117.868 78.1954C117.555 77.8825 117.379 77.458 117.379 77.0155V77.0155C117.379 76.5729 117.555 76.1485 117.868 75.8355C118.181 75.5226 118.605 75.3468 119.048 75.3468V75.3468Z" fill="#656565"/>
</svg>
