<svg width="24" height="23" viewBox="0 0 24 23" fill="none" xmlns="http://www.w3.org/2000/svg">
<path d="M12.9465 0.6875C10.8815 0.6875 9.18738 2.38161 9.18738 4.44666C9.18738 6.5117 10.8815 8.20581 12.9465 8.20581C15.0116 8.20581 16.7057 6.5117 16.7057 4.44666C16.7057 2.38199 15.0122 0.6875 12.9465 0.6875ZM3.78943 0.714966L3.33533 2.53503L7.08533 3.47253L7.53943 1.65247L3.78943 0.714966ZM22.0853 0.714966L18.3353 1.65247L18.7894 3.47253L22.5394 2.53503L22.0853 0.714966ZM12.9465 2.5625C13.999 2.5625 14.8307 3.39507 14.8307 4.44666C14.8307 5.49786 13.9977 6.33081 12.9465 6.33081C11.8953 6.33081 11.0624 5.49786 11.0624 4.44666C11.0624 3.39545 11.8953 2.5625 12.9465 2.5625ZM7.08533 5.40247L3.33533 6.33997L3.78943 8.16003L7.53943 7.22253L7.08533 5.40247ZM18.7894 5.40247L18.3353 7.22253L22.0853 8.16003L22.5394 6.33997L18.7894 5.40247ZM7.73718 11C4.73977 11 0.77002 12.6498 0.77002 12.6498L1.46033 14.3929C1.46033 14.3929 5.49585 12.875 7.73718 12.875C8.64359 12.875 10.1928 13.4234 11.4561 14.0688C12.0877 14.3916 12.6588 14.7327 13.0765 15.01C13.2854 15.1487 13.4571 15.2722 13.5691 15.3616C13.5954 15.3825 13.6058 15.3965 13.6259 15.4165C13.6565 15.4448 13.6874 15.4725 13.7119 15.5044L13.7742 15.5996C13.8929 15.8228 13.8884 16.0956 13.7284 16.3247C13.5463 16.5836 13.2252 16.6838 12.9264 16.5829L8.8468 14.642L8.04114 16.3339L12.2526 18.337L12.2983 18.3535C13.1609 18.6558 14.0367 18.3637 14.7208 17.8024H14.9827L15.261 17.4069L15.2628 17.4032C15.6362 16.8716 15.7669 16.2429 15.6986 15.6381L20.1737 14.9075H20.1755C20.6729 14.8247 21.1427 15.1077 21.3016 15.585C21.47 16.0907 21.2397 16.616 20.7542 16.8301C19.3805 17.4353 17.1453 18.3402 15.1603 19.0859C14.1678 19.4588 13.236 19.7927 12.5107 20.0289C12.1481 20.147 11.8351 20.2398 11.6044 20.2999C11.3736 20.3601 11.1798 20.375 11.2748 20.375C11.3337 20.375 10.9434 20.2854 10.5021 20.0472C10.0607 19.8091 9.51976 19.4674 8.96582 19.1152C8.41188 18.7631 7.84374 18.4017 7.29773 18.1118C6.75172 17.822 6.26737 17.5625 5.604 17.5625C4.07032 17.5625 2.70178 18.1558 2.70178 18.1558L3.41589 19.8898C3.41589 19.8898 4.58206 19.4375 5.604 19.4375C5.57955 19.4375 5.97146 19.5296 6.41882 19.7671C6.86618 20.0046 7.40838 20.3463 7.96057 20.6973C8.51277 21.0483 9.07451 21.4097 9.61035 21.6989C10.1462 21.988 10.6093 22.25 11.2748 22.25C11.5948 22.25 11.7895 22.1899 12.0786 22.1145C12.3677 22.0391 12.7064 21.9359 13.0912 21.8105C13.8608 21.5599 14.8103 21.2192 15.8195 20.8401C17.8378 20.0818 20.0818 19.1752 21.5104 18.5458C22.4641 18.1252 22.8997 17.2066 23.021 16.2258H23.4916L23.0814 14.9935C22.6351 13.6533 21.2648 12.828 19.8716 13.0581H19.8679L14.7391 13.8949C14.7234 13.8823 14.6987 13.8673 14.6824 13.8546C14.6626 13.84 14.6478 13.8212 14.6274 13.807L14.3528 13.6129L14.351 13.6166C14.2691 13.5594 14.2065 13.509 14.1147 13.4481C13.6292 13.1257 13.0061 12.755 12.3093 12.3989C10.9157 11.6869 9.27578 11 7.73718 11Z" fill="black"/>
</svg>
