<svg width="22" height="22" viewBox="0 0 22 22" fill="none" xmlns="http://www.w3.org/2000/svg">
<path d="M9.89539 0C7.27363 0.00814256 4.76173 0.991383 2.90786 2.73515C1.05398 4.47891 0.00865671 6.84163 0 9.30767C0 11.1388 0.755559 12.6726 1.4336 14.0417C2.11164 15.4109 2.69862 16.61 2.69862 17.8496V22H4.49781V17.8486C4.49781 16.1267 3.73514 14.6856 3.06421 13.3272C2.39328 11.9689 1.79919 10.6924 1.79919 9.30767C1.80681 7.43712 2.54358 5.63417 3.86989 4.24039C5.19621 2.84661 7.01996 1.95881 8.99562 1.74519V7.74747C8.1483 7.9506 7.40918 8.43812 6.91745 9.11822C6.42573 9.79832 6.21534 10.6241 6.3259 11.4399C6.43647 12.2558 6.86036 13.0055 7.51775 13.5478C8.17514 14.0901 9.02065 14.3877 9.89505 14.3843C10.573 14.3841 11.2365 14.2006 11.8066 13.8555L13.4934 14.9381C13.5196 15.1832 13.6209 15.4159 13.7849 15.6081C13.9489 15.8002 14.1686 15.9435 14.4174 16.0205C14.6662 16.0975 14.9334 16.105 15.1867 16.042C15.4399 15.9791 15.6683 15.8484 15.8442 15.6658C16.0201 15.4832 16.1358 15.2565 16.1775 15.0133C16.2192 14.77 16.1849 14.5206 16.0789 14.2953C15.9729 14.07 15.7997 13.8784 15.5803 13.7439C15.3609 13.6093 15.1047 13.5374 14.8427 13.5371C14.7484 13.5373 14.6543 13.5462 14.5618 13.5635L13.0439 12.5866C13.3331 12.1017 13.4878 11.556 13.4938 11C13.4902 10.2534 13.2233 9.52902 12.7349 8.94045C12.2465 8.35189 11.5643 7.93241 10.7952 7.74779V1.7194C13.6414 1.93751 15.2754 3.18025 16.277 4.41662C16.9337 5.21402 17.4031 6.13331 17.6544 7.11384L17.6825 7.21956L17.738 7.32336L20.1279 11.8447C20.1724 11.9358 20.1917 12.0358 20.1841 12.1358H20.1279C19.6466 12.2876 18.6662 12.5589 18.6662 12.5589L17.9916 12.7181V15.23C17.9191 15.8799 17.6114 16.4867 17.1202 16.9487C16.6289 17.4108 15.9839 17.7001 15.293 17.7684H13.4938V22H15.293V19.4613C16.4684 19.4104 17.5813 18.9484 18.4134 18.1657C19.2454 17.3831 19.7367 16.3363 19.7908 15.2307V13.9889C20.0954 13.9061 20.3002 13.8797 20.634 13.7775C20.6621 13.7708 20.6902 13.7577 20.7183 13.751V13.7233C20.999 13.6417 21.255 13.4984 21.4652 13.3053C21.6754 13.1122 21.8337 12.8748 21.9271 12.6127C22.0599 12.1361 22.0102 11.6306 21.7866 11.185V11.1586L21.7586 11.1321L19.369 6.61076L19.3409 6.55791C19.0312 5.40239 18.466 4.32125 17.6822 3.38498C16.3163 1.69902 13.8485 0 9.89539 0ZM9.89539 9.30767C10.2512 9.30767 10.5991 9.40692 10.895 9.59288C11.1908 9.77883 11.4215 10.0431 11.5576 10.3524C11.6938 10.6616 11.7294 11.0019 11.66 11.3302C11.5906 11.6584 11.4192 11.96 11.1676 12.1967C10.916 12.4333 10.5954 12.5945 10.2464 12.6598C9.89739 12.7251 9.53563 12.6916 9.20687 12.5635C8.87811 12.4354 8.59711 12.2185 8.39942 11.9402C8.20172 11.6619 8.0962 11.3347 8.0962 11C8.0943 10.7773 8.13955 10.5564 8.22929 10.3503C8.31904 10.1441 8.4515 9.95687 8.61895 9.79937C8.7864 9.64187 8.98549 9.51728 9.20463 9.43286C9.42378 9.34844 9.65859 9.30589 9.89539 9.30767Z" fill="black"/>
</svg>
