<svg xmlns="http://www.w3.org/2000/svg" width="113.091" height="11.993" viewBox="0 0 113.091 11.993">
  <g id="Group_3217" data-name="Group 3217" transform="translate(-46 -34)">
    <g id="Group_2955" data-name="Group 2955" transform="translate(46 34)">
      <g id="Group_2954" data-name="Group 2954">
        <path id="Path_3691" data-name="Path 3691" d="M14.173,140.974V128.981H26.166v11.993h-2.4v-9.6h-2.4v9.6h-2.4v-9.6h-2.4v9.6Z" transform="translate(-14.173 -128.981)" fill="#fff"/>
        <path id="Path_3692" data-name="Path 3692" d="M30.849,136.176v2.4h9.6v2.4H28.452V128.981H40.445v2.4h-9.6v2.4h9.6v2.4Z" transform="translate(-8.303 -128.981)" fill="#fff"/>
        <path id="Path_3693" data-name="Path 3693" d="M42.73,128.981H54.723v2.4h-4.8v9.6h-2.4v-9.6h-4.8Z" transform="translate(-2.433 -128.981)" fill="#fff"/>
        <path id="Path_3694" data-name="Path 3694" d="M63.005,140.974v-2.4h2.323l-2.323-6-3.261,8.4H57.008l4.8-11.993h2.4L69,140.974Z" transform="translate(3.437 -128.981)" fill="#fff"/>
        <path id="Path_5497" data-name="Path 5497" d="M14.173,140.974V128.981H26.166v11.993h-2.4v-9.6h-2.4v9.6h-2.4v-9.6h-2.4v9.6Z" transform="translate(-14.173 -128.981)" fill="#fff"/>
      </g>
    </g>
    <path id="Path_3695" data-name="Path 3695" d="M83.407,128.981v11.993H71.413V128.981h2.4v9.595h7.2v-9.595Z" transform="translate(55.359 -94.981)" fill="#fff"/>
    <path id="Path_3696" data-name="Path 3696" d="M85.818,128.981v11.993h2.4v-4.8h9.6v-7.2Zm9.594,4.8h-7.2v-2.4h7.2Z" transform="translate(61.28 -94.981)" fill="#fff"/>
  </g>
</svg>
