<svg xmlns="http://www.w3.org/2000/svg" width="113.91" height="37.037" viewBox="0 0 113.91 37.037">
  <g id="Group_3008" data-name="Group 3008" transform="translate(-575.064 -628.02)">
    <path id="패스_3697" data-name="패스 3697" d="M630.837,665.057a.455.455,0,0,1-.254-.074.824.824,0,0,1-.3-.9l4.426-16.8h-4.455a.565.565,0,0,1-.487-.33.9.9,0,0,1-.053-.693l5.853-17.778a.6.6,0,0,1,.539-.459h5.56a.677.677,0,0,1,.585.741.889.889,0,0,1-.05.3l-4.607,13.033h4.365a.582.582,0,0,1,.514.387.905.905,0,0,1-.026.758l-11.119,21.481A.563.563,0,0,1,630.837,665.057Z" transform="translate(-4.723)" fill="#ffdb14"/>
    <path id="Path_3697" data-name="Path 3697" d="M583.672,644.871a18.605,18.605,0,0,0,1.3-1.874,5.006,5.006,0,0,0,.38-2.39v-4.643h3.395v4.643a5.217,5.217,0,0,0,.434,2.39,27.38,27.38,0,0,0,2.96,4.1l-2.226,2.2a28.911,28.911,0,0,1-2.77-3.828,3.224,3.224,0,0,1-.217-.543,2.531,2.531,0,0,1-.244.543,25.826,25.826,0,0,1-3.015,3.774,26.378,26.378,0,0,1-3.068-3.774,2.482,2.482,0,0,1-.245-.543,1.666,1.666,0,0,1-.191.515,25.362,25.362,0,0,1-2.714,4.236l-2.391-2.118A29.2,29.2,0,0,0,578.133,643a4.86,4.86,0,0,0,.461-2.39v-4.643h3.395v4.643A4.676,4.676,0,0,0,582.4,643,14.557,14.557,0,0,0,583.672,644.871ZM596.9,655.841v2.988H581.961a2.358,2.358,0,0,1-2.064-.816l-.679-.733a2.57,2.57,0,0,1-.733-2.226v-4.372h3.421v3.937a.74.74,0,0,0,.217.6l.38.461a.81.81,0,0,0,.544.163Zm-.461-20.609v17.242h-3.448V642.265h-2.961v-3.015h2.961v-4.018Z" transform="translate(0 -0.624)" fill="#fff"/>
    <path id="Path_3698" data-name="Path 3698" d="M616.808,653.642v3.014h-8.5a2.643,2.643,0,0,1-2.445-1l-1.33-1.465a2.907,2.907,0,0,1-.869-2.5V636.862c0-.679.3-1.006.95-1.006h10.807v2.988h-8.227v12.842a1.011,1.011,0,0,0,.326.761l.787.9a.744.744,0,0,0,.651.3Zm6.543-18.41V658.5h-3.476V647.18h-6.137v-3.015h6.137v-8.933Z" transform="translate(-2.474 -0.624)" fill="#fff"/>
    <path id="Path_3699" data-name="Path 3699" d="M669.2,654.4v3.041h-20.99V654.4Zm-1.032-5.05H653.427a2.432,2.432,0,0,1-2.2-.977l-1.221-1.3a2.634,2.634,0,0,1-.9-2.335V636.89a.9.9,0,0,1,1-1h17.948v3.041H652.64v5.4a1.039,1.039,0,0,0,.271.787l.9.9c.216.19.3.3.6.3h13.767Z" transform="translate(-6.328 -0.681)" fill="#fff"/>
    <path id="Path_3700" data-name="Path 3700" d="M678.746,643.052v1.113a.54.54,0,0,0,.19.489l.271.272a.46.46,0,0,0,.408.19h8.8v2.9h-9.774a2.343,2.343,0,0,1-2.009-.787l-.626-.652a2.419,2.419,0,0,1-.705-2.036v-3.312c0-.625.325-.95,1-.95h6.978c.3,0,.407-.19.407-.462v-1.494h-8.336v-2.9h10.807c.679,0,.977.326.977,1v4.345a2.124,2.124,0,0,1-2.227,2.28Zm1.44,8.254h10.861v-1.655H694.5v8.2c0,.625-.38.95-1.031.95H680.24a2.344,2.344,0,0,1-2.091-.787l-.679-.679a2.127,2.127,0,0,1-.76-1.927v-5.756h3.476Zm10.861,4.589v-1.71H680.186V655a.541.541,0,0,0,.19.435l.27.3a.623.623,0,0,0,.435.162Zm3.448-20.663v4.942h3.15v2.96H694.5v5.295h-3.476v-13.2Z" transform="translate(-8.67 -0.624)" fill="#fff"/>
  </g>
</svg>
