<svg xmlns="http://www.w3.org/2000/svg" width="121.864" height="34.037" viewBox="0 0 121.864 34.037">
  <g id="Group_3010" data-name="Group 3010" transform="translate(-824 -523.367)">
    <g id="Group_58" data-name="Group 58" transform="translate(869.099 527.071)">
      <path id="Path_70" data-name="Path 70" d="M-794.936,1437.778V1423.7h-3.016v9.58c0,1.528-.673,2.2-2.2,2.2h-9.136V1413.3c0-1.235.528-1.763,1.757-1.763h9.574V1421h3.016v-9.786h2.9v26.566Zm-5.914-23.6h-5.534v18.661h5.534Zm11.447,23.6v-26.566h2.928v26.566Z" transform="translate(809.283 -1411.124)" fill="#fff"/>
      <path id="Path_71" data-name="Path 71" d="M-777.836,1435.191V1413.3c0-1.235.528-1.763,1.757-1.763h13.79v2.645h-12.619v18.367h14.083v2.645Zm18.914,2.587v-26.566h2.928v26.566Z" transform="translate(804.595 -1411.124)" fill="#fff"/>
      <path id="Path_72" data-name="Path 72" d="M-746.342,1437.851v-7.818c0-1.234.527-1.763,1.756-1.763h7.408V1425.6h-10.863v-2.645h24.653v2.645H-734.25v2.674h9.164v7.377c0,1.528-.673,2.2-2.2,2.2Zm5.066-16.633c-3.514,0-5.592-1.823-5.592-5.055s2.079-5.055,5.592-5.055h11.125c3.513,0,5.592,1.911,5.592,5.055s-2.079,5.055-5.592,5.055Zm.38-7.465c-2.05,0-3.045.941-3.045,2.41s.995,2.411,3.045,2.411h10.364c2.05,0,3.046-.941,3.046-2.411s-1-2.41-3.046-2.41Zm12.882,17.163h-15.4v4.29h15.4Z" transform="translate(800.153 -1411.108)" fill="#fff"/>
    </g>
    <g id="Group_59" data-name="Group 59" transform="translate(824 523.367)">
      <path id="Path_126" data-name="Path 126" d="M-857.919,243.955h6.692l-10.281,10.321a2.857,2.857,0,0,1-4.051,0l-14.145-14.2a2.885,2.885,0,0,1,0-4.067l4.374-4.391h5.305l-4.3,12.337h2.16a2.356,2.356,0,0,0,1.937-.811l6.56-7.96-2.612,6.787a2.33,2.33,0,0,0-.195.9c0,.719.407,1.122,1.215,1.214a2.521,2.521,0,0,0,.4.035,2.479,2.479,0,0,0,1.862-.949l5.282-5.815-1.77,4.619a2.831,2.831,0,0,0-.223.949Q-859.707,243.955-857.919,243.955Z" transform="translate(880.543 -221.082)" fill="#5bd8fd"/>
      <path id="Path_127" data-name="Path 127" d="M-841.38,232.209l-2.171,2.171h-6.425l2.548-6.741a2.824,2.824,0,0,0,.219-1.012,1.368,1.368,0,0,0-.644-1.219,1.437,1.437,0,0,0-.788-.276,2.791,2.791,0,0,0-1.444.276,9.341,9.341,0,0,0-1.162,1.058l-4.112,4.135,2.071-5.389a2.905,2.905,0,0,0,.236-1.053,1.276,1.276,0,0,0-.587-1.145,1.372,1.372,0,0,0-.742-.247,3.749,3.749,0,0,0-2.019.495,7.59,7.59,0,0,0-1.346,1.3l-4.59,5.205,2.3-6.626a3.075,3.075,0,0,0,.2-1c0-.719-.489-1.081-1.472-1.081h-5.453l7.117-7.117a2.875,2.875,0,0,1,4.067,0l14.2,14.2A2.875,2.875,0,0,1-841.38,232.209Z" transform="translate(874.574 -213.099)" fill="#5bd8fd"/>
    </g>
  </g>
</svg>
