<svg xmlns="http://www.w3.org/2000/svg" width="150" height="30.783" viewBox="0 0 150 30.783">
  <g id="Group_39" data-name="Group 39" transform="translate(-352.339 -435.23)">
    <g id="Group_1" data-name="Group 1" transform="translate(352.339 443.556)">
      <path id="Path_1" data-name="Path 1" d="M371.63,447.467a4.914,4.914,0,0,1,1.151,1.574,4.564,4.564,0,0,1-.013,3.794,4.876,4.876,0,0,1-1.11,1.526,5.231,5.231,0,0,1-1.621,1.009,5.066,5.066,0,0,1-1.916.36l-15.781-.1.1-16.081,15.71.1a6.062,6.062,0,0,1,1.427.182,5.58,5.58,0,0,1,1.321.52,4.957,4.957,0,0,1,1.106.841,4,4,0,0,1,.793,1.154,4.062,4.062,0,0,1,.431,1.837,4.275,4.275,0,0,1-.418,1.806A3.962,3.962,0,0,1,371.63,447.467Zm-1.164,4.333a1.844,1.844,0,0,0,.19-.835,2,2,0,0,0-.191-.86,2.283,2.283,0,0,0-.539-.733,2.748,2.748,0,0,0-.787-.5,2.359,2.359,0,0,0-.926-.193l-13.3-.083-.029,4.5,13.3.083a2.58,2.58,0,0,0,1.359-.375A2.215,2.215,0,0,0,370.466,451.8Zm-15.536-5.761,13.273.083a2.928,2.928,0,0,0,.884-.133,2.836,2.836,0,0,0,.8-.391,2.066,2.066,0,0,0,.584-.611,1.529,1.529,0,0,0,.224-.82,1.51,1.51,0,0,0-.224-.828,2.291,2.291,0,0,0-.588-.619,2.862,2.862,0,0,0-.824-.4,3.2,3.2,0,0,0-.926-.145l-13.18-.083Z" transform="translate(-352.339 -439.548)" fill="#fff"/>
      <path id="Path_2" data-name="Path 2" d="M371.8,455.732a6.509,6.509,0,0,1-2.607-.54,6.641,6.641,0,0,1-2.112-1.439,6.708,6.708,0,0,1-1.415-2.133,6.572,6.572,0,0,1-.5-2.614l.017-2.738a6.526,6.526,0,0,1,.538-2.583,6.653,6.653,0,0,1,3.572-3.527,6.545,6.545,0,0,1,2.614-.507l11.277.072a6.553,6.553,0,0,1,2.609.54,6.637,6.637,0,0,1,3.527,3.572,6.511,6.511,0,0,1,.5,2.591l-.017,2.738a6.567,6.567,0,0,1-.537,2.607A6.644,6.644,0,0,1,385.7,455.3a6.571,6.571,0,0,1-2.614.5Zm-4.086-6.708a4.049,4.049,0,0,0,.313,1.615,4.112,4.112,0,0,0,2.179,2.206,4.023,4.023,0,0,0,1.611.335l11.277.072a4.01,4.01,0,0,0,1.615-.315,4.316,4.316,0,0,0,1.328-.872,4.093,4.093,0,0,0,.9-1.305,4.037,4.037,0,0,0,.335-1.611l.017-2.738a3.936,3.936,0,0,0-.315-1.591,4.17,4.17,0,0,0-.884-1.328,4.236,4.236,0,0,0-1.317-.9,4.063,4.063,0,0,0-1.611-.334l-11.277-.072a4.075,4.075,0,0,0-2.932,1.2,4.315,4.315,0,0,0-.891,1.317,3.993,3.993,0,0,0-.333,1.588Z" transform="translate(-340.362 -439.452)" fill="#fff"/>
      <path id="Path_3" data-name="Path 3" d="M385.181,455.669a4.736,4.736,0,0,1-1.483-.242,5.927,5.927,0,0,1-1.342-.634,4.991,4.991,0,0,1-1.106-.959,4.905,4.905,0,0,1-.781-1.211,5.851,5.851,0,0,1-.331-.953,3.772,3.772,0,0,1-.122-1,4.59,4.59,0,0,1,.429-1.949,5.284,5.284,0,0,1,1.135-1.582,5.165,5.165,0,0,1,1.644-1.056,5.063,5.063,0,0,1,1.951-.371l12.368.079,0-.582a2.475,2.475,0,0,0-.226-1.056,3.022,3.022,0,0,0-.6-.874,2.661,2.661,0,0,0-.866-.586,2.74,2.74,0,0,0-1.054-.217l-11.233-.07.017-2.506,11.231.07a5.212,5.212,0,0,1,2.04.42,5.353,5.353,0,0,1,1.663,1.125,5.142,5.142,0,0,1,1.508,3.709l-.068,10.56Zm-1.464-7.017a2.6,2.6,0,0,0-.874.866,2.336,2.336,0,0,0-.108,2.156,2.662,2.662,0,0,0,.565.783,2.747,2.747,0,0,0,.82.526,2.613,2.613,0,0,0,1.009.2l12.368.079.031-4.966-12.3-.079A2.63,2.63,0,0,0,383.717,448.651Z" transform="translate(-326.496 -439.216)" fill="#fff"/>
      <path id="Path_4" data-name="Path 4" d="M393.006,455.845l.062-9.493a6.393,6.393,0,0,1,.526-2.537A6.5,6.5,0,0,1,395,441.748a6.719,6.719,0,0,1,2.073-1.39,6.24,6.24,0,0,1,2.556-.507l11.463.071-.016,2.506-11.463-.072a3.945,3.945,0,0,0-2.85,1.166,4.3,4.3,0,0,0-.878,1.282,3.806,3.806,0,0,0-.335,1.564l-.06,9.491Z" transform="translate(-314.367 -439.265)" fill="#fff"/>
      <path id="Path_5" data-name="Path 5" d="M403.812,439.874l14.016.087a6.429,6.429,0,0,1,2.609.551,6.863,6.863,0,0,1,2.114,1.452,6.761,6.761,0,0,1,1.414,2.12,6.43,6.43,0,0,1,.507,2.58l-.017,2.738a6.452,6.452,0,0,1-.551,2.607,6.881,6.881,0,0,1-1.452,2.116,6.734,6.734,0,0,1-2.133,1.414,6.5,6.5,0,0,1-2.591.5l-14.016-.089Zm18.106,6.727a3.889,3.889,0,0,0-.315-1.58,4.075,4.075,0,0,0-.886-1.305,4.283,4.283,0,0,0-1.317-.891,4,4,0,0,0-1.588-.335l-11.486-.072-.07,11,11.533.073a3.906,3.906,0,0,0,1.58-.317,4.125,4.125,0,0,0,2.195-2.179,4.024,4.024,0,0,0,.337-1.611Z" transform="translate(-304.372 -439.244)" fill="#fff"/>
    </g>
    <g id="Group_2" data-name="Group 2" transform="translate(467.302 435.23)">
      <path id="Path_6" data-name="Path 6" d="M428.7,460.254h.025l.2-.1v-.124l.224-.151v-.025a4.692,4.692,0,0,0,.3-1.178,2.137,2.137,0,0,0-.4.025l-.226-.1c.025.073-.05.249-.075.324-.151.1-.2.352-.375.477l-.126-.125-.025-.2.275-.151a10.128,10.128,0,0,1,.3-1.477l.327-.4a3.345,3.345,0,0,1,.176-.55l.124-.075-.075-.126-.025-.326c-.325.427-.4.854-.777,1.278a8.691,8.691,0,0,1-.375.852h-.025a3.358,3.358,0,0,1-.352.952v.025a5.235,5.235,0,0,0-.652.975l-.1-.023a.682.682,0,0,1,.277-.5c0-.226.35-1.078.425-1.452a.508.508,0,0,0,.1-.376v-.176l.126-.274-.126-.126c-.176.326-.275.678-.451,1l-.05-.126a5.742,5.742,0,0,0,.05-.927,1.251,1.251,0,0,0,.2-.4c.075,0,.1-.1.1-.151l-.025-.151.151-.35c.2-.153.2-.4.226-.628l.05-.025.126-.224.025-.276.149-.151v-.151h-.124a.338.338,0,0,0-.226.05,4.688,4.688,0,0,1-1.23.176,2.333,2.333,0,0,1-.727.151.434.434,0,0,1-.251.025c-.075,0-.048-.025-.048-.05l-.327.025c.075.1.025.249-.226.151l-.124.05-.077-.126h-.1a.153.153,0,0,0,.023.1c-.149-.023-.4,0-.476.1-.5.1-1.253.124-1.63.249-.226-.05-.6.176-.828.126h-.075c.277-.226,1.029-.226,1.429-.352.077-.1.226-.05.3-.149h.452l1.027-.3-.35.05-.075-.251a11.758,11.758,0,0,0,2.709-.827v-.05c-.1,0-.7.1-.777.075,0,0-.05-.025-.05-.05l.2-.1.226-.05c-.2-.025-.075-.2.151-.176l.3-.124c.077-.151.226-.025.3-.151l.1.025c.05,0,.126.025.126.075a.761.761,0,0,0,.226-.075l-.05-.05c.224-.075.375-.1.576-.151a.448.448,0,0,0,.375-.1v-.025h.05l.151-.2-.476-.05-.176.1c-.076-.027-.226-.027-.226.048l-.275.025-.176-.073c0-.027.075-.027.075-.027l.176-.126a.223.223,0,0,0,.2-.1l.151-.05.1-.126-.176.05c-.05,0-.224-.05-.2-.1a.334.334,0,0,1,.2-.05c-.075-.025-.126-.075-.126-.126a.158.158,0,0,1,.151,0s.3.075.277.1l-.1.025h.176l.828-.251v-.05c0-.224.151-.375.176-.6.2-.05.224-.251.224-.425v-.125l.251-.075.1-.126-.226-.125a5.6,5.6,0,0,0,.352-.9,2.33,2.33,0,0,0,.276-.4l.2-.151a2.19,2.19,0,0,1,.327-.751l.2-.1-.126-.351.025-.124.226-.075.074.075v-.05l.151-.226c.075-.326.05-.726.377-.927.126-.151.126-.377.2-.552l.2-.1a1.009,1.009,0,0,0,.075-.377,1.669,1.669,0,0,0,.151-.5l.2-.05v-.1l.126-.226v-.149l-.1-.1-.249-.048-.05-.226h-.251l-.05.1-.124-.075c-1.381-.05-2.659.352-4.014.352-.3,0-.551.124-.853.124a.52.52,0,0,1-.325.125.713.713,0,0,1-.327-.1,2.059,2.059,0,0,1,.978-.324.99.99,0,0,0,.6-.1h-.05a1.937,1.937,0,0,0-.4-.2,5.326,5.326,0,0,0,.878-.125.6.6,0,0,1,.276-.226l-.076-.1c-.427-.05-.829.126-1.28.05l.151-.1.249-.025a3.708,3.708,0,0,0,.528,0l-.025-.176h-.126c-1.079,0-2.131.274-3.21.251l-.1.1c-.627,0-1.278.05-1.9.077l-.077.1-.124-.2.048-.124h.277l.176-.075a1.053,1.053,0,0,0,.453-.126.354.354,0,0,1,.375-.226,3.217,3.217,0,0,0,.478.025c.275-.3.752-.2,1.052-.452a2.166,2.166,0,0,1,.4-.023l.126-.251c.5.025.951-.226,1.454-.226l.2-.073a.513.513,0,0,0,.327,0l.151-.1.251-.023.2-.153a1.419,1.419,0,0,1,.553-.048,1.361,1.361,0,0,1,.828-.151l.226-.1a5.219,5.219,0,0,0,.627.025l.1-.151h.375l.226-.1h.425l.025-.077c.327,0,.679.077.978.05l.226-.1a5.647,5.647,0,0,0,.627-.027l.075-.048c.352,0,.752-.027,1.154-.027v-.05a.866.866,0,0,1,.277-.249l.1-.226c0-.075.025-.174.126-.174a1.479,1.479,0,0,0,.3-.552,1.55,1.55,0,0,0,.375-.726c.076,0,.126,0,.126-.075v-.075c.277-.05.2-.425.425-.525.027-.1.153-.3.251-.3h.027c-.027-.05-.027-.126.048-.126a2.668,2.668,0,0,0,.5-.726c.126-.151.325-.2.451-.352-.05-.025-.126-.075-.126-.124s.075-.05.1-.05v-.075l.1.075c.025,0,.05,0,.05-.025a.08.08,0,0,0-.075-.075,2.283,2.283,0,0,0,.4-.552l.224-.2c.05-.125.226-.5.377-.5h.025l-.025.2-.176.125a14.181,14.181,0,0,1-.677,1.251l.126-.149.151.149a5.489,5.489,0,0,0-.7,1.5l.3-.251.1.151a.627.627,0,0,1-.2.351c0,.1-.1.149-.1.249,0,.226-.126.251-.126.4l-.124.1-.075.251c-.05.025-.05.1-.05.151v.05a1.059,1.059,0,0,0-.277.375l.126.2.1.05c0,.025.05.176.076.176s.025-.05.025-.05c0-.176.176-.151.176-.226v-.05a.939.939,0,0,0,.075-.375.864.864,0,0,1,.275-.075c.025,0,.05,0,.05.025a.293.293,0,0,1-.075.151l-.025.126-.151.149.151.125a.054.054,0,0,1,.05.05c0,.2-.176.351-.251.527-.05,0-.1.025-.1.075a1.313,1.313,0,0,1,.3.023,3.723,3.723,0,0,1,.476-.676c.2-.025.075-.324.226-.375a1.79,1.79,0,0,1,.251-.351h.05c.025,0,.126,0,.126.025,0,.1-.176.176-.226.2a2.8,2.8,0,0,1-.427.751.169.169,0,0,0-.1.176.8.8,0,0,1-.151.249,3.06,3.06,0,0,0,.476.05l.025-.073c.05-.05.176-.226.251-.226s.025.176.025.226c.05,0,.05.023.05.073,0,.025,0,.025-.025.052.075,0,.176.023.249.023l.1.126.249-.126.226.126a2.693,2.693,0,0,1,.451.025l.126.151c.4.1.677.4,1.154.477l.224-.1a15.1,15.1,0,0,1,1.431.7l.025.075c.075,0,.176.023.277.023a1.582,1.582,0,0,0,.476.226,1.134,1.134,0,0,1,.249.45,1.34,1.34,0,0,1,.5.326c.1.351.5.226.752.676h.025l.126.226.025.226.176.1.1.174v.05a1.415,1.415,0,0,1,.249.7l-.075.174c-.124.027-.124.176-.124.276v.025c-.352.676-.05,1.052-.9,1.553l-.149.3-.251.174-.025.052-.226.124a1.72,1.72,0,0,1-.476.477l-.151.226a1.012,1.012,0,0,0-.377.048.883.883,0,0,1-.3.653,1.062,1.062,0,0,0-.3-.1l.025-.176-.1-.126a1.027,1.027,0,0,1,.176-.274l.251-.05.151-.276H444l-.251.1v.025c-.377.05-.5.274-.727.575l-.176.025-.075.176c-.224-.025-.425.126-.652.151-.126.251-.5.176-.6.45a.092.092,0,0,0,.075.025.369.369,0,0,0,.224-.1l.126.176a1.933,1.933,0,0,1,.478-.425c0-.075.075-.1.149-.1l.126.025v-.025a.752.752,0,0,1,.327-.3h.251l.1.2-.1.326a4.954,4.954,0,0,1-.6.324v.075l-.251.025-.176.2h-.3l.1.226a4,4,0,0,0,1.079.224c.075.176.325.2.476.276.2.226.6.075,1.029.5l.277.075c.375.676.652.5,1.029.952v.05l.2.176a3.437,3.437,0,0,1,.226.877l.1.2-.075,1.553c-.151.05-.251.427-.276.552-.375.151-.277.676-.627.852a3.316,3.316,0,0,1-.226.525h-.075l-.25.126-.075-.251.1-.274.275-.125h.025a7.609,7.609,0,0,0,.3-1l-.126-.3-.251.249.2.176a1.74,1.74,0,0,0-.375.5l-.126.1-.025.4a.8.8,0,0,0-.377.325l-.224.027v-.077l.224-.151.126-.2.025-.126.151-.226-.2-.149.025.149-.2.2-.05.226h-.176a.452.452,0,0,1-.375.176c-.025.176.05.324-.025.5a2.335,2.335,0,0,1-.652.55v.025l-.2.2v.025a5.038,5.038,0,0,1-1.052.751l.174.151.251.05a.224.224,0,0,1,.075.174c0,.153-.3.226-.427.251a.793.793,0,0,0,.277-.3c-.251,0-.476.149-.7.149a1.186,1.186,0,0,1-.427-.1l.025-.2a1.745,1.745,0,0,1-.6.324l-.151.2c-.1.025-.2.151-.275.2h.149v-.025l.528-.176a3.517,3.517,0,0,1,.876.125l-.1.2h-.075l-.251.126-.2-.025-.073.126-.251.125-.151-.027a1.4,1.4,0,0,0-.427.226.522.522,0,0,0-.476.226,1.441,1.441,0,0,1-.425.151c-.176,0-.3-.151-.4-.3v-.1l-.126.251h-.126l-.025-.276v-.025l.2-.174a.088.088,0,0,0-.075-.027.417.417,0,0,0-.249.151v.351a1.142,1.142,0,0,0,.325.274l-.25.1h-.027l-.224.174-.377.075c-.126.2-.4.151-.6.251l-.05.126-.251.023-.226.176H436.7l-.226.151-.452-.276a1.179,1.179,0,0,0-.226.377l-.2.1c-.151-.075-.151-.425-.2-.576l.176-.1a1.1,1.1,0,0,0,.4-.05l.2-.151.1.1h.075a5.324,5.324,0,0,1,.9-.251l.1-.1.25-.048.077-.05.074-.251.025.1.1.1.251-.023.1-.151-.1-.2v-.151c-.226.025-.4.3-.553.427h-.249l-.075.1a.5.5,0,0,1-.277-.05c-.176.126-.4.077-.6.153-.05.126-.425.224-.551.2a1.951,1.951,0,0,1-.754.176l-.149-.025-.1.1h-.126l-.05.1a2.261,2.261,0,0,0-.576.075v.126a.787.787,0,0,0,.451.176l.1.1.176-.224v-.075a1.459,1.459,0,0,1,.451-.1l-.05.525-.526.2a1.529,1.529,0,0,0-.478,0c-.023.176-.7.251-.853.251l-.174-.027a1.578,1.578,0,0,1-.754.326l-.1.1c-.276,0-.551.075-.828.075a4.791,4.791,0,0,0-1.2.075v-.125l-.25-.025.048.176a.759.759,0,0,1-.325.226l.176.149-.2.176a1.055,1.055,0,0,0-.377-.1,1.473,1.473,0,0,0-.126-.475l-.2.126.05.2-.176.1v.224h-.327l-.249.1-.176-.025c-.075.025-.176.075-.251.05l-.25.1a2.444,2.444,0,0,0-.427-.025l-.025.075a2.3,2.3,0,0,1-.928.075l-.126.1h-.025c-.2.1-.5.1-.677.224-.3-.1-.627.025-.953-.05l-.251.075a4.8,4.8,0,0,0-.6-.025l.025-.1-.249-.05.05.2a.657.657,0,0,1-.278.176l.153.126-.2.2-.327-.149a2.118,2.118,0,0,1-.1-.427l-.174.075.048.2-.2.075v.2l-.275-.025-.251.1-.35-.05-.025-.124.05-.125h.249l.075-.126a.972.972,0,0,1-.375-.05h-.05l-.176.251-.2-.025-.048.05a1.457,1.457,0,0,1-.278-.151l-.174.126a.543.543,0,0,1-.277-.05,9.627,9.627,0,0,1-1.2,0l-.151.075a7.439,7.439,0,0,1-.777.075l-.276-.025a11.454,11.454,0,0,0-1.2-.176l-.149.226c-.2-.025-.478-.125-.654-.125-.526,0-1.077.025-1.6.025l-.149-.151-.176.075a5.712,5.712,0,0,1-.654-.05l-.023.075-.226-.05a.6.6,0,0,1-.3.075,3,3,0,0,1-.828-.1.9.9,0,0,1,.251-.05l.251.025a1.241,1.241,0,0,1,.526-.126l.176.075.275-.1a2.1,2.1,0,0,1,.377.1,1.579,1.579,0,0,0,.478-.176l.3.1.226-.125h.327l-.276-.1-.2.1-.327-.1.075-.1.176-.073a2.206,2.206,0,0,0,.553,0c.149-.1.425-.025.6-.025a1.855,1.855,0,0,1,.526.025l.226-.126h.149l.126-.2c.352.276,1.129-.151,1.531-.075l.074-.075c.352.025.7-.126,1.079-.126l.2.025.126-.125h.151a1.812,1.812,0,0,0,.4-.2.8.8,0,0,1,.251.027l.151-.027.075-.048.05-.126.275.126.05-.126v-.1l-.249-.025a1.627,1.627,0,0,0-.5.1l-.327-.025-.2.075a1.529,1.529,0,0,0-1.154.149c-.1-.1-.476-.1-.6-.124l-.05-.126c.1-.05,0-.151-.05-.2l-.226.151a1.322,1.322,0,0,1-.425-.1l-.025-.126-.4.2-.425-.05-.2.1-.226-.151.025-.1.251.05.226-.126a.938.938,0,0,0,.576-.149c.1,0,.2.023.3.023l.224-.1.3.023.176-.174.327-.075a2.32,2.32,0,0,0,.35-.324l.35-.077a1.657,1.657,0,0,1,.352.025c.2-.073.4-.2.6-.274a1.081,1.081,0,0,0,.7-.276h.35l.05-.075.251-.025.05-.075.224.05.052-.1.2.027a1.957,1.957,0,0,1,.551-.176v-.025l.2-.176v-.025h.528a1.058,1.058,0,0,0,.275-.176l.226-.025-.05.075c.327-.151.6-.377.928-.525l.277.125c.249-.176.375-.352.677-.352l.076-.075.275.025a.939.939,0,0,1,.528-.075l.074-.075a2.85,2.85,0,0,0,.654-.025c.151-.3.979-.349,1.253-.349l.251-.125Zm-10.208,3.555.4.05-.1-.126a1.454,1.454,0,0,0-.576.075l-.05.05.126.05Zm.453.05.048.025.077-.1a1.9,1.9,0,0,0,.375-.025,1.653,1.653,0,0,1-.476-.126l.023.151Zm2.03,1.979-.05.048a1.091,1.091,0,0,0-.677.1l-.4-.052-.226.075.151-.149a.667.667,0,0,0,.3-.05.563.563,0,0,0,.4-.05A1.618,1.618,0,0,0,420.972,465.839Zm-.126-2.155c-.1,0-.2.025-.275.025l-.126.2A1.055,1.055,0,0,1,420.846,463.684Zm.452.276.126-.05-.025-.05-.277.025Zm.878.151h.1l-.1-.075Zm.1-.552.075.027.251-.027.1-.075Zm.425,1.379.327-.05.025-.125h-.1l-.05.1Zm1.33-1.754a1.042,1.042,0,0,0-.4.05l-.151.176.478.05.275-.151a2.441,2.441,0,0,1,.427-.025l.226-.151-.025-.075-.251-.025A.778.778,0,0,1,424.033,463.184Zm.7,1.6.1.1.276-.151h-.126A.9.9,0,0,0,424.735,464.786Zm.451-.075.025.025.126-.05-.025-.025h-.05Zm.4-.075.05.126.075-.151Zm.1-1.5h.249l.05-.05-.073-.1-.251-.025Zm.1-9.293a1.077,1.077,0,0,1,.3-.125c.075,0,.151.05.126.125a.025.025,0,0,1,.025.025c-.025.05-.151.05-.226.075Zm.8,10.921-.251-.025-.151.05v.025c-.076,0-.1-.05-.176,0l-.126.176a.917.917,0,0,1,.677-.027l.176-.1a2.135,2.135,0,0,0,.427-.1l.151.025.05-.1c-.1,0-.176-.025-.276-.025h-.3Zm-.126-9.969c.126-.1.151-.05.35-.151l-.35.025c-.1-.05-.251.075-.3.126v.025c.05.025.076-.025.126-.025Zm.5-.251c-.05,0-.05.025-.05.05-.025.025,0,.025.05.025l.075.025C427.067,454.617,427.042,454.567,426.966,454.542Zm.3,0c0-.05-.05-.05-.075-.075l-.05.025a.113.113,0,0,0,.075.075Zm.627-1.251a2.044,2.044,0,0,1-.325.048l-.2.125.075.027A4.188,4.188,0,0,1,427.895,453.29Zm-.425,9.341h.124l.052-.023-.176-.1Zm.124,1.854.025.1h.05l.076-.149c.1-.153.075-.153.075-.153h-.025l-.126.226Zm.427-.174.025-.027h-.126Zm.2,0-.025.126h.025l.05-.126Zm.425-2.18a1.7,1.7,0,0,0,.352-.05l-.176-.025Zm.126,1.527h.277l-.151-.1-.251.05Zm.4-.073h.1a1.038,1.038,0,0,0,.251-.075l.1-.1A1.363,1.363,0,0,0,429.175,463.585Zm.126-11.373a.076.076,0,0,0,.048-.025h-.025Zm.4,5.761.1.075.025-.226-.126-.05Zm.451,3.708-.151.176a3.639,3.639,0,0,0,.5.023,1.239,1.239,0,0,1,.777-.224,1.316,1.316,0,0,0,.276-.251l-.025-.05-.277-.025C430.979,461.606,430.5,461.556,430.151,461.681Zm0-7.366-.025.025.1.2h.075a1.018,1.018,0,0,0,.126-.226Zm0,2.881.1-.2-.1.05Zm1.33,6.062.1.126a2.217,2.217,0,0,0,.551-.251l-.075-.05A.928.928,0,0,1,431.482,463.259Zm2.684-9.443-.1.2-.2.176a2.747,2.747,0,0,1-.727,1.251l-.025.276-.075.025-.251.475v.2c-.377.326-.7,1.553-1.2,2.229l-.025.276.3.1a1.559,1.559,0,0,0,.478-.425l.3.023.3-.1c.05-.025.226.025.275.025a1.687,1.687,0,0,1,.779-.149l.025-.1.224-.176a2.1,2.1,0,0,1,.553-.075,8.262,8.262,0,0,1,1.4-.4l.05-.048.251-.1c.1.023.2-.1.3-.075l.151-.226.075-.025.2-.176c.251,0,.452-.2.7-.2.277,0,.553-.3.828-.4a.984.984,0,0,1,.251-.2l.25-.025.151-.1a2.643,2.643,0,0,0,1.1-.877,1.929,1.929,0,0,0-.3-.7c-.451-.324-1.052-.226-1.555-.475l-.476.025-.176-.126h-.478a2.146,2.146,0,0,0-.576-.151l-.05-.075a9.854,9.854,0,0,0-2.332.2l-.151-.176C434.415,453.74,434.189,453.815,434.166,453.815Zm-2.284-7.163.025-.251.075.1.075.251Zm.6,14.727h.325c-.075-.176-.2-.2-.375-.2Zm1.4,1.352-.151.075h-.277l-.05-.1-.2.226-.2-.126-.251.025.025.226a1.882,1.882,0,0,0,.3.176l.124-.151.251-.05Zm1.932-13.976a.251.251,0,0,0,.126.2c.073-.126.124-.3.2-.427v-.05l.151-.224-.226-.126C436.045,448.356,435.821,448.53,435.821,448.756Zm.224.475.05.3a1.354,1.354,0,0,1,.928-.251l.05-.023.176-.2a1.086,1.086,0,0,0,.375-.2,2.415,2.415,0,0,0,.679-.326,1.772,1.772,0,0,0,.8-.124l.2-.251h.276a3.978,3.978,0,0,1,1.305-.877c.023-.05.2-.125.249-.151l.1-.176v-.025l.226-.151.075-.2a1.051,1.051,0,0,0-.1-.377,1.079,1.079,0,0,1-.4-.125,2.482,2.482,0,0,1-.425-.05v-.176l-.126-.224a.774.774,0,0,1,.05-.2l-.151-.251v-.023l-.249-.052a1.935,1.935,0,0,0,.1.377l-.126.151V445.6l-.2-.2c0-.125-.151-.125-.251-.125h-.025l.126.226-.05.126a7.215,7.215,0,0,0-1.806.126l-.1.251a.963.963,0,0,0-.276.525l-.174.2-.025.075a3.431,3.431,0,0,0-.652,1.1.476.476,0,0,1-.277.5c-.126.224-.176.5-.327.726l.075.05Zm0-.073v.073l.025-.1Zm.277-1.5.1.023v-.2l-.1-.05Zm.677-.927c-.124,0-.176.2-.2.3l.151-.1.075-.2Zm.2-.126.05-.276a.511.511,0,0,0-.226.4Zm-.126,10.695v.05c0,.075.176.151.226.174a.923.923,0,0,1,.425-.174v-.226l-.2.075A1.47,1.47,0,0,0,437.074,457.3Zm.05-16.355c-.025-.027,0-.05-.025-.05Zm.126-.326s.1,0,.1-.025l-.176-.025C437.174,440.616,437.225,440.74,437.25,440.616Zm.251-1.628a.081.081,0,0,1,.05-.025.082.082,0,0,0-.075-.075s-.027,0-.027.025S437.476,438.988,437.5,438.988Zm.149.525a.067.067,0,0,0-.076-.075h-.023C437.575,439.463,437.6,439.513,437.65,439.513Zm.027-.149c.048,0,.048-.027.048-.052h-.075Zm.1-.153c.025,0,.025-.048.025-.048l-.075-.027C437.726,439.164,437.751,439.212,437.776,439.212Zm.126-.249h.05v-.025c0-.025-.025-.025-.05-.025h-.025v.025C437.876,438.963,437.876,438.963,437.9,438.963Zm.176,18.234V457l-.2.025Zm-.126-18.41c.025,0,.075-.025.05-.05,0-.025,0-.025-.025-.025s-.05.025-.075.025A.054.054,0,0,0,437.952,438.787Zm.075.377-.075.1a.586.586,0,0,0,.226-.375v-.05A.656.656,0,0,0,438.027,439.164Zm0-.552c.025,0,.075-.025.1-.025-.025-.023-.025-.023-.05-.023a.1.1,0,0,0-.075.023Zm.151-.927a.025.025,0,0,0,.025-.025l-.025-.023c0-.027,0-.027-.025-.027h-.025C438.128,437.636,438.128,437.684,438.178,437.684Zm.05-.124c.023,0,.023-.027.023-.05v-.027l-.073-.023C438.178,437.484,438.2,437.561,438.228,437.561Zm-.025,1.176c0,.025.075.025.1.025-.025-.075,0-.151.1-.151l.048-.075v-.224l-.149.176C438.354,438.586,438.2,438.636,438.2,438.737Zm.1-1.528a.336.336,0,0,1-.052.151l.126-.05c.05,0,.075-.05.075-.1,0-.025-.025-.126-.048-.126s-.027.075-.027.075Zm.275,19.487h-.025l-.3.224V457l.251-.025.05-.075.226.025c.075-.174.576-.35.727-.4l-.126-.151h-.275A.673.673,0,0,1,438.578,456.7Zm-.025-16.282c0,.05.025.05.05.05h.025v-.025c0-.05-.05-.05-.075-.05Zm.327-.5c.05,0,.174,0,.174.075,0,.05-.073.05-.1.05s-.151,0-.151-.05c0-.025.025-.052.05-.075Zm.251-2.153c0,.073-.05.124-.05.174l-.126-.075.025-.126C439.006,437.735,439.131,437.735,439.131,437.762Zm-.176,23.367.327-.025.1-.2a.574.574,0,0,0-.275.05Zm.8-4.306h.151l.176-.2A.841.841,0,0,1,439.758,456.822Zm.251,3.206c0,.023.048.023.048.023a1.542,1.542,0,0,0,.628-.174l.025-.05c0-.05-.151-.05-.2-.05C440.41,459.777,440.009,459.928,440.009,460.028Zm.7-15.129.249.05-.073-.151h-.251Zm.978,14.476h.176l.124-.149h-.226Zm.249-14.026v-.126l-.176-.2A1.406,1.406,0,0,0,441.939,445.349Zm.7,14.528.05-.176.151-.176.251.025C443.068,459.752,442.817,459.852,442.641,459.877Zm.453-.55h.05l.251-.125-.075.224-.226.126Zm1.23-.753-.2.075-.277.3-.2.05-.151-.1v-.151h.126l.226-.125V458.5l.2-.126.075-.224a1.047,1.047,0,0,1,.4.1A.463.463,0,0,1,444.323,458.574Zm.727-10.544-.3.1v.475c.224-.176.5-.324.5-.626l-.025-.176Zm.025,7.69.249.1.176-.251-.176-.075Zm.9-8.592h.124l.2-.1-.2-.075Z" transform="translate(-411.893 -435.23)" fill="#00a793"/>
    </g>
  </g>
</svg>
