<svg xmlns="http://www.w3.org/2000/svg" width="80.878" height="52.936" viewBox="0 0 80.878 52.936">
  <g id="그룹_3161" data-name="그룹 3161" transform="translate(1202 -4503)">
    <g id="그룹_3159" data-name="그룹 3159" transform="translate(-1182.924 4503)">
      <path id="패스_5644" data-name="패스 5644" d="M55.584,24.745,51.1,34.959,43.045,15.611,41.509,34.959H33.953L36.569,0h7.764Z" transform="translate(-33.953 0)" fill="#fff"/>
      <path id="패스_5645" data-name="패스 5645" d="M96.273,34.959H88.716l-1.578-19.6-8.221,19.6h-9.01l4.484-10.214L85.851,0h7.805Z" transform="translate(-52.761 0)" fill="#00bca0"/>
    </g>
    <g id="그룹_3160" data-name="그룹 3160" transform="translate(-1202 4548.67)">
      <path id="패스_5646" data-name="패스 5646" d="M8.926,103.121H7.39l-.332-4.152L5.4,103.121H3.529L1.868,98.969l-.291,4.152H0l.54-7.183H2.159L4.442,101l2.367-5.065H8.387Z" transform="translate(0 -95.855)" fill="#fff"/>
      <path id="패스_5647" data-name="패스 5647" d="M27.406,102.989H25.828v-1.453H21.676v1.453H20.1v-1.453h-.249V99.957H20.1V98.629a2.824,2.824,0,0,1,.415-1.453,3.4,3.4,0,0,1,1-1.038,2.907,2.907,0,0,1,1.453-.374h1.578a2.782,2.782,0,0,1,1.412.374,3.4,3.4,0,0,1,1,1.038,2.45,2.45,0,0,1,.415,1.411Zm-1.578-3.031V98.546a1.328,1.328,0,0,0-.332-.872,1.163,1.163,0,0,0-.872-.332h-1.7a1.163,1.163,0,0,0-.872.332,1.328,1.328,0,0,0-.332.872v1.412Z" transform="translate(-10.383 -95.764)" fill="#fff"/>
      <path id="패스_5648" data-name="패스 5648" d="M44.179,103.035H42.6l-3.9-4.692v4.692H37.162V97.388h-.249V95.852H38.74l3.9,4.816V95.852H44.22Z" transform="translate(-19.309 -95.81)" fill="#fff"/>
      <path id="패스_5649" data-name="패스 5649" d="M53.715,103.08V98.928h1.536v2.615h2.906a1,1,0,0,0,.747-.29,1.08,1.08,0,0,0,.332-.789v-1.7a1.121,1.121,0,0,0-.415-.914,1.2,1.2,0,0,0-.872-.374H53.8V95.938H57.95A2.824,2.824,0,0,1,60.4,97.35a2.657,2.657,0,0,1,.374,1.412V100.3a2.865,2.865,0,0,1-.374,1.412,2.991,2.991,0,0,1-1.038,1,2.783,2.783,0,0,1-1.412.374Z" transform="translate(-28.098 -95.855)" fill="#fff"/>
      <path id="패스_5650" data-name="패스 5650" d="M77.684,102.988H76.148v-1.453H72v1.453H70.46v-1.453h-.291V99.958h.291V98.629a2.824,2.824,0,0,1,.374-1.453,3.53,3.53,0,0,1,1.038-1.038,2.782,2.782,0,0,1,1.412-.374h1.785a2.658,2.658,0,0,1,1.412.374,3.114,3.114,0,0,1,1.038,1.038,2.781,2.781,0,0,1,.374,1.412Zm-1.536-3.031V98.546a1.2,1.2,0,0,0-.374-.872,1.08,1.08,0,0,0-.83-.332h-1.7a1.163,1.163,0,0,0-.872.332,1.2,1.2,0,0,0-.374.872v1.412Z" transform="translate(-36.705 -95.764)" fill="#fff"/>
      <path id="패스_5651" data-name="패스 5651" d="M88.894,100.136h3.072a.994.994,0,0,0,.747-.291,1.12,1.12,0,0,0,.332-.789v-.249a1.287,1.287,0,0,0-.374-.913,1.2,1.2,0,0,0-.913-.332h-4.4V96.026h4.4a2.906,2.906,0,0,1,1.453.374,2.866,2.866,0,0,1,1,1,2.782,2.782,0,0,1,.373,1.412,2.7,2.7,0,0,1-1.7,2.616l.208.207h1.661v1.536H92.3l-1.453-1.453H88.811v1.453H87.233V99.015h1.536Z" transform="translate(-45.631 -95.901)" fill="#fff"/>
      <path id="패스_5652" data-name="패스 5652" d="M111.72,102.989h-1.578v-1.453H105.99v1.453h-1.578v-1.453h-.291V99.957h.291V98.629a2.491,2.491,0,0,1,.415-1.453,3.406,3.406,0,0,1,1-1.038,2.906,2.906,0,0,1,1.453-.374h1.536a2.906,2.906,0,0,1,1.453.374,3.4,3.4,0,0,1,1,1.038,2.449,2.449,0,0,1,.415,1.411Zm-1.578-3.031V98.546a1.329,1.329,0,0,0-.332-.872,1.162,1.162,0,0,0-.872-.332h-1.7a1.162,1.162,0,0,0-.872.332,1.326,1.326,0,0,0-.332.872v1.412Z" transform="translate(-54.466 -95.764)" fill="#fff"/>
      <path id="패스_5653" data-name="패스 5653" d="M128.8,103.349h-1.578v-1.495H123.07v1.495h-1.536V99.2a2.657,2.657,0,0,1,.374-1.412,2.489,2.489,0,0,1,1.038-1.038,2.657,2.657,0,0,1,1.412-.374h1.578a2.823,2.823,0,0,1,2.45,1.412,2.656,2.656,0,0,1,.373,1.412Zm-1.578-3.031V98.906a1,1,0,0,0-.332-.83,1.2,1.2,0,0,0-.872-.374h-1.7a1.287,1.287,0,0,0-1.2,1.2v1.412Z" transform="translate(-63.574 -96.082)" fill="#00bca0"/>
      <path id="패스_5654" data-name="패스 5654" d="M139.7,100.136h3.114a1,1,0,0,0,.4-.067.988.988,0,0,0,.343-.224,1.122,1.122,0,0,0,.332-.789v-.249a1.287,1.287,0,0,0-.374-.913,1.246,1.246,0,0,0-.913-.332h-4.4V96.026h4.4a2.782,2.782,0,0,1,1.412.374,2.654,2.654,0,0,1,1.038,1,2.783,2.783,0,0,1,.374,1.412,2.95,2.95,0,0,1-.457,1.619,2.911,2.911,0,0,1-1.246,1v.207h1.7v1.536H143.1l-1.495-1.453H139.7v1.453h-1.536V99.015H139.7Z" transform="translate(-72.272 -95.901)" fill="#00bca0"/>
      <path id="패스_5655" data-name="패스 5655" d="M158.843,103.076h-1.578V97.43h-2.823V95.852h7.225V97.43h-2.823Z" transform="translate(-80.788 -95.81)" fill="#00bca0"/>
    </g>
  </g>
</svg>
