<svg xmlns="http://www.w3.org/2000/svg" width="117.431" height="34.969" viewBox="0 0 117.431 34.969">
  <g id="logo_horizontal" transform="translate(-0.012 -0.731)">
    <path id="Path_5757" data-name="Path 5757" d="M397.4,41h-18.37V37.493l12.739-15.775H379.009V18.213h18.317v3.505L384.652,37.493H397.4Z" transform="translate(-303.739 -11.35)" fill="#fff" fill-rule="evenodd"/>
    <path id="Path_5758" data-name="Path 5758" d="M250.6,32.538V18.213h4.483V32.878c0,4.822-4.011,8.121-10.041,8.121C238.987,41,235,37.7,235,32.878V18.213h4.483V32.538c0,2.817,2.151,4.833,5.558,4.833S250.6,35.355,250.6,32.538Z" transform="translate(-183.512 -11.35)" fill="#fff"/>
    <path id="Path_5759" data-name="Path 5759" d="M528.405,32.538V18.213h4.476V41h-4.476V38.9a7.57,7.57,0,0,1-5.561,2.1c-6.053,0-10.041-3.3-10.041-8.121V18.213h4.483V32.538c0,2.817,2.151,4.833,5.558,4.833S528.405,35.355,528.405,32.538Z" transform="translate(-415.438 -11.35)" fill="#fff"/>
    <path id="Path_5760" data-name="Path 5760" d="M10.929,5.29a7.074,7.074,0,0,0-.485,2.583v3.158H7.159a7.116,7.116,0,1,0,0,14.231H10.5v3.322a7.147,7.147,0,0,0,14.295,0V25.263h3.336a7.116,7.116,0,1,0,0-14.231H24.842V7.873a7.073,7.073,0,0,0-.486-2.583,6.744,6.744,0,0,0-1.8-2.636,7.242,7.242,0,0,0-9.829,0A6.745,6.745,0,0,0,10.929,5.29ZM22.943,22.96a7.085,7.085,0,0,0,1.9-4.834V13.335h3.284a4.813,4.813,0,1,1,0,9.625Zm-10.134.459a7.243,7.243,0,0,0,9.668,0v5.165a4.834,4.834,0,0,1-9.668,0ZM10.444,13.335v4.791a7.085,7.085,0,0,0,1.9,4.834H7.159a4.813,4.813,0,1,1,0-9.625Zm2.591-5.461a4.609,4.609,0,0,1,9.217,0v3.158H13.034Zm9.217,5.461v4.791a4.609,4.609,0,0,1-9.217,0V13.335Z" transform="translate(0 0)" fill="#9a6dd8" fill-rule="evenodd"/>
  </g>
</svg>
