<svg xmlns="http://www.w3.org/2000/svg" width="98" height="46.271" viewBox="0 0 98 46.271">
  <g id="그룹_3155" data-name="그룹 3155" transform="translate(-360 -982.756)">
    <path id="합치기_50" data-name="합치기 50" d="M86.288,26.831V2.819Q86.288,0,89.582,0h6.209V4.954H91.546V26.831Zm-31.486,0V0H60.06V26.831Zm-32.437,0V0h5.259V26.831ZM10.58,10.96a21.973,21.973,0,0,1-8.109,9.218L0,17.105A19.546,19.546,0,0,0,5.8,9.915,18.268,18.268,0,0,0,7.952,2.153V0H13.21V2.153A18.084,18.084,0,0,0,15.3,9.819a20.306,20.306,0,0,0,5.859,7.286L18.69,20.178A21.985,21.985,0,0,1,10.58,10.96Zm26.609,8.552q-3.073,0-3.073-3.231V0H51.349V4.442H39.375V7.408H50.715v4.443H39.375V15.07H52.014v4.443ZM77.26,19.2V12.168H65.6V7.725H77.26V4.442H65.6V0H79.161q3.358,0,3.358,3.231V19.2Z" transform="translate(361 1002.196)" fill="#fff"/>
    <text id="내_앞까지_찾아오는_렌트카" data-name="내 앞까지 찾아오는 렌트카" transform="translate(360 990.756)" fill="#fff" font-size="9" font-family="GongGothicOTFMedium, Gong Gothic OTF"><tspan x="0" y="0">내 앞까지 찾아오는 렌트카</tspan></text>
  </g>
</svg>
