<svg xmlns="http://www.w3.org/2000/svg" width="70.48" height="38.158" viewBox="0 0 70.48 38.158">
  <g id="AST" transform="translate(-479.61 -527.685)" style="isolation: isolate">
    <g id="Group_3011" data-name="Group 3011" transform="translate(479.61 527.685)" style="isolation: isolate">
      <path id="Path_5380" data-name="Path 5380" d="M501.034,543.657a1.648,1.648,0,0,1,.136-.327h.082c0,.164.082.981-.245.981v.709l.845.027c.272,0,.19-.3.463-.3.163,0,1.145.082,1.145-.081a13.231,13.231,0,0,1,2.317-.136.572.572,0,0,1,.3-.109c.79,0,1.472-.109,2.235-.109.082,0,.245.027.245-.109a.351.351,0,0,1,.273.109c.6,0,1.227.027,1.826.054-.382.027-.981.164-1.335.164,0,.081-.055.109-.136.109a.885.885,0,0,1-.382-.109c-.218,0-.055.218-.218.218a5.9,5.9,0,0,1-.681-.109l-.191.109c-.327,0-.6.109-.926.136l-.164.272H506.4l-.081-.108c-.164,0-.027.218-.246.218-.136,0-.245-.109-.381-.109,0,.191,0,.219-.219.219-.027-.027-.245-.219-.245-.055-.164,0-.545.027-.545.245a.163.163,0,0,0-.218.164c-.246-.027-.354-.081-.354.191a.5.5,0,0,0-.273.054c0,.054.3.054.327.054l.736.027c.082,0,.681,0,.681-.136H506.7c.327.326.517-.109.79-.109a.951.951,0,0,0,.354.137c.081,0,.136-.027.136-.109l.927-.027.081.218c-.381,0-.681.109-1.035.109-.027-.136-.381-.164-.381-.027v.027c-.491,0-.954.109-1.445.109l-.272.109c-.109,0-.273,0-.273.163.136,0,.763-.163.763.082v.055h.436c.027,0,.081,0,.081.027a3.738,3.738,0,0,1-.436.164c-.164,0-.409.245-.572.245-.137,0-.845.027-.845.191-.191.027-.736.245-.872.245-.081,0-.273-.027-.273.109-.055.109-.872.136-.872.272,0,.082.027.137.109.137.327,0,.79-.409.9-.409a3.86,3.86,0,0,0,1.471-.218h.41v.137c0,.081-.082.081-.137.081-.218,0-.3-.054-.3.191-.191,0-.681-.109-.681.218-.218,0-.573-.055-.736.136a.349.349,0,0,0-.273.109c-.517-.082-1.145.3-1.663.109-.082.081-.954.136-.954.381-.081-.027-.245-.027-.245.109a.373.373,0,0,1-.3.109c-.545,0-.9-.027-.9.654.136.136.108.408.108.573l-.108.081-.082.191.082.3h-.328v-.109l-.191.272-.027.327v.055c.109,0,.081-.436.245-.436l.081.027.055.109c.055,0,.164.027.164.109,0,.109-.109.109-.109.218a.408.408,0,0,0-.109.3c-.081,0-.109-.054-.109-.136v-.082c-.245,0-.49.9-.49,1.172l.381.055c0,.109,0,.164-.109.164h-.109l-.027.218H498.8a.409.409,0,0,1-.109.3c0,.109-.136.872-.218.872a.371.371,0,0,0,.109.3,3.651,3.651,0,0,0,.081.927.5.5,0,0,0-.19.272l.109.3-.218.027v.082h.027l.055.109.136.109v.055c0,.055-.055.081-.055.163a.352.352,0,0,0-.109.273c-.081,0-.109-.054-.109-.136v-.082l-.191.027c0,.218-.081.409-.081.627v.463l.218.054v.109c0,.081-.109.081-.164.081l-.027.191h-.027a5.432,5.432,0,0,0-.109.654l-.136.109c0,.736-.109,1.418-.109,2.126H497.6l.027.3c-.327-.027-.272.6-.272.845l-.027,1.5-.109.082c.027.572-.027,1.063-.027,1.581l.027.436-.191.027a4.246,4.246,0,0,1-.3-1.171.349.349,0,0,1,.109-.273c-.272-.354-.136-1.2-.272-1.69a.248.248,0,0,0-.191-.082c-.027,0-.027.027-.027.055l.027.518c-.027.055-.136.327-.191.327-.027,0-.027-.027-.027-.055l-.164-2.971a1.689,1.689,0,0,0-.081-.272c-.027,0-.027.082-.027.082l.027.409-.109.027c-.328,0-.328-1.308-.328-1.363,0-.027-.027-.136-.054-.136s-.027.081-.027.081l.081,1.5c-.054,0-.19,0-.19.081,0,.436.081.872.081,1.308,0,.545-.218.218-.218.6,0,.164.109.872,0,.872,0-.191,0-1.063-.163-1.226l-.273-1.554a.173.173,0,0,1-.137-.164v-.055a.157.157,0,0,1-.163-.163V560.5c-.027-.055-.109-.272-.164-.272s-.055.137-.055.163c0,.137.191,1.064,0,1.064a7.806,7.806,0,0,1-.3-1.745l-.245-.027c0-.136-.109-.19-.137-.327l.109-.191.027-.327c-.246,0-.3-1.553-.3-1.826,0-.082.027-.19.136-.19a.3.3,0,0,0-.109-.246,53.242,53.242,0,0,0,.681-5.505l.109-.109.055-.3-.055-.027a.883.883,0,0,1,.109-.381c0-.082,0-.164-.109-.164-.3,0-.681.109-1.035.109,0,.082-.027.109-.109.109-.245,0-.354.081-.573.081a.3.3,0,0,1-.245.109c-.055,0-.246,0-.246-.109,0-.136.055-.19-.164-.19v.218l-.109.082c0,.273-.246.218-.436.218a.352.352,0,0,1-.328-.328s0-.081-.027-.081l-.218.409-.191.163a.129.129,0,0,1-.136.137l-.082-.027c0-.191-.245,0-.3.055h-.681l-.19.218h-.736a.836.836,0,0,0-.218.218c0,.082-.164.327-.246.327l-.163-.027c0,.273-.354.328-.354.491.136.082.164.3-.027.3-.109,0-.3-.136-.3.055-.218,0-.055.436-.354.436,0,.219-.137.436-.137.655a.171.171,0,0,1-.19.19l-.246.246c0,.027,0,.109-.054.109-.109,0-.164-.137-.3-.137-.055,0-.055.109-.055.164l-.409.491a.532.532,0,0,1-.491.518c-.027.027-.327.3-.327.382,0,.055.027.055.081.055-.109.246,0,.436-.3.436,0,.164,0,.218-.191.218a.186.186,0,0,1-.19.19c-.137,0-.164-.108-.3-.108l-.218-.082c0,.136-.109.19-.109.327l-.436.354c0-.109-.109-.055-.109.027,0,.027.027.027.055.027l-.027.219c-.081,0-.136.054-.136.163,0,.055.027.163-.081.163-.082,0-.164-.027-.164.082l-.109.218c-.109,0-.109.137-.109.191v.136l-.191.082-.218.246h-.054c-.082,0-.191-.027-.191-.137.137-.246.3-.491.464-.736-.027-.082-.027-.191.081-.191,0-.245.218-.327.218-.545.082,0,.136-.027.136-.109,0-.136-.081-.736.164-.736l.136-.218-.027-.218a.058.058,0,0,0,.054-.055c0-.081,0-.164.109-.164,0-.191.136-.354.191-.545l-.082-.081a.1.1,0,0,0-.109-.109l-.082.027c0,.273-.382.273-.382.463-.054.055-.136.137-.136.218,0,.055.273,0,.273.109,0,.054-.137.054-.164.054-.191,0-.3.246-.327.409a.41.41,0,0,1-.3.109.581.581,0,0,1-.464.518c-.054,0-.081-.055-.081-.109l.027-.518c.109,0,.163-.081.163-.19v-.027c-.109,0-.19-.109-.272-.109-.054,0-.054.081-.054.109-.246.19-.246.545-.573.545l-.191.136c0,.136-.082.164-.191.164-.164,0-.381,0-.463-.191,0-.272.354-.572.354-.736a2.056,2.056,0,0,0,.191-.491c.327-.381.381-.9.681-1.253a.436.436,0,0,0,.191-.19c0-.246.245-.355.245-.573l.136-.3a.072.072,0,0,0,.081-.082c0-.082,0-.136.109-.136l.191-.109a1.051,1.051,0,0,1,.354-.409v-.3l.136-.191-.027-.272h-1.09a2.161,2.161,0,0,0-.79-.3l-.055-.218c.055,0,.218-.027.218-.109a.3.3,0,0,0,.246-.109.438.438,0,0,0,.3-.136s.055,0,.055-.027c0-.055-.164-.164-.218-.191,0-.3.463-.109.463-.246,0-.027-.054-.027-.054-.027h-.655c-.109,0-.6.027-.6-.164a.411.411,0,0,1,.382-.382l.164-.272.409-.054c0-.3.463-.082.463-.354a.642.642,0,0,1,.355-.137l.3.027c.136-.055.681-.136.681-.272V548.4c.081,0,.191-.027.218-.109h.436c0,.136.681-.027.681-.109h.491l.409-.163c0-.137.109-.191.109-.3,0-.164.245-.3.409-.3,0,0,.109,0,.109-.027s-.055-.055-.082-.081l.109-.327.409-.409.082-.218c.245,0,.136-.218.272-.218l.136-.218a3.175,3.175,0,0,0,.545-.655c.164,0,.272-.382.3-.518.273,0,.136-.436.409-.436l.163-.218a.3.3,0,0,0,.109-.246l.109-.272a.29.29,0,0,0,.245-.218c.081,0,.081-.164.081-.218l.109-.218.109-.082.082-.137c.136,0,.136-.19.381-.19.218,0,.109-.545.273-.545a2.639,2.639,0,0,1,.736-.818c0-.136.109-.136.109-.246a3.319,3.319,0,0,1,.436-.436c0-.3.436-.409.436-.709a.167.167,0,0,0,.245-.163,3.338,3.338,0,0,1,.654-.736c0-.109.109-.082.109-.191,0-.055,0-.108.055-.108.081,0,.136.027.136-.082.082,0,.137-.027.137-.109,0-.054-.027-.136.055-.136a.35.35,0,0,1,.272-.109l.027-.328.246-.108.191-.191c0-.027,0-.109-.055-.109-.027,0-.055.082-.081.109l-.081-.218c.081,0,.218-.027.245-.109.055.081.164.19.164,0a.289.289,0,0,0,.218-.246c.027,0,.137,0,.137-.055,0-.327.3-.027.3-.327.164-.19.6-.763.9-.763.109-.109.3-.436.491-.436l.3-.409c.3,0,.327-.137.327-.409v-.109c.164,0,.6-.055.6-.272,0-.273.518-.055.518-.273.109.027.246,0,.246-.136l.218-.191h.246l.081-.109c.055,0,.109-.027.109-.081,0-.191.491-.245.627-.3l-.082-.136c0-.109.109-.136.218-.136h.191l.491.218.027.027.164-.245c.136.055.328-.409.381-.518.055-.027.137-.109.191-.109a.027.027,0,0,1,.027.027c0,.055-.327.763-.382.927h.382c-.082.109-.055.191.081.191-.027.109-.027.245.109.245l.055-.164-.027-.081c-.027,0-.027-.027,0-.055a.531.531,0,0,1,.218-.027,9.179,9.179,0,0,0,.79-1.635l.491-.109c.055-.109.3-.682.436-.682.027,0,.027.027.027.055a5.433,5.433,0,0,1-.354.681l.055.081c-.055.109-.218.328-.218.463a.167.167,0,0,0,.027.109,7.2,7.2,0,0,1-.681,1.008l.218.027a4.3,4.3,0,0,1,.518-.709c.245.109.109-.463.245-.463a.1.1,0,0,1,.082.026l.027-.081a.15.15,0,0,0-.109-.164c.055-.136-.027-.191.027-.3.273.218.191-.681.382-.681l.055.027a.1.1,0,0,0,.027-.082c0-.245,0-.19.191-.409a.245.245,0,0,1,.136-.027c.027,0,0,.055,0,.055a.2.2,0,0,1,.027.136c0,.3-.436.681-.436.872,0,.082.109.027.027.164-.136-.055-.191.081-.055.164l-.109.326c.109.027-.054.055-.081.055l-.164.273a.389.389,0,0,0,.164.055c.245,0,.518-1.254.845-1.254h.027a.382.382,0,0,1,.218-.191l.027-.054a.072.072,0,0,0-.081-.082l.081-.19c.109-.027.246-.137.246-.246,0-.436.136-.163.218-.409v-.218l.109-.027.3-.491c-.054-.027-.108-.082-.027-.109l.055-.191c.027,0,.082.027.082-.027l-.027-.082.137-.055.109-.218c-.163-.081-.027-.108.054-.108h.055v-.055c0-.164-.109-.328-.027-.491l.218-.137.137-.027c0,.027-.055.164-.027.164l.054-.027.054.081c-.218.409-.3.872-.517,1.254.081.027.081.136.054.19a.626.626,0,0,1-.109.382c.136.027-.109.354-.136.409-.191.354-.245.763-.463,1.172a.52.52,0,0,0-.082.218c0,.055.055.082.082.137a2.768,2.768,0,0,0-.464,1.5v.19l.137-.326c-.027-.082-.027-.246.109-.246h.027c.027.027.054.054.054.027s-.054-.081-.081-.109l.327-.655c-.027-.163.164-.491.218-.627-.054-.081,0-.218.055-.3l.137.218c0,1.2-1.254,2.453-1.254,3.706a.209.209,0,0,0,.055.137l-.191.326v.328c-.109.027-.055.354-.191.464a.544.544,0,0,0-.054.354.966.966,0,0,0-.219.545c-.109-.027-.109-.081-.218-.027v.463l-.136.246.027.381-.164.137-.081.518a.75.75,0,0,0-.327.382c0,.053,0,.19.081.19h.027c-.164.109-.109.408-.109.573l-.164.136c-.218,0-.273.627-.273.79-.163.082-.109.6-.109.763l-.109-.191.027-.218-.109-.164v-.055c-.027,0-.081.246-.109.273l-.109.218c0,.137-.136.109-.136.246l-.109.245a1.748,1.748,0,0,0,.463-.436c-.027.136-.109.6-.191.627l.109.163-.082.191c-.055.027-.136.082-.19.055l-.109.19v.027l.245-.108-.108.654a.852.852,0,0,0-.164-.436l-.055-.027-.109.109a.2.2,0,0,1,.218.136c0,.136-.136.245-.136.382,0,.027.054.218.081.218l.027-.109.109-.19v.109a.207.207,0,0,1,.027-.109h-.027l.027-.082Zm-18.1,11.42c0,.136-.082.109-.191.109l.191-.218Zm.218-.655-.109.164v.218c0,.027,0,.082.027.082.055,0,.327-.436.327-.436.027,0,.136,0,.136-.055,0-.081-.163-.19-.218-.19C483.208,554.2,483.29,554.422,483.153,554.422Zm.436-.872c0,.136.136.164.246.164V553.5l.109-.136c.082,0,.082-.109.082-.164l-.082.082A.414.414,0,0,0,483.589,553.55Zm.081.491c.027,0,.027-.027.027-.055,0-.055-.027-.055-.081-.055h-.027C483.589,553.986,483.617,554.041,483.671,554.041Zm.355-1.117h.245c0-.027.027-.137.081-.164h-.19C484.162,552.9,484.026,552.787,484.026,552.924Zm.463.354h.109l-.218-.219C484.379,553.169,484.352,553.278,484.489,553.278Zm.109-.845v-.218l-.218.027C484.379,552.433,484.407,552.433,484.6,552.433Zm-.164.218c.055,0,.055-.055.055-.082a.058.058,0,0,0-.055-.054c-.027,0-.027.027-.055.027C484.379,552.569,484.407,552.651,484.434,552.651Zm1.172-1.772c-.081,0-.109.109-.109.164a.117.117,0,0,0,.109.109l.109-.027c0-.164.191-.136.191-.354l.109-.191-.191-.082Zm3.979-.326.191.027c.137,0,.273-.082.409-.082.027,0,.191,0,.191-.055s-.137-.055-.164-.055c-.027-.027-.081-.081-.109-.081-.081,0-.081.136-.081.191Zm2.154-4.143c.081,0,.3.027.3-.082a2.2,2.2,0,0,0-.354-.163A.367.367,0,0,0,491.739,546.41Zm.409-.682c0,.082.055.082.109.082l-.109-.218Zm.191,4.279.108.136.682-.055a.157.157,0,0,1,.163-.164h.082l-.136-.136A1.432,1.432,0,0,1,492.339,550.007Zm.354-4.852c0,.109-.081.164-.191.164h-.055a.243.243,0,0,1,.137.218c.109-.055.354-.164.354-.328.191-.163.354-.327.545-.463a.55.55,0,0,0,.082.3l-.436.218v.137c-.137.081-.218.326-.3.463l-.136.055c-.027.108-.109.218-.218.218l.273.109a11.767,11.767,0,0,1,2.289-.436l.191-.518c.082-.082.245-.19.245-.327a.1.1,0,0,0-.109-.109c0-.191,0-.436.246-.436,0-.218-.027-.218-.246-.218,0-.246.136-.3.327-.409.272,0-.055-.545.218-.545,0-.191-.109-.273-.109-.436,0-.027-.027-.218-.055-.218-.055,0-.055.109-.055.136l-.463.3c-.191,0-.027.436-.3.436-.573,0-.218.246-.436.246-.027,0-.137-.027-.137-.082s.082-.055.109-.055l-.055-.327c-.246,0-.082.218-.246.218l-.382.436c0,.191-.3.246-.3.518-.218,0-.027.218-.272.218-.027,0-.054,0-.054.027a.248.248,0,0,0,.081.191C493.047,544.856,492.938,545.155,492.693,545.155Zm.055-.736-.164.272c0,.027,0,.137.055.137s.081-.055.109-.082c.136,0,.272-.327.3-.436l.191-.218-.191-.109C492.938,544.092,492.938,544.419,492.748,544.419Zm1.09-.109.055-.218c.245,0,.3-.3.545-.3l.136.191-.272.109c.027.109,0,.218-.136.218a.362.362,0,0,1-.272.218Zm.055,5.506a.157.157,0,0,0,.164.164l-.164-.191Zm.409,8.341-.109.108a.415.415,0,0,1-.081.355c.218-.027.054.19,0,.272l.027.245.109.055c0-.109.081-.19.081-.327,0-.218.137-.491.137-.708l-.027-.219-.164-.027Zm0-.355a.059.059,0,0,0,.055-.054c0-.027-.027-.027-.055-.027a.026.026,0,0,0-.027.027A.1.1,0,0,0,494.3,557.8Zm.109-.3v-.082l-.082-.027C494.328,557.42,494.355,557.5,494.41,557.5Zm.055-1.226a.027.027,0,0,0,.027-.027c0-.055-.055-.055-.082-.055h-.055C494.355,556.249,494.41,556.276,494.465,556.276Zm.081.79-.164-.191C494.41,556.984,494.383,557.066,494.546,557.066Zm.218,1.717c.027,0,0-.054,0-.081.054,0,.109-.027.109-.081s-.136-.164-.191-.164-.055.027-.055.054A.848.848,0,0,0,494.765,558.783Zm.164-16.026-.218-.027C494.71,542.839,494.873,542.784,494.928,542.757Zm1.063,15.181-.3.354v.109l.191.272v.081c0,.137-.054.246-.054.382h.081c0-.19.191-.517.191-.763l-.027-.709-.109-.136Zm.027-1.117c0,.054.055.054.082.054l-.082-.164Zm.027.436.082.136v-.19l-.082-.191Zm.082,2.044c-.027,0-.082,0-.082.055s.082.137.136.191c.082,0,.082-.081.082-.164a.778.778,0,0,0-.109-.354Zm.136-1.935h.054l-.109-.164C496.209,557.257,496.182,557.366,496.264,557.366Zm-.027-1.663.109.027v-.218l-.136-.054Zm.109,4.5c.027,0,.027-.027.027-.055s0-.054-.027-.054-.027.027-.054.027C496.291,560.146,496.291,560.2,496.345,560.2Zm0,2.044c.055,0,.055-.055.055-.082a.027.027,0,0,0-.027-.027c-.027,0-.027,0-.055.027C496.318,562.19,496.318,562.245,496.345,562.245Zm1.39-19.406c.055,0,.055-.055.055-.082a.059.059,0,0,0-.055-.055c-.027,0-.027.027-.055.027C497.681,542.757,497.708,542.839,497.735,542.839Zm.136-.354h.055c0-.055-.055-.055-.082-.055h-.054C497.79,542.485,497.844,542.485,497.871,542.485Zm.245,14.091a.381.381,0,0,0,.055-.163c-.055.027-.055.081-.055.136Zm.328-16.19c.027,0,.027-.027.027-.055,0-.054-.027-.054-.082-.054h-.027C498.362,540.331,498.389,540.386,498.444,540.386Zm-.082,15.073a.073.073,0,0,0,.082-.082A.087.087,0,0,0,498.362,555.459Zm.218-15.7c0,.082.054.082.109.082l-.109-.191Zm.164-.246c.055,0,.055-.055.055-.081l-.109-.027A.142.142,0,0,0,498.744,539.513Zm.627,12.429h-.054c-.027,0-.027-.054-.027-.081A.072.072,0,0,1,499.37,551.942Zm.109-3.652c-.027,0-.163.027-.163.082,0,.027.027.027.054.027h.055Zm.109,1.826v-.354l-.109.054v.382Zm.708-8.177a.072.072,0,0,0,.082-.081l-.218-.109C500.161,541.831,500.216,541.939,500.3,541.939Zm.436,4.606h.055a.072.072,0,0,0-.082-.081C500.706,546.491,500.706,546.545,500.733,546.545Zm.273-.19a1.361,1.361,0,0,0,.572.136c.136,0,1.091-.055,1.091-.246C502.124,546.246,501.551,546.355,501.006,546.355Zm.136-5.669c0,.082.027.108.109.108l-.109-.218Zm.109,2.289-.109-.054a1,1,0,0,1,.137-.3v.6c.027,0,.055,0,.055.027s-.055.055-.082.082Zm-.027-1.635c.055,0,.055-.054.055-.081l-.109-.027C501.169,541.258,501.2,541.339,501.224,541.339Zm.109-.245c.027,0,.027-.027.027-.054a.058.058,0,0,0-.054-.055h-.027C501.279,541.013,501.279,541.094,501.333,541.094Zm.054-.081h.082c0-.055-.055-.082-.109-.082C501.36,540.958,501.36,541.013,501.387,541.013Zm-.027.6a.173.173,0,0,1,0,.164Zm.164-7.8c.027-.054.054-.081.054-.136s-.081-.109-.136-.109l-.027.027h.055Zm.436.109.109.054-.082-.109Zm.409,3.434-.027-.055h-.137Zm0-4.524c.081,0,.108-.082.108-.137a.141.141,0,0,0-.054-.109l-.109.246Zm.027,4.524c.027.027.027.027.054.027l.082-.19h-.055l.109-.137v-.218h-.109l-.081.136.027.246-.081.081a.1.1,0,0,0,.081.027Zm.027-.136c.027,0,.027,0,.054-.027v.027Zm.3-6.951c.027-.027.055,0,.055.054,0,.027-.055.246-.109.246s-.082-.137-.137-.164Zm-.164,7.522c0-.027.027-.081,0-.108-.027.027,0,.054,0,.081Zm1.008,8.286-.3-.027C503.268,546.164,503.514,546.109,503.568,546.082Zm.818-15.481c.055,0,.055-.082.055-.109v-.055l-.082.164Zm.191-.627a.153.153,0,0,0,.136-.163c0-.027-.027-.055-.055-.082l-.136.245Zm.108,16.79c.055,0,.109-.027.109-.082l-.218-.027Zm.545-16.736c.027,0,.055.055.055.082,0,.164-.164.326-.164.491,0,.3,0,.327-.272.6a1.465,1.465,0,0,0,.136-.491c0-.054,0-.109-.055-.136Zm.218,16.626-.273-.137-.272.027A1.758,1.758,0,0,0,505.449,546.655Zm.818-18.97c0,.19-.3.435-.3.681a.351.351,0,0,0,.027.164,3.1,3.1,0,0,0-.3.6.6.6,0,0,1,0,.218l-.137.055c.191.081-.163.218-.218.245-.055-.027-.137-.054-.137-.136l.027-.055.137-.027.19-.355v-.218a7.357,7.357,0,0,0,.463-.926c0-.055,0-.082-.054-.109A.6.6,0,0,1,506.266,527.685Z" transform="translate(-479.61 -527.685)" fill="#fff"/>
      <path id="Path_5381" data-name="Path 5381" d="M501.175,560.253l-.19.109c.027.137-.273.137-.354.137h-.136a2.339,2.339,0,0,1-1.145.136l-.164.109-1.226-.027h-.109c0-.055.272-.164.326-.191.218,0,1.227.054,1.445-.164l.436.027.137-.136Zm21.8-3a1.759,1.759,0,0,0,.109.518l-.19.136-.573.137a2.059,2.059,0,0,0-.027-.409,1.905,1.905,0,0,1-.518.164l-.027.108.055.164-.245.136-.109-.218.027-.109-.191.218-.3.027-.055.055-.272.082-.055.108-.382.082-.164.164-.409.136a.921.921,0,0,1-.6.245l-.109.109a3,3,0,0,1-.845.218,3.635,3.635,0,0,1-.709.409h-.354l-.245.109h-.055s.055.055,0,.055c-.109,0-.3.055-.328.19l-.381.055-.164.109-.463.081-.109.137a1.293,1.293,0,0,1-.464.108l-.109.109c-.082-.027-.3-.082-.3.055a1.563,1.563,0,0,1-.6.109,3.458,3.458,0,0,1-.708.354l-.354-.027a1.566,1.566,0,0,1-.709.137.738.738,0,0,1-.408.136l-.136-.027c-.109.055-.191.137-.3.137l-.136.081c0,.137-.3.109-.382.109l-.081.081c-.109,0-.273-.081-.273.081l-.545.109-.355.218c-.027.054-.136.054-.19.054l-.382.027-.218.109h-.382l-.326.136-.246-.027-.272.109c-.326,0-.545.081-.872.108,0,.055-.082.055-.109.055a2.627,2.627,0,0,0-.463,0c-.027.109-.545.191-.681.191-.681,0-1.39-.054-2.071-.109a.145.145,0,0,1-.191.136.839.839,0,0,1-.354.082c-.082,0-.137-.027-.137-.109,0-.054.027-.136-.081-.136-.054,0-.327.136-.327.027a.644.644,0,0,1,.082-.245h.381l.272-.109c.3.027.109-.218.3-.218a4.2,4.2,0,0,1,.572.109l.573-.218.027-.109.191.027a4.5,4.5,0,0,1,1.117-.219.369.369,0,0,1,.246-.054c0-.218.19-.136.19-.218-.408.191-1.335.109-1.553.327-.055,0-.191-.027-.246.027-.109-.027-1.253.027-1.253.272-.518-.027-.982.164-1.5.164-.055.245-.463.164-.627.136.027.082-.191.082-.218.082-.108,0-.218,0-.245.108l-2.017.109c0,.027-.027.082-.055.082-.081,0-.164-.109-.164-.191,0-.054.055-.081.109-.081h.382c0-.164,1.09-.245,1.362-.354.027,0,.218.027.218-.027,0-.081-.136-.163-.136-.272,0-.027.027-.055.055-.082a4.1,4.1,0,0,0,1.8-.3l.246.027.464-.164.081-.136a1.689,1.689,0,0,0,.518-.054c-.081.108.109.027.109,0l-.027-.191c.737.109.436.082,1.036-.191.3,0,.654-.3.927-.3l.027-.055a1.707,1.707,0,0,0-.436-.054c0,.246-.627.163-.627.3-.164,0-.3-.054-.409.082a2.205,2.205,0,0,0-1.226.245l-.3-.164c-.218.027-.218.218-.409.218a1.76,1.76,0,0,1-.354-.109c-.272-.081.109.436-.709.164-.027.027-.054.082-.109.082v-.109c-.245,0-.463-.109-.709-.109l.164-.136c.082,0,.436-.027.436-.109l.328.054a5.107,5.107,0,0,0,.927-.218v-.109c0-.055-.027-.136-.109-.136-.027-.191-.218-.027-.218-.218h-.436l.109-.192c.246,0-.136-.19.436-.19l.137-.109a1.476,1.476,0,0,0,.327-.081c.218.027.218-.164.354-.164.382,0,.79-.328,1.254-.328v-.108c.055,0,.463,0,.463-.109.027,0,.191.027.191-.055h.245l.082-.081h.218l.027-.081c.191-.027.027-.218.218-.218.137-.137.491-.164.655-.218a.519.519,0,0,1,.272.136l.218-.136c-.027-.081.027-.109.109-.109l.082.027c0-.027,0-.191.081-.191.027,0,.055.081.082.109.245.027.436-.136.681-.136.082-.164.354-.109.491-.109v-.081c.054,0,.19,0,.19-.081.136,0,.218-.082.3-.082h.055l.272-.136.081-.109c.109,0,.191-.082.3-.109a.7.7,0,0,1,.327-.136l.164.027.082-.027.055-.109.19.027v-.081l.191-.081c0-.055.027-.109.054-.109a.1.1,0,0,1,.055.027,5.727,5.727,0,0,1,1.362-.463V556.3c.655-.163,1.173-.573,1.826-.708l.164.054.109-.054.055-.109.245.027.3-.245c.164-.055.6-.055.545-.246l.164.027.136-.027.137-.218c.109-.082.3.081.436.081l.027-.081a1.809,1.809,0,0,1,.627-.273,2.318,2.318,0,0,1,.6-.246l.082-.109h.245a.945.945,0,0,1,.437-.218v-.109l.6-.082.246-.218h.136l.055-.108.245-.027.136-.218a1.731,1.731,0,0,0,.982-.518,1.942,1.942,0,0,0,.545-.245v-.054a.977.977,0,0,0,.436-.3,1.55,1.55,0,0,0,.654-.219l.136-.19a1.182,1.182,0,0,0,.464-.354l.054-.273.272-.136.164.027.19-.245h.055a3.984,3.984,0,0,1,.6-.9h.245l.191-.218c0-.082.027-.164.027-.218l.055-.027a6.285,6.285,0,0,0-.382-.736,5.607,5.607,0,0,0-.626-.191,19.566,19.566,0,0,1-2.126-1.117H520.8a.96.96,0,0,0-.3-.109l-.136-.192h-.027l-.19-.163.136-.164a.737.737,0,0,1,.327.164h.409l.136-.246-.191-.081-.464.027a6.049,6.049,0,0,1-.545-.627l-.3-.081c-.327-.327-.709-.3-1.117-.409l-.055-.109-.055.109.245.109.191.218h.082l.218.082.272-.027.246.246.272-.027.027.272v.027l-.272-.082-.054.273-.082.055a4.166,4.166,0,0,0-.654-.191l-.109-.219h-.191a4.249,4.249,0,0,1-.6-.354c.081-.082.218-.164.272-.272a2.989,2.989,0,0,0-.709-.164.639.639,0,0,0-.218.055,1.649,1.649,0,0,0-.382-.272l-.163-.191-.19.136-.219-.246.027-.218a2.2,2.2,0,0,0-.326-.545v-.055l-.082.246.218.191v.246c-.164-.218-.409-.354-.6-.573a.942.942,0,0,1-.109-.545l-.218-.082a1.341,1.341,0,0,0-.218-.545l-.027-.273c.027-.055-.108-.055-.136-.055V542.4a1.552,1.552,0,0,0,.3-.9l.136-.245c-.027-.054.082-.273.109-.327l.272-.109h.027l-.055-.137.163-.109.082-.19a1.544,1.544,0,0,0,.409-.328l.109-.327.491-.218c.137-.218.327-.573.655-.573a1.8,1.8,0,0,1,.845-.573l-.027-.027c.409-.245.845-.517,1.254-.736l.3-.027.246-.164c.054.027.3-.081.354-.108l.136-.137a7.187,7.187,0,0,0,2.1-.763h.381l.246-.191a.827.827,0,0,0,.436-.082l.3.055.19-.136.137.136c.136,0,.518-.218.736-.245,1.581-.273,3.244-.246,4.852-.409l.027.082c.545-.082,1.09-.055,1.635-.136l1.445.136c.381,0,.736-.027,1.09,0l-.109.163c-.136,0-.3-.027-.408.082a3.354,3.354,0,0,0-1.636.272l-.3-.054v.164l-.137.081-.136-.136a1.25,1.25,0,0,0-.409.246h-.136l-.219.19.027.273h.3v.081l.191.109-.246.163h-.3c-.246,0-.464.055-.709.055l-.027.163.137.082a2.625,2.625,0,0,1,.463-.027l-.164.191a.874.874,0,0,1-.464.055l-.272.136.082.081a3.881,3.881,0,0,1,1.253-.054,1.56,1.56,0,0,1,.327.273l.272-.055.164.163-.191.218.027.109a2.094,2.094,0,0,0,.409-.055l.273.082-.191.108a1.586,1.586,0,0,1-.354.055c-.436,0-.763.164-1.172.164-.055.081-.218.109-.273.19l.137-.055.245.109h.027l-.191.109a5.693,5.693,0,0,1-.981.082c-.437,0-.927.436-1.363.436h-.082l-.245.163-.354.055-.109.109-.3-.027-.218.082c-.272,0-.572.109-.845.109a1.6,1.6,0,0,1-.354-.055l-.573.327-.19-.109-.109.137.082.136a3.288,3.288,0,0,0-.518.027l-.164-.164v.136l.081.163a1.138,1.138,0,0,1-.436.109l-.272.109a2.641,2.641,0,0,0-.463-.027.669.669,0,0,1-.627.245l-.136.273.109.245a1.919,1.919,0,0,0,.764.163l.081.109a2.461,2.461,0,0,0,.463.218l.191.245.191-.218V542.4l.218.109.055.272.491.164.272-.082.246.109-.027.19.245.109h.027l.218.191v.027l.191-.218h.054l.164.191.027.109c.245.246.354.218.681.246a.527.527,0,0,0,.027.218l.164.109h.3l.109.272c.109,0,.218.027.327.027l.163.273v.027l.3-.027a1.354,1.354,0,0,0,.272.409l.3.136c.436.436,1.335.845,1.445,1.444h.027l.081.164.027-.082.3.137.055.3-.082.272-.218.055.245.273c.027.245-.055.6.218.736l-.055.218a2.352,2.352,0,0,1,.354.545l-.191.191c.027.109.055.354-.109.382l.136.163c-.272.409-.272.818-.572,1.227l.082.245a9.227,9.227,0,0,1-.6,1.417l-.109.082a2.053,2.053,0,0,1-.327-.191l-.136.245c-.082.055-.3.273-.382.273-.055,0-.081,0-.109-.055v.218l.109.081c.164-.109.3-.3.518-.3a.149.149,0,0,1,.136.082l-.627.518c-.736-.109-.518,0-1.118.245l-.163-.055.109-.19-.081-.109-.436.3-.054.382.326-.136v.055c0,.081-.027.272-.163.272a.651.651,0,0,1-.246-.082v.219h-.19l-.246.163-.273.055-.463.463.109.191.436.109-.273.109a1.567,1.567,0,0,1-.381-.082l-.164.109-.19-.191a1.106,1.106,0,0,0-.327.464l-.163-.109a1.765,1.765,0,0,1-.655.136l-.082.191-.327.245.136.109-.245.246-.355-.081a3.89,3.89,0,0,1-.49.218l.081-.109-.109-.272a.58.58,0,0,1,.409-.191l.3-.245.409-.082a1.345,1.345,0,0,1,.491-.463l-.081-.218-.3.109-.218.218.027.027a4.39,4.39,0,0,0-.6.027l.245.055-.191.245a7.563,7.563,0,0,1-.736.246l-.19.218a.442.442,0,0,0-.436.273l.218.081a1.685,1.685,0,0,1,.354-.245l.328.327A1.528,1.528,0,0,1,522.979,557.254ZM499.7,561.234a.072.072,0,0,1-.081.082c-.055,0-.136-.055-.136-.109,0-.027.054-.027.054-.027Zm.082,0,.164-.109A.185.185,0,0,1,499.785,561.234Zm.3-.109h-.136A.121.121,0,0,1,500.085,561.124Zm1.363,1.036c.055,0,.164-.027.164-.109h-.327Zm1.336-2.154v.027c-.3-.027-.381.136-.6.136-.027,0-.272,0-.272.055,0,.027.136.027.136.027h.409l.191-.082a.18.18,0,0,0,.191-.164Zm-.408.545c.054,0,.109,0,.109-.054l-.272-.055C502.211,560.525,502.292,560.552,502.375,560.552Zm.354,2.29c.109,0,.872,0,.9-.19h-.463C503.137,562.869,502.756,562.651,502.729,562.842Zm.572-2.861c.054,0,.054-.055.054-.082l-.108-.027A.211.211,0,0,0,503.3,559.98Zm0,.463c0,.055.191.108.191-.027C503.464,560.416,503.3,560.389,503.3,560.443Zm.572-.164a.15.15,0,0,0-.136.082Zm-.136,2.317c0,.055.218-.027.273-.027h-.273Zm3.08-2.481c0-.027-.054-.109-.081-.081l-.246.136h.027c.109,0-.055.055-.082.055-.627,0-.354.191-.627.218l-.218.136c.491-.054.491-.218,1.063-.218a.15.15,0,0,1,.136-.082h.081l.191-.027.055-.137-.027-.163h-.082Zm.218.981v.027c0,.027.027.082.055.082.054,0,.109-.027.109-.082l-.027-.027Zm.708-.981c0-.027-.055-.272,0-.272a.232.232,0,0,1,.137.082l.027.109c.136-.164.272-.164.409-.3a2.209,2.209,0,0,0,.327-.218l-.027-.027-.382.163c-.054,0-.163,0-.19.081-.164.027-.273,0-.382.137a1.591,1.591,0,0,1-.354.055l.055.19.3.027Zm.027.763a.68.68,0,0,1-.245.109l-.027.055c0,.081.109.081.164.081l.218-.164Zm1.063-1.444.055.054a.059.059,0,0,0,.055-.054Zm.763-.354a.247.247,0,0,1,.027-.137,4.647,4.647,0,0,0-.491.272A2.278,2.278,0,0,0,509.6,559.081Zm2.889-.982h.027v.027h.027a.058.058,0,0,0,.054-.054v-.027l-.054.027.027-.027-.055-.027-.027.027.027.027h-.027Zm.055-.027h-.027v.027A.027.027,0,0,1,512.541,558.072Zm1.417-.382.055-.137c-.109.055-.246.027-.3.164A.75.75,0,0,1,513.958,557.69Zm1.309-14.828.054.272.137-.163-.164-.246V542.4a.38.38,0,0,0,.136-.272v-.055l-.273.109a.927.927,0,0,1-.055.382l.082.272Zm.491-.627.164.191.054-.191Zm.164.436-.027.273.109.136.055-.3Zm-.027,14.037.082.409H516l.3.218.135-.136-.272-.082.082-.19a2.441,2.441,0,0,0,.409-.328l-.436.027-.218.191Zm.218-13.547.054.3-.054.218.191-.326v-.191Zm.381.518-.082.219a1.13,1.13,0,0,1,.491.218l-.082-.218-.136-.109V543.6l-.191-.218Zm1.745,1.5-.109-.109-.081-.218-.218.055c-.109-.109-.19-.245-.354-.245l-.109-.164a1.177,1.177,0,0,0-.3-.054h-.136l-.218.191.191.19.163-.136a1.968,1.968,0,0,0,.409.218.848.848,0,0,0,.572.3A.4.4,0,0,0,518.237,545.18ZM517.12,543.9a.372.372,0,0,0,.381.381,1.2,1.2,0,0,0-.081-.3Zm.518,12.074-.082.272.082.055.163-.109h.164l-.055-.218-.137.109Zm.872,2.617.108.081.109-.109a2.992,2.992,0,0,0,.518-.218h.027l.272-.109C519.136,558.236,518.891,558.481,518.51,558.59Zm.163-13.765.273.082.027-.055-.273-.027Zm2.371,1.472v-.109l-.191-.027a1.308,1.308,0,0,1-.381-.3l-.027.191c0,.218.246.3.409.381Zm.272,11.121.6-.218C521.726,557.227,521.426,557.227,521.317,557.418Zm.627-15.863v.027l.245.436v-.409Zm1.035,5.861.273.027v.054l.272.082.3.246-.081-.3c-.246-.163-.518-.218-.764-.381Zm1.063,9.594-.081.191a1.51,1.51,0,0,1-.464.245l-.19-.109c.164-.081.327-.136.409-.3Zm.164-8.395a1.038,1.038,0,0,0-.355-.491l-.108.137a3.579,3.579,0,0,0,.818.9l.108-.054C524.561,548.859,524.4,548.777,524.207,548.614Zm1.09,6.951v.19l.191-.055Zm.408-.354-.109.272a.646.646,0,0,0,.518-.218c.109-.055.273-.164.3-.3l.245-.354c.245-.081.436-.245.681-.327l.164-.218-.191-.136-.245.081-.109.3h-.218a9.428,9.428,0,0,1-.926.518l-.027.109a.172.172,0,0,0,.136.164Zm.545-16.872-.054.137c.408-.055.872.054,1.226-.219C527.041,538.256,526.632,538.311,526.25,538.338Zm1.036,16.681-.027.3a2.051,2.051,0,0,1-.436.136A3.492,3.492,0,0,1,527.286,555.019Zm.627-16.6h.027l.055-.191-.246.136Zm1.881,12.811-.081-.109-.027.109c-.437.3-.491.9-.927,1.2l.246.191a2.892,2.892,0,0,0-.654.19l-.055.272.573-.109.027-.081.109-.055.109-.164a.617.617,0,0,0,.3-.436l.626-.382.109-.19-.109-.136-.054-.218.246-.327-.055-.382-.191.082a2.069,2.069,0,0,1,.136.436Zm-.463-13.437c-.3,0-.573.109-.872.109l-.055.109a.074.074,0,0,0,.109-.055l.3-.027h.027l-.027.054a.762.762,0,0,0,.627-.19Zm.927.409c.081,0,.19.027.3.027l-.272-.054Zm.9,11.065c-.027,0-.027-.027-.055-.027C531.129,549.241,531.129,549.268,531.157,549.268Zm.109-1.39a.712.712,0,0,1,.246.436l-.218-.081Zm.3,1.881a3.976,3.976,0,0,1,.081.6.6.6,0,0,1-.108.354.855.855,0,0,1-.164-.436Z" transform="translate(-487.004 -530.844)" fill="#fff"/>
      <path id="Path_5382" data-name="Path 5382" d="M555.778,540.6l-.082-.082-.245.055-.027.027h-.191a.074.074,0,0,0-.055.109h-.517c0,.027-.055.109-.081.109s-.027-.082-.027-.109a.3.3,0,0,0-.246.109l-.681.027c-.109,0-.818-.055-.818.109-.164,0-.627-.081-.627.191-.081-.027-.245-.027-.245.109h-.463c-.027.027-.055.109-.082.109s-.027-.109-.027-.109a.311.311,0,0,0-.218.081h-.736l-.081-.081c-.218,0-.382-.109-.6-.109-.054,0-.463.163-.545.19l-.136-.19h.3a1.916,1.916,0,0,1,.681-.3c-.027-.137.027-.191.164-.191.245,0,.463-.164.708-.164l.137-.108c.109,0,.136-.082.136-.164,0-.327.545-.354.763-.409l-.081-.191a.349.349,0,0,1-.272-.108h-.409l-.027-.218c.027,0,.109,0,.109-.027,0-.055-.109-.055-.136-.055-.055,0-.191,0-.191.082h-.354c0-.245.218-.164.218-.191,0-.054-.108-.136-.163-.164a.059.059,0,0,1-.055-.055c0-.109.218-.354.272-.436l.218-.109c0-.136.027-.19.164-.19l.191-.082c.245,0,.137-.409.327-.409a2.661,2.661,0,0,1,.818-.464c.109,0,.436-.081.436-.218.109,0,.3.082.3-.081a1.061,1.061,0,0,1,.272-.081c.082,0,1.036-.192,1.036-.3.218,0,.354-.191.572-.191l.191.109a.3.3,0,0,0,.245-.109c.136,0,.709.027.709-.219.109,0,.327.082.327-.108a1.041,1.041,0,0,1,.272-.082c.109-.027,1.118-.163,1.118-.327.218,0,.409-.191.627-.191.081.164.354.136.463,0a18.8,18.8,0,0,0,2.889-.6l.627-.818a.587.587,0,0,1,.055-.3l1.091-1.472a14.66,14.66,0,0,1,1.5-2.044h.109l-.518.79c.055.328-.681,1.2-.872,1.472h.027c.3,0,.246-.573.6-.545l.136-.055a.507.507,0,0,0-.19.328v.027l-.164.19.055.082-.081.163v.137l-.3.381-.027.328-.327.218c-.137.218-.027.464-.164.681v.191l.054-.109c.219.082.245-.408.327-.49l-.027-.108.055-.164a.927.927,0,0,0,.273-.027,8.575,8.575,0,0,1,1.117-1.308c.082-.109.436-.79.681-.79l.027.027c0,.109-.218.327-.272.408a1.3,1.3,0,0,1-.3.654c.246.027-.109.328-.109.355s.055.027.082.027a1.317,1.317,0,0,1-.027.326c.054,0,.163.027.163.109l-.245.272-.027.082v.027l.218-.273.136-.027c0-.027-.055-.027-.055-.027l.136-.164c.164.027.109.055.219.109l.245-.027a1.869,1.869,0,0,1,.409.19l-.245.3c.081.027.491.109.491.191,0,.027-.027.054-.054.081l-.027.055a15.115,15.115,0,0,1,2.943-.136h2.971c.327,0,.845.218,1.172.218s2.181-.218,2.181.163v.055a5,5,0,0,0,.9-.082c0,.055.055.082.109.082a1,1,0,0,0,.409-.109c0,.137.109.082.109.219-.218,0-.845-.027-.845.054,0,.055.19.055.218.055,0,.191.082.081.137,0a.338.338,0,0,0,.218.109.058.058,0,0,0,.054-.055c.136,0,.846-.109.846.055-.055.055-.191.191-.027.191l-.027.109h-.191a.3.3,0,0,0-.246-.109c-.081,0-.191.027-.218.109h-.463a6.9,6.9,0,0,0-2.263-.109l-.436.218c-.109-.027-.627-.081-.627.082a.138.138,0,0,0-.191.137,1.692,1.692,0,0,0,.354.081l.273-.055.109.164c0,.055,0,.136-.082.136-.109,0-.191-.136-.3-.136-.054,0-.054.082-.054.109h-1.227a1.668,1.668,0,0,0-.381.191H570.96l-.135.218c-.027-.027-.082-.136-.137-.136s-.054.109-.054.136l-.354.055-.082.027c0,.027.164.027.218.027h.382v.027c0,.218-.518.272-.709.272-.027,0-.845-.054-.845.109h-.681c0,.245.709,0,.818,0,.218,0,.491-.055.654.109.246,0,.491-.109.736-.109.027,0,.055,0,.055-.027,0-.082.054-.082.135-.082.137,0,.354-.027.464.109a1.68,1.68,0,0,0-.409.327c-.164,0-.3.109-.463.109s-.545-.081-.545.191a18.335,18.335,0,0,0,2.7-.191c0-.081.082-.109.163-.109h.082c.055.082.164.164.164,0l.218.082v.109c0,.19-.327.109-.436.109l-.164.108-.327.055.409.164h.9l.164-.109c.027,0,.081,0,.081-.027,0-.082.027-.082.109-.082a.691.691,0,0,1,.463.109c.082-.027.354-.027.354.109,0,.081-.027.136-.109.136l-.218-.027-.109.109c-.272,0-1.336-.218-1.336.164l-.164.164c-.436-.027-.954.19-1.308.19-.164,0-.164-.109-.3-.109l-.218.191c-.082,0-.491-.164-.491,0-.272,0-1.581-.109-1.745.109-.136,0-.573-.055-.655.109-.436,0-.681.109-1.144.136l-.218.109c-.654,0-.736.027-.736.79l-.108.055-.109.164a.35.35,0,0,1-.109.272l-.109.191c0,.081,0,.191-.082.246a.144.144,0,0,1-.163.163H565.4c-.382.436-.245,1.172-.9,1.635.164,0,.027.109-.027.164,0,.109.055.354-.109.354,0,.409-.9,1.253-.9,1.772a.838.838,0,0,1-.3.491c0,.136-.136.517-.327.517l-.136.191-.055.3c-.136.082-.3.218-.3.382a.3.3,0,0,0-.109.246c0,.163.027.218-.163.218s-.136,1.145-.382,1.336a2.027,2.027,0,0,1-.19.436c-.082.027-.109.137-.109.219l-.137.218-.218.109c-.027,0-.082,0-.082.055a.274.274,0,0,0,.109.191c-.055.164-.409.981-.573.981v.3l-.19-.136c0-.109,0-.164-.109-.164h-.082c0,.3-.109-.027-.109-.109l.3-.054.463-.954c-.164,0,.027-.082.081-.109.109-.272.218-.572.354-.844.327,0,.191-.382.164-.627-.055-.055-.109-.19.027-.19-.027-.082,0-.219.109-.219l.109.109c-.109-.137-.218-.218-.218-.409l.191-.245.218.081c0-.136.109-.245.109-.382l.191-.218c0-.027-.055-.218-.055-.218-.027,0-.027.137-.027.137l-.273.19c-.081,0-.136.027-.136.109v.109c-.055,0-.109,0-.109.082s-.027.109-.109.109c0,.136-.109.191-.109.327-.218,0,0,.518-.327.518a1.428,1.428,0,0,0-.19.572c-.137.109-.109.409-.191.573l-.109.082a1.078,1.078,0,0,1-.218.381c.027.027.218.109.218.137s-.055.027-.055.027l-.654.926c-.191,0,.027.219-.191.219l.218.027.109.136c0,.109-.082.136-.164.136H559.7c.027.109.027.3-.137.3l.109.109c0-.164.218-.109.327-.109l.191-.081a.46.46,0,0,1-.082.272l-.081.245c-.027,0-.109,0-.109.027a.122.122,0,0,0,.081.081l-.109.246v.218l-.109.109c-.164.027-.081.327-.218.436,0,.027,0,.109-.055.109-.081,0-.163-.246-.163-.328.272-.218,0-.381,0-.49,0,0-.109,0-.109-.027s.082-.055.109-.081c0-.082.109-.109.19-.109l.137.027c0-.218-.218-.027-.218-.218l-.109.027c0,.164.027.191-.163.191l-.164.272.027.246c.109,0,.109.19.109.272,0,.055,0,.246-.055.246a.234.234,0,0,1-.163-.082l.245.436c0,.055-.055.055-.082.055-.136,0-.272-.219-.272.027a2.177,2.177,0,0,0-.245.818l-.137.055c.027.027-.054.081-.081.081l-.055.3-.109.163-.081.027-.027.137c0,.191.081.354-.082.518,0,.163-.109.163-.109.3a1.5,1.5,0,0,0-.326.518c0,.573-.491.545-.491,1.063,0,.136-.109.136-.109.3a.421.421,0,0,1-.082.3c0,.218-.409.763-.409,1.063l-.3.108c-.327,0,.136-.436-.409-.436-.082,0-.245.055-.245-.081.136,0,.136-.191.109-.273l.081-.19a.081.081,0,0,0-.054-.109,4.287,4.287,0,0,0,.273-1.2l.081-.191-.163-.136v.109c-.082,0-.109.081-.109.164,0,.163-.109.272-.109.409l-.109.218v.246l-.109.109-.054.191-.137.109a1.9,1.9,0,0,1-.218.545.35.35,0,0,1-.109.272c-.136.272-.326.491-.436.763-.055,0-.082,0-.082.055,0,.082,0,.137-.109.137a.409.409,0,0,1-.109.3c0,.164-.027.436-.246.436,0,.055.109.327,0,.327-.055,0-.109-.054-.163-.109v-.3l.218-.245c0-.218.109-.409.109-.627a3.156,3.156,0,0,0,.191-.545.352.352,0,0,0,.109-.273c.055,0,.109-.027.109-.082v-.055h-.191l-.054-.354c.054-.054.19-.381.081-.381-.054,0-.136.191-.163.218a.261.261,0,0,1-.246-.137c0-.136.164-.9.328-.9a4.193,4.193,0,0,1,.108-.573l-.19.381c-.164,0-.082.437-.246.437l-.272.572c0,.109-.055.191-.164.191h-.055c0,.027,0,.163-.054.163-.027,0-.027-.108-.027-.108-.3,0-.436.654-.436.845-.246.218-.164.381-.246.708a.463.463,0,0,0-.382.382c-.109.109-.027.381-.191.381-.218,0-.109.273-.109.464-.191.136-.055.409-.218.573l-.218.054c0-.027,0-.164-.027-.164s-.082.164-.082.191l-.082.354c-.136.082-.19.763-.326.9-.246,0,0-.763,0-.9l-.109-.082v-.19a2,2,0,0,0,.109-.9l.218-.218c0-.109-.109-.19-.109-.409l.109-.109c0-.163-.272-.436,0-.708l-.081-.219.163-.163c-.054-.055-.19-.164-.027-.164a1.051,1.051,0,0,1,.164-.491c0-.19.082-.354.082-.572l.108-.109V557.5l.109-.109.082-.355.136-.19c0-.109.109-.164.109-.272.191-.082.109-.736.109-.872l.082-.081a4.465,4.465,0,0,1,.3-.763h.027a3.212,3.212,0,0,0,.109-.545h.137l.027-.027a2.845,2.845,0,0,1,.327-1.145,1.145,1.145,0,0,0,.19-.654,2.946,2.946,0,0,0,.218-.518c.191-.082.027-.381.218-.463,0-.109.109-.164.109-.272a.549.549,0,0,0,.082-.3.349.349,0,0,0,.109-.272c.055,0,.109-.027.109-.082,0-.081,0-.136.108-.136,0-.191.491-1.336.655-1.336,0-.273.218-.573.218-.818l.109-.246c.081-.027.109-.137.109-.218l.082-.109c0-.518.436-.927.436-1.336a.728.728,0,0,1,.218-.191c0-.3.409-.626.409-.708a.3.3,0,0,0,.109-.245c.055,0,.109,0,.109-.055,0-.109,0-.136.109-.136l.027-.327.055-.109c-.055,0-.164.027-.136.109a.027.027,0,0,1-.027-.027,5.041,5.041,0,0,1,.627-1.2c0-.218.218-.3.218-.491l.3-.518c0-.218.218-.327.218-.545l.109-.218c0-.055-.027-.164.082-.164h.109c0-.326.19-.326.327-.545,0-.218.218-.3.218-.518l.19-.108a.409.409,0,0,1,.109-.3l-.109-.164-.463.055c-.027.081-.136.109-.218.109h-1.281a.45.45,0,0,1-.3.191c-.082,0-.872-.082-.872.109h-.19Zm-4.252-1.39a.207.207,0,0,0,.136-.054l-.19-.027C551.472,539.154,551.5,539.208,551.527,539.208Zm.081,22.241c.054,0,.054-.055.054-.081l-.108-.027C551.554,561.368,551.581,561.449,551.608,561.449Zm.436-22.322c.054,0,.108-.027.108-.081l-.218-.027A.118.118,0,0,0,552.045,539.127Zm2.316,18.725c0,.027.027.081.055.081.055,0,.055-.136.055-.163l.082-.164v-.054c-.027,0-.082.163-.082.191A.1.1,0,0,0,554.361,557.851Zm.219-3.816c0,.054.054.054.081.054s.109,0,.109-.054a.226.226,0,0,0-.109-.164C554.634,553.927,554.58,553.981,554.58,554.035Zm.708-1.717a.182.182,0,0,1-.109.191l-.163-.082-.027.272c0,.109.082.137.082.246l-.082.191-.109.027a.35.35,0,0,1-.109.273l.109.054.164-.354.082-.081c.081-.328.218-.6.272-.954Zm-.382,1.663h.082c0-.055-.055-.082-.109-.082C554.879,553.927,554.879,553.981,554.906,553.981Zm.272-.273c0,.054,0,.081.055.081a1.371,1.371,0,0,0,.246-.627c0-.027,0-.054-.027-.054C555.342,553.109,555.178,553.626,555.178,553.708Zm.164-1.99c.055,0,.055-.055.055-.082a.058.058,0,0,0-.055-.054c-.027,0-.027.027-.055.027C555.288,551.637,555.315,551.719,555.342,551.719Zm.218-.436c.054,0,.054-.055.054-.082l-.109-.027C555.506,551.2,555.533,551.283,555.561,551.283Zm-.055,1.471c0,.027,0,.164.055.164s.054-.082.054-.109c.136.027.191-.109.191-.218l-.191-.164A.676.676,0,0,0,555.506,552.754Zm.164-1.253c.054,0,.054-.055.054-.082l-.109-.027C555.615,551.419,555.642,551.5,555.669,551.5Zm.109-.218c.027,0,.027-.055.027-.082l-.082-.027C555.724,551.2,555.724,551.283,555.778,551.283Zm.027.517.191.218v-.137c0-.027,0-.3-.054-.3A.6.6,0,0,0,555.806,551.8Zm.436,6.814c.027,0,.027-.027.027-.055,0-.055-.027-.055-.081-.055h-.027C556.16,558.56,556.187,558.615,556.242,558.615Zm0-.709c0,.082.109.082.164.082.027,0,.081,0,.081-.055a.4.4,0,0,0-.109-.245C556.324,557.742,556.242,557.824,556.242,557.905Zm.436-.517.109.055v-.218l-.109-.055Zm.136-.355h.081c0-.054-.054-.081-.109-.081C556.787,556.979,556.787,557.033,556.814,557.033Zm.055-7.713.081-.109s0-.108-.027-.108v.108Zm.027,7.44c0,.027.055.055.082.082l.109-.136c0-.027,0-.164-.054-.164s-.055.164-.055.191C556.978,556.734,556.9,556.734,556.9,556.761Zm.164-7.85c.055,0,.055-.054.055-.081l-.109-.027C557.005,548.83,557.032,548.911,557.059,548.911Zm.327-.354h.027c0-.055-.027-.055-.082-.055h-.026C557.305,548.557,557.331,548.557,557.386,548.557Zm.082-.191h.055c0-.054-.055-.081-.109-.081C557.414,548.312,557.414,548.366,557.468,548.366Zm.055-.218.136-.082c.027,0,.109,0,.109-.054,0-.082-.136-.191-.218-.191a.1.1,0,0,0-.027.055Zm1.526,5.969c0,.055-.055.082-.109.082a.87.87,0,0,1-.082-.245.087.087,0,0,1,.082-.082A.408.408,0,0,1,559.049,554.117Zm-.027-.545c.027,0,.027.109.027.109.027,0,.109,0,.109.055,0,.109-.136.136-.218.136A2.22,2.22,0,0,1,559.022,553.572Zm1.745-4.524c0-.055.027-.164.108-.164.055,0,.082.055.082.109Zm.027-2.862a.211.211,0,0,1,.218.191c.082,0,.164-.027.164-.137v-.163l-.3-.191Zm.872.3c.026,0,.026-.109.026-.109.027,0,.164,0,.164-.055,0-.082-.137-.164-.19-.164a.059.059,0,0,0-.055.055C561.612,546.24,561.639,546.486,561.666,546.486Zm0,.981c.026,0,.026-.054.026-.081s0-.055-.026-.055a.1.1,0,0,0-.055.027C561.612,547.385,561.612,547.467,561.666,547.467Zm.571-1.581c0,.082.055.082.109.082l-.109-.191Zm.109-.354.082.109v-.191l-.082-.19Zm.463.027c.027,0,.027-.027.027-.055s0-.055-.027-.055a.093.093,0,0,0-.054.027C562.756,545.5,562.783,545.559,562.81,545.559Zm.082-.3c.055,0,.055-.055.055-.082l-.109-.027C562.838,545.177,562.865,545.259,562.892,545.259Zm.218-.3c.055,0,.055-.055.055-.082a.059.059,0,0,0-.055-.055c-.027,0-.027.027-.055.027C563.055,544.877,563.083,544.959,563.11,544.959Zm.218-.654-.164.109c0,.082-.082.136-.082.164s.109.027.191.027l.054-.191.136-.109a3.156,3.156,0,0,1,.573-.954l-.109.081C563.737,543.433,563.41,544.142,563.328,544.305Zm.709-2.1c0,.136.136.164.246.164a.1.1,0,0,0,.109-.109c0-.081-.109-.327-.218-.327C564.119,541.934,564.037,542.152,564.037,542.206Zm.109-.463.218.054.218-.245-.327-.109A.373.373,0,0,1,564.146,541.743Zm.518-.818-.191.109-.109.137c0,.109.054.19.164.19a.129.129,0,0,0,.137-.136c.027,0,.19.027.19-.027s-.082-.109-.082-.191C564.745,541.034,564.664,540.953,564.664,540.925Zm.436-.382-.109-.082.164-.19a.348.348,0,0,0-.192-.109c-.081,0-.081.055-.081.109-.055,0-.109,0-.109.082s.137.136.218.136Zm-.328.463c.027,0,.109,0,.109-.054a.058.058,0,0,0-.055-.054.1.1,0,0,0-.055.027Zm.3-1.035h.109c0-.055-.054-.082-.109-.082h-.082A.073.073,0,0,0,565.073,539.971Zm.027-.436c0,.108.055.136.163.136.055,0,.246.027.246-.081,0-.136-.136-.272-.218-.354Zm.436-2.453c-.027,0-.054,0-.054-.027l.027.027Zm.191,2.344c0,.027.081.027.109.027.055,0,.109,0,.109-.082s-.082-.164-.137-.218C565.808,539.263,565.727,539.317,565.727,539.426Zm.627-2.426c0,.055.082.055.109.055l.517-.027c0-.027,0-.163-.055-.163H566.9c-.027,0-.081.054-.109.081l-.354-.081A.23.23,0,0,0,566.354,537Zm.845-.027c0,.027.055.055.082.055.081,0,.109-.081.109-.163.027-.027.109-.055.109-.109,0-.027-.082-.027-.109-.027-.081,0-.109.082-.109.137v.081C567.253,536.946,567.2,536.946,567.2,536.973Zm2.044.491a.163.163,0,0,0,.109-.027c0-.053-.054-.053-.109-.053h-.082A.072.072,0,0,0,569.243,537.463Zm.491-.081c.055,0,.055-.055.055-.082l-.109-.027C569.679,537.3,569.706,537.383,569.734,537.383Zm4.934-1.881-.082.19c-.136,0-.082-.109-.218-.109a.182.182,0,0,0,.109-.191C574.64,535.392,574.53,535.5,574.667,535.5Z" transform="translate(-507.758 -528.688)" fill="#fff"/>
    </g>
  </g>
</svg>
