<svg xmlns="http://www.w3.org/2000/svg" xmlns:xlink="http://www.w3.org/1999/xlink" width="96.716" height="44.566" viewBox="0 0 96.716 44.566">
  <defs>
    <linearGradient id="linear-gradient" x1="0.5" x2="0.5" y2="1" gradientUnits="objectBoundingBox">
      <stop offset="0" stop-color="#04da9a"/>
      <stop offset="1" stop-color="#058962"/>
    </linearGradient>
    <clipPath id="clip-path">
      <rect id="사각형_2575" data-name="사각형 2575" width="96.716" height="44.566" fill="none"/>
    </clipPath>
    <clipPath id="clip-path-2">
      <path id="패스_5622" data-name="패스 5622" d="M59.047,24.048,46.729,37.569l-7.661-6.652-.026-.02a1.081,1.081,0,0,0-1.52.155L35.243,33.84a1.088,1.088,0,0,0,.133,1.5l9.816,8.441a2.846,2.846,0,0,0,1.826.652,2.91,2.91,0,0,0,2.146-.955L63.332,27.908l0,0a1.081,1.081,0,0,0-.083-1.526l-2.686-2.411a1.082,1.082,0,0,0-1.519.08" transform="translate(-35.002 -23.694)" fill="url(#linear-gradient)"/>
    </clipPath>
  </defs>
  <g id="그룹_3157" data-name="그룹 3157" transform="translate(0 0)">
    <path id="패스_5612" data-name="패스 5612" d="M17.1.653,13.442,9.82,10.968,4.006,9.748,1.178,8.623,4.044,6.317,9.82,2.4.653H0L6.374,15.182,9.823,6.8,13.5,15.182,19.479.653Z" transform="translate(0 0.003)" fill="#fff"/>
    <path id="패스_5613" data-name="패스 5613" d="M24.767,6.313h5.08v1.97h-5.08V12.6h6.168v1.967H22.591V.652h8.343V2.6H24.767Z" transform="translate(0.121 0.003)" fill="#fff"/>
    <g id="그룹_3146" data-name="그룹 3146" transform="translate(0 0)">
      <g id="그룹_3145" data-name="그룹 3145" clip-path="url(#clip-path)">
        <path id="패스_5614" data-name="패스 5614" d="M45.557,7.607a7.086,7.086,0,0,1-1.692,4.877,5.631,5.631,0,0,1-2.228,1.536,8.181,8.181,0,0,1-3.037.544H35.3V.653h3.3a7.813,7.813,0,0,1,3.037.544,5.631,5.631,0,0,1,2.228,1.536,7.078,7.078,0,0,1,1.692,4.874m-2.176,0A4.988,4.988,0,0,0,42.255,4.2,4.653,4.653,0,0,0,38.6,2.827H37.475v9.561H38.6a4.718,4.718,0,0,0,3.655-1.367,5.025,5.025,0,0,0,1.126-3.413" transform="translate(0.189 0.003)" fill="#fff"/>
        <path id="패스_5615" data-name="패스 5615" d="M59.486,7.607A7.1,7.1,0,0,1,57.8,12.484a5.653,5.653,0,0,1-2.232,1.536,8.154,8.154,0,0,1-3.034.544h-3.3V.653h3.3a7.787,7.787,0,0,1,3.034.544A5.653,5.653,0,0,1,57.8,2.733a7.1,7.1,0,0,1,1.688,4.874m-2.176,0A4.988,4.988,0,0,0,56.185,4.2a4.65,4.65,0,0,0-3.653-1.37H51.407v9.561h1.125a4.715,4.715,0,0,0,3.653-1.367A5.025,5.025,0,0,0,57.31,7.607" transform="translate(0.263 0.003)" fill="#fff"/>
        <rect id="사각형_2574" data-name="사각형 2574" width="2.176" height="13.911" transform="translate(64.01 0.655)" fill="#fff"/>
        <path id="패스_5616" data-name="패스 5616" d="M72.74,5.624v8.943H70.565V0L79.3,9.581V.656h2.2V15.2Z" transform="translate(0.378 -0.001)" fill="#fff"/>
        <path id="패스_5617" data-name="패스 5617" d="M96.245,9.313v3.77l-.485.336c-.022,0-.022,0-.038.019a.166.166,0,0,1-.074.037c-.021.018-.037.037-.058.037a.1.1,0,0,1-.075.037.25.25,0,0,1-.074.056c-.018.018-.037.018-.055.037s-.037.018-.056.04c-.037.018-.059.018-.1.037-.016.019-.037.019-.053.037a.152.152,0,0,1-.1.037.192.192,0,0,1-.038.037h-.036a.335.335,0,0,1-.094.056c-.037.019-.093.037-.131.056l-.019.018a7.011,7.011,0,0,1-2.493.6h-.357a6.591,6.591,0,0,1-2.192-.357H89.7c-.075-.019-.131-.056-.206-.075l-.279-.112a3.832,3.832,0,0,1-.678-.336A6.235,6.235,0,0,1,87,12.521a6.894,6.894,0,0,1-1.5-2.214A6.6,6.6,0,0,1,85,8.3c-.021-.227-.037-.469-.037-.7V7.252A7.23,7.23,0,0,1,85.5,4.89,7.074,7.074,0,0,1,87,2.676,6.987,6.987,0,0,1,91.915.652h.357a.511.511,0,0,1,.169.019,6.835,6.835,0,0,1,2.343.581s0,.019.018.019c.038.018.075.037.113.056h.018V3.9A4.57,4.57,0,0,0,94,3.3a5.462,5.462,0,0,0-.862-.318.071.071,0,0,1-.056-.018h-.056c-.018-.019-.037-.019-.074-.019a.059.059,0,0,1-.037-.018c-.077-.019-.168-.019-.242-.038H92.63c-.022,0-.059-.021-.077-.021h-.037a.113.113,0,0,1-.074-.018h-.169c-.021,0-.037-.019-.058-.019h-.3A4.658,4.658,0,0,0,89.46,3.5a.424.424,0,0,1-.093.055,4.079,4.079,0,0,0-.827.675,3.079,3.079,0,0,0-.242.243.018.018,0,0,1-.019.018c-.092.113-.168.227-.245.339A.377.377,0,0,1,88,4.87l-.112.168a.165.165,0,0,0-.037.075,4.486,4.486,0,0,0-.581,1.427c-.016.018-.016.018-.016.037a5.337,5.337,0,0,0-.1.562v.205a1.215,1.215,0,0,0-.019.261,1.13,1.13,0,0,0,.019.245,4.776,4.776,0,0,0,4.762,4.536h.134a.063.063,0,0,0,.053-.019h.283c0-.018.018-.018.037-.018h.112c.134-.019.284-.056.413-.074.019,0,.019,0,.037-.019a.108.108,0,0,0,.074-.019h.056a.072.072,0,0,1,.056-.018.115.115,0,0,1,.077-.019.077.077,0,0,0,.037-.018,3.894,3.894,0,0,0,.768-.3h.016V9.313H91.446V7.345h4.8Z" transform="translate(0.455 0.003)" fill="#fff"/>
        <path id="패스_5618" data-name="패스 5618" d="M14.616,38.549a6.186,6.186,0,1,1-.019-8.982l.318.3,2.871-3.045-.318-.3A10.352,10.352,0,1,0,17.5,41.582l.316-.3-2.885-3.033Z" transform="translate(0 0.126)" fill="#fff"/>
        <path id="패스_5619" data-name="패스 5619" d="M33.7,31.975H25.469V23.694H21.283V44.44h4.186V36.161H33.7V44.44h4.185V23.694H33.7Z" transform="translate(0.114 0.126)" fill="#fff"/>
        <path id="패스_5620" data-name="패스 5620" d="M71.881,38.549a6.186,6.186,0,1,1-.019-8.982l.318.3,2.873-3.045-.318-.3a10.354,10.354,0,1,0,.031,15.059l.317-.3L72.2,38.247Z" transform="translate(0.306 0.126)" fill="#fff"/>
        <path id="패스_5621" data-name="패스 5621" d="M86.378,34.059l9.794-10.365H90.412L83.1,31.435V23.694H78.913V44.439H83.1V36.687L90.5,44.439h5.789Z" transform="translate(0.422 0.126)" fill="#fff"/>
      </g>
    </g>
    <g id="그룹_3148" data-name="그룹 3148" transform="translate(35.189 23.821)">
      <g id="그룹_3147" data-name="그룹 3147" clip-path="url(#clip-path-2)">
        <rect id="사각형_2576" data-name="사각형 2576" width="28.858" height="20.746" transform="translate(-0.126 0.001)" fill="url(#linear-gradient)"/>
      </g>
    </g>
  </g>
</svg>
